%FSLAX34Y34*%
%MOMM*%
%LNSILK_TOP*%
G71*
G01*
%ADD10C,0.150*%
%ADD11C,0.100*%
%ADD12C,0.178*%
%ADD13C,0.644*%
%ADD14C,0.800*%
%ADD15C,0.254*%
%ADD16C,1.500*%
%ADD17C,0.222*%
%ADD18C,0.400*%
%ADD19C,0.300*%
%ADD20C,0.111*%
%ADD21C,0.124*%
%ADD22C,0.156*%
%LPD*%
G54D10*
X429310Y1565070D02*
X429310Y1584070D01*
X467310Y1584070D01*
X467310Y1565070D01*
X429310Y1565070D01*
G54D10*
X429210Y1574570D02*
X395910Y1574570D01*
G54D10*
X500710Y1574570D02*
X467410Y1574570D01*
G54D10*
X480100Y1632800D02*
X480100Y1615400D01*
X510500Y1615400D01*
X510500Y1632800D01*
X480100Y1632800D01*
G36*
X480200Y1632700D02*
X480200Y1616000D01*
X487400Y1616000D01*
X487400Y1632700D01*
X480200Y1632700D01*
G37*
G54D11*
X480200Y1632700D02*
X480200Y1616000D01*
X487400Y1616000D01*
X487400Y1632700D01*
X480200Y1632700D01*
G54D10*
X456400Y1624100D02*
X480200Y1624100D01*
G54D10*
X510400Y1624100D02*
X534200Y1624100D01*
G54D12*
X442417Y1544851D02*
X445617Y1543073D01*
X446683Y1541296D01*
X446683Y1537740D01*
G54D12*
X438150Y1537740D02*
X438150Y1551962D01*
X443483Y1551962D01*
X445617Y1551073D01*
X446683Y1549296D01*
X446683Y1547518D01*
X445617Y1545740D01*
X443483Y1544851D01*
X438150Y1544851D01*
G54D12*
X450594Y1546629D02*
X455927Y1551962D01*
X455927Y1537740D01*
G54D12*
X488950Y1645690D02*
X488950Y1659912D01*
X494283Y1659912D01*
X496417Y1659023D01*
X497483Y1657246D01*
X497483Y1648357D01*
X496417Y1646579D01*
X494283Y1645690D01*
X488950Y1645690D01*
G54D12*
X501394Y1654579D02*
X506727Y1659912D01*
X506727Y1645690D01*
G54D12*
X645160Y1565680D02*
X650493Y1579902D01*
X655827Y1565680D01*
G54D12*
X647293Y1571013D02*
X653693Y1571013D01*
G54D12*
X659738Y1565680D02*
X659738Y1579902D01*
X668271Y1565680D01*
X668271Y1579902D01*
G54D12*
X676449Y1565680D02*
X676449Y1579902D01*
G54D12*
X672182Y1579902D02*
X680715Y1579902D01*
G54D13*
X84842Y1676607D02*
X136397Y1676607D01*
X104175Y1699807D01*
X97731Y1699807D01*
X97731Y1668874D01*
G54D13*
X84842Y1646963D02*
X78397Y1646963D01*
X71953Y1650829D01*
X71953Y1654696D01*
G54D13*
X136397Y1601852D02*
X136397Y1632785D01*
X113842Y1632785D01*
X113842Y1628918D01*
X117064Y1621185D01*
X117064Y1613452D01*
X113842Y1605718D01*
X107397Y1601852D01*
X94508Y1601852D01*
X88064Y1605718D01*
X84842Y1613452D01*
X84842Y1621185D01*
X88064Y1628918D01*
X94508Y1632785D01*
G54D13*
X136397Y1572723D02*
X84842Y1553390D01*
X136397Y1534056D01*
G54D13*
X84842Y1504927D02*
X136397Y1504927D01*
X136397Y1485594D01*
X133175Y1477860D01*
X126731Y1473994D01*
X94508Y1473994D01*
X88064Y1477860D01*
X84842Y1485594D01*
X84842Y1504927D01*
G54D13*
X94508Y1428883D02*
X88064Y1432749D01*
X84842Y1440483D01*
X84842Y1448216D01*
X88064Y1455949D01*
X94508Y1459816D01*
X126731Y1459816D01*
X133175Y1455949D01*
X136397Y1448216D01*
X136397Y1440483D01*
X133175Y1432749D01*
X126731Y1428883D01*
G54D14*
X847090Y1801900D02*
X1101090Y1801900D01*
X1101090Y1547900D01*
X847090Y1547900D01*
X847090Y1801900D01*
G54D12*
X971138Y1520468D02*
X970071Y1518691D01*
X967938Y1517802D01*
X965805Y1517802D01*
X963671Y1518691D01*
X962605Y1520468D01*
X962605Y1529357D01*
X963671Y1531135D01*
X965805Y1532024D01*
X967938Y1532024D01*
X970071Y1531135D01*
X971138Y1529357D01*
G54D12*
X983582Y1517802D02*
X975049Y1517802D01*
X975049Y1518691D01*
X976115Y1520469D01*
X982515Y1525802D01*
X983582Y1527580D01*
X983582Y1529357D01*
X982515Y1531135D01*
X980382Y1532024D01*
X978249Y1532024D01*
X976115Y1531135D01*
X975049Y1529357D01*
G54D15*
X723900Y1655850D02*
X729233Y1670072D01*
X734567Y1655850D01*
G54D15*
X726033Y1661183D02*
X732433Y1661183D01*
G54D15*
X747012Y1655850D02*
X739545Y1655850D01*
X739545Y1670072D01*
X747012Y1670072D01*
G54D15*
X739545Y1662961D02*
X747012Y1662961D01*
G54D15*
X757181Y1667406D02*
X758248Y1669183D01*
X760381Y1670072D01*
X762514Y1670072D01*
X764648Y1669183D01*
X765714Y1667406D01*
X765714Y1665628D01*
X764648Y1663850D01*
X762514Y1662961D01*
X764648Y1662072D01*
X765714Y1660294D01*
X765714Y1658517D01*
X764648Y1656739D01*
X762514Y1655850D01*
X760381Y1655850D01*
X758248Y1656739D01*
X757181Y1658517D01*
G54D16*
X114300Y1801900D02*
X177800Y1801900D01*
X177800Y1751100D01*
X114300Y1751100D01*
G36*
X114300Y1809400D02*
X114300Y1794400D01*
X106800Y1794400D01*
X106800Y1809400D01*
X114300Y1809400D01*
G37*
G36*
X114300Y1758600D02*
X114300Y1743600D01*
X106800Y1743600D01*
X106800Y1758600D01*
X114300Y1758600D01*
G37*
G54D16*
X139700Y1801900D02*
X139700Y1751100D01*
G36*
X147200Y1801900D02*
X132200Y1801900D01*
X132200Y1809400D01*
X147200Y1809400D01*
X147200Y1801900D01*
G37*
G36*
X132200Y1751100D02*
X147200Y1751100D01*
X147200Y1743600D01*
X132200Y1743600D01*
X132200Y1751100D01*
G37*
G54D16*
X38100Y1801900D02*
X88900Y1801900D01*
X88900Y1751100D01*
G36*
X38100Y1809400D02*
X38100Y1794400D01*
X30600Y1794400D01*
X30600Y1809400D01*
X38100Y1809400D01*
G37*
G36*
X81400Y1751100D02*
X96400Y1751100D01*
X96400Y1743600D01*
X81400Y1743600D01*
X81400Y1751100D01*
G37*
G54D16*
X38100Y1801900D02*
X38100Y1751100D01*
G36*
X45600Y1801900D02*
X30600Y1801900D01*
X30600Y1809400D01*
X45600Y1809400D01*
X45600Y1801900D01*
G37*
G36*
X30600Y1751100D02*
X45600Y1751100D01*
X45600Y1743600D01*
X30600Y1743600D01*
X30600Y1751100D01*
G37*
G54D16*
X62932Y1801332D02*
X62932Y1750532D01*
G36*
X70432Y1801332D02*
X55432Y1801332D01*
X55432Y1808832D01*
X70432Y1808832D01*
X70432Y1801332D01*
G37*
G36*
X55432Y1750532D02*
X70432Y1750532D01*
X70432Y1743032D01*
X55432Y1743032D01*
X55432Y1750532D01*
G37*
G54D12*
X302463Y1646202D02*
X293574Y1646202D01*
X291796Y1647268D01*
X290907Y1649402D01*
X290907Y1651535D01*
X291796Y1653668D01*
X293574Y1654735D01*
X302463Y1654735D01*
X304241Y1653668D01*
X305130Y1651535D01*
X305130Y1649402D01*
X304241Y1647268D01*
X302463Y1646202D01*
G54D12*
X305130Y1642291D02*
X293574Y1642291D01*
X291796Y1641224D01*
X290907Y1639091D01*
X290907Y1636958D01*
X291796Y1634824D01*
X293574Y1633758D01*
X305130Y1633758D01*
G54D12*
X290907Y1625580D02*
X305130Y1625580D01*
G54D12*
X305130Y1629847D02*
X305130Y1621314D01*
G54D17*
X308230Y1697322D02*
X290452Y1697322D01*
G54D17*
X290452Y1691989D02*
X290452Y1702656D01*
G54D18*
X304800Y1801900D02*
X762000Y1801900D01*
G54D18*
X762000Y1801900D02*
X762000Y1725700D01*
X304800Y1725700D01*
X304800Y1801900D01*
G54D18*
X546100Y1662200D02*
X546100Y1725700D01*
G54D18*
X647700Y1662200D02*
X647700Y1725700D01*
G54D18*
X546100Y1725700D02*
X558800Y1801900D01*
G54D18*
X558800Y1725700D02*
X571500Y1801900D01*
G54D18*
X571500Y1725700D02*
X584200Y1801900D01*
G54D18*
X584200Y1725700D02*
X596900Y1801900D01*
G54D18*
X596900Y1725700D02*
X609600Y1801900D01*
G54D18*
X609600Y1725700D02*
X622300Y1801900D01*
G54D18*
X622300Y1725700D02*
X635000Y1801900D01*
G54D18*
X635000Y1725700D02*
X647700Y1801900D01*
G54D18*
X647700Y1801900D02*
X647700Y1725700D01*
G54D18*
X847003Y1782850D02*
X800100Y1782850D01*
X800100Y1757450D01*
X846570Y1757449D01*
G54D18*
X847003Y1592351D02*
X800100Y1592350D01*
X800100Y1566950D01*
X846570Y1566950D01*
G54D12*
X393700Y1714522D02*
X393700Y1700300D01*
X401167Y1700300D01*
G54D12*
X405078Y1709189D02*
X410411Y1714522D01*
X410411Y1700300D01*
G54D19*
X342900Y1801900D02*
X342900Y1725700D01*
G54D19*
X723052Y1801053D02*
X723052Y1724853D01*
G54D12*
X376833Y1626767D02*
X375767Y1624989D01*
X373633Y1624100D01*
X371500Y1624100D01*
X369367Y1624989D01*
X368300Y1626767D01*
X368300Y1635656D01*
X369367Y1637433D01*
X371500Y1638322D01*
X373633Y1638322D01*
X375767Y1637433D01*
X376833Y1635656D01*
G54D12*
X380744Y1632989D02*
X386077Y1638322D01*
X386077Y1624100D01*
G54D10*
X358000Y1672600D02*
X327800Y1672600D01*
X327800Y1575600D01*
X358000Y1575600D01*
X358000Y1672600D01*
G54D10*
X350900Y1625600D02*
X334900Y1625600D01*
G54D10*
X350900Y1622400D02*
X334900Y1622400D01*
G54D10*
X342900Y1651000D02*
X342900Y1625600D01*
G54D10*
X342900Y1622400D02*
X342900Y1597000D01*
G54D10*
X391210Y1311070D02*
X391210Y1330070D01*
X429210Y1330070D01*
X429210Y1311070D01*
X391210Y1311070D01*
G54D10*
X391110Y1320570D02*
X357810Y1320570D01*
G54D10*
X462610Y1320570D02*
X429310Y1320570D01*
G54D10*
X492810Y1349170D02*
X492810Y1368170D01*
X530810Y1368170D01*
X530810Y1349170D01*
X492810Y1349170D01*
G54D10*
X492710Y1358670D02*
X459410Y1358670D01*
G54D10*
X564210Y1358670D02*
X530910Y1358670D01*
G54D10*
X353110Y1438070D02*
X353110Y1457070D01*
X391110Y1457070D01*
X391110Y1438070D01*
X353110Y1438070D01*
G54D10*
X353010Y1447570D02*
X319710Y1447570D01*
G54D10*
X424510Y1447570D02*
X391210Y1447570D01*
G54D10*
X261010Y1377670D02*
X280010Y1377670D01*
X280010Y1339670D01*
X261010Y1339670D01*
X261010Y1377670D01*
G54D10*
X270510Y1377770D02*
X270510Y1411070D01*
G54D10*
X270510Y1306270D02*
X270510Y1339570D01*
G54D10*
X299110Y1352270D02*
X318110Y1352270D01*
X318110Y1314270D01*
X299110Y1314270D01*
X299110Y1352270D01*
G54D10*
X308610Y1352370D02*
X308610Y1385670D01*
G54D10*
X308610Y1280870D02*
X308610Y1314170D01*
G54D10*
X404455Y1272500D02*
X404455Y1289900D01*
X374055Y1289900D01*
X374055Y1272500D01*
X404455Y1272500D01*
G36*
X404355Y1272600D02*
X404355Y1289300D01*
X397155Y1289300D01*
X397155Y1272600D01*
X404355Y1272600D01*
G37*
G54D11*
X404355Y1272600D02*
X404355Y1289300D01*
X397155Y1289300D01*
X397155Y1272600D01*
X404355Y1272600D01*
G54D10*
X428155Y1281200D02*
X404355Y1281200D01*
G54D10*
X374155Y1281200D02*
X350355Y1281200D01*
G54D12*
X512225Y1208879D02*
X512225Y1199991D01*
X511158Y1198213D01*
X509025Y1197324D01*
X506891Y1197324D01*
X504758Y1198213D01*
X503691Y1199991D01*
X503691Y1208879D01*
X504758Y1210657D01*
X506891Y1211546D01*
X509025Y1211546D01*
X511158Y1210657D01*
X512225Y1208879D01*
G54D12*
X516135Y1211546D02*
X516135Y1199991D01*
X517202Y1198213D01*
X519335Y1197324D01*
X521469Y1197324D01*
X523602Y1198213D01*
X524669Y1199990D01*
X524669Y1211546D01*
G54D12*
X532846Y1197324D02*
X532846Y1211546D01*
G54D12*
X528579Y1211546D02*
X537113Y1211546D01*
G54D17*
X572229Y1215281D02*
X572229Y1197503D01*
G54D17*
X577562Y1197503D02*
X566896Y1197503D01*
G54D17*
X572229Y1481346D02*
X572229Y1463568D01*
G54D17*
X577562Y1463568D02*
X566896Y1463568D01*
G54D12*
X513851Y1464024D02*
X513851Y1478246D01*
G54D12*
X517762Y1464024D02*
X517762Y1478246D01*
X526296Y1464024D01*
X526296Y1478246D01*
G54D15*
X257810Y1164360D02*
X263143Y1178582D01*
X268477Y1164360D01*
G54D15*
X259943Y1169693D02*
X266343Y1169693D01*
G54D15*
X280922Y1164360D02*
X273455Y1164360D01*
X273455Y1178582D01*
X280922Y1178582D01*
G54D15*
X273455Y1171471D02*
X280922Y1171471D01*
G54D15*
X291091Y1173249D02*
X296424Y1178582D01*
X296424Y1164360D01*
G54D17*
X269376Y1446402D02*
X280043Y1446402D01*
G54D17*
X274710Y1450846D02*
X274710Y1441957D01*
G54D10*
X362900Y1385993D02*
X359700Y1385993D01*
X359700Y1405993D01*
X362900Y1405993D01*
X362900Y1385993D01*
G54D10*
X366100Y1385993D02*
X366100Y1405993D01*
G54D10*
X366400Y1396693D02*
X373400Y1396693D01*
G54D10*
X359400Y1396693D02*
X353400Y1396693D01*
G54D20*
X359850Y1382025D02*
X350250Y1382025D01*
G54D20*
X355050Y1386025D02*
X355050Y1378025D01*
G54D10*
X464500Y1398693D02*
X461300Y1398693D01*
X461300Y1418693D01*
X464500Y1418693D01*
X464500Y1398693D01*
G54D10*
X467700Y1398693D02*
X467700Y1418693D01*
G54D10*
X468000Y1409393D02*
X475000Y1409393D01*
G54D10*
X461000Y1409393D02*
X455000Y1409393D01*
G54D20*
X461450Y1394725D02*
X451850Y1394725D01*
G54D20*
X456650Y1398725D02*
X456650Y1390725D01*
G54D10*
X414480Y1217650D02*
X444500Y1217700D01*
G54D10*
X401780Y1217650D02*
X368300Y1217700D01*
G54D10*
X407980Y1235150D02*
X407980Y1200150D01*
X401680Y1200150D01*
X401680Y1235150D01*
X407980Y1235150D01*
G54D10*
X414480Y1200250D02*
X414480Y1235250D01*
G54D21*
X388100Y1203628D02*
X398767Y1203628D01*
G54D21*
X393433Y1208072D02*
X393433Y1199183D01*
G54D10*
G75*
G01X434975Y1217700D02*
G03X434975Y1217700I-38100J0D01*
G01*
G54D10*
G75*
G01X378460Y1392960D02*
G03X378460Y1392960I-25400J0D01*
G01*
G54D10*
G75*
G01X483870Y1404390D02*
G03X483870Y1404390I-31750J0D01*
G01*
G54D10*
X433388Y1230400D02*
X457200Y1230400D01*
X457200Y1205000D01*
X433388Y1205000D01*
G54D10*
X482600Y1392325D02*
X501650Y1392325D01*
X501650Y1417725D01*
X481012Y1417725D01*
G54D10*
X374650Y1379625D02*
X393700Y1379625D01*
X393700Y1405025D01*
X376238Y1405025D01*
G54D12*
X376833Y1356892D02*
X375767Y1355114D01*
X373633Y1354225D01*
X371500Y1354225D01*
X369367Y1355114D01*
X368300Y1356892D01*
X368300Y1365781D01*
X369367Y1367558D01*
X371500Y1368447D01*
X373633Y1368447D01*
X375767Y1367558D01*
X376833Y1365781D01*
G54D12*
X389277Y1354225D02*
X380744Y1354225D01*
X380744Y1355114D01*
X381811Y1356892D01*
X388211Y1362225D01*
X389277Y1364003D01*
X389277Y1365781D01*
X388211Y1367558D01*
X386077Y1368447D01*
X383944Y1368447D01*
X381811Y1367558D01*
X380744Y1365781D01*
G54D12*
X395883Y1160042D02*
X394817Y1158264D01*
X392683Y1157375D01*
X390550Y1157375D01*
X388417Y1158264D01*
X387350Y1160042D01*
X387350Y1168931D01*
X388417Y1170708D01*
X390550Y1171597D01*
X392683Y1171597D01*
X394817Y1170708D01*
X395883Y1168931D01*
G54D12*
X399794Y1168931D02*
X400861Y1170708D01*
X402994Y1171597D01*
X405127Y1171597D01*
X407261Y1170708D01*
X408327Y1168931D01*
X408327Y1167153D01*
X407261Y1165375D01*
X405127Y1164486D01*
X407261Y1163597D01*
X408327Y1161819D01*
X408327Y1160042D01*
X407261Y1158264D01*
X405127Y1157375D01*
X402994Y1157375D01*
X400861Y1158264D01*
X399794Y1160042D01*
G54D12*
X236042Y1358161D02*
X239242Y1356383D01*
X240308Y1354606D01*
X240308Y1351050D01*
G54D12*
X231775Y1351050D02*
X231775Y1365272D01*
X237108Y1365272D01*
X239242Y1364383D01*
X240308Y1362606D01*
X240308Y1360828D01*
X239242Y1359050D01*
X237108Y1358161D01*
X231775Y1358161D01*
G54D12*
X252752Y1365272D02*
X244219Y1365272D01*
X244219Y1359050D01*
X245286Y1359050D01*
X247419Y1359939D01*
X249552Y1359939D01*
X251686Y1359050D01*
X252752Y1357272D01*
X252752Y1353717D01*
X251686Y1351939D01*
X249552Y1351050D01*
X247419Y1351050D01*
X245286Y1351939D01*
X244219Y1353717D01*
G54D12*
X366217Y1472461D02*
X369417Y1470683D01*
X370483Y1468906D01*
X370483Y1465350D01*
G54D12*
X361950Y1465350D02*
X361950Y1479572D01*
X367283Y1479572D01*
X369417Y1478683D01*
X370483Y1476906D01*
X370483Y1475128D01*
X369417Y1473350D01*
X367283Y1472461D01*
X361950Y1472461D01*
G54D12*
X374394Y1476906D02*
X375461Y1478683D01*
X377594Y1479572D01*
X379727Y1479572D01*
X381861Y1478683D01*
X382927Y1476906D01*
X382927Y1475128D01*
X381861Y1473350D01*
X379727Y1472461D01*
X381861Y1471572D01*
X382927Y1469794D01*
X382927Y1468017D01*
X381861Y1466239D01*
X379727Y1465350D01*
X377594Y1465350D01*
X375461Y1466239D01*
X374394Y1468017D01*
G54D12*
X597992Y1358161D02*
X601192Y1356383D01*
X602258Y1354606D01*
X602258Y1351050D01*
G54D12*
X593725Y1351050D02*
X593725Y1365272D01*
X599058Y1365272D01*
X601192Y1364383D01*
X602258Y1362606D01*
X602258Y1360828D01*
X601192Y1359050D01*
X599058Y1358161D01*
X593725Y1358161D01*
G54D12*
X612569Y1351050D02*
X612569Y1365272D01*
X606169Y1356383D01*
X606169Y1354606D01*
X614702Y1354606D01*
G54D12*
X481608Y1436267D02*
X480542Y1434489D01*
X478408Y1433600D01*
X476275Y1433600D01*
X474142Y1434489D01*
X473075Y1436267D01*
X473075Y1445156D01*
X474142Y1446933D01*
X476275Y1447822D01*
X478408Y1447822D01*
X480542Y1446933D01*
X481608Y1445156D01*
G54D12*
X485519Y1442489D02*
X490852Y1447822D01*
X490852Y1433600D01*
G54D12*
X460375Y1274850D02*
X460375Y1289072D01*
X465708Y1289072D01*
X467842Y1288183D01*
X468908Y1286406D01*
X468908Y1277517D01*
X467842Y1275739D01*
X465708Y1274850D01*
X460375Y1274850D01*
G54D12*
X472819Y1283739D02*
X478152Y1289072D01*
X478152Y1274850D01*
G54D12*
X404317Y1342286D02*
X407517Y1340508D01*
X408583Y1338731D01*
X408583Y1335175D01*
G54D12*
X400050Y1335175D02*
X400050Y1349397D01*
X405383Y1349397D01*
X407517Y1348508D01*
X408583Y1346731D01*
X408583Y1344953D01*
X407517Y1343175D01*
X405383Y1342286D01*
X400050Y1342286D01*
G54D12*
X421027Y1335175D02*
X412494Y1335175D01*
X412494Y1336064D01*
X413561Y1337842D01*
X419961Y1343175D01*
X421027Y1344953D01*
X421027Y1346731D01*
X419961Y1348508D01*
X417827Y1349397D01*
X415694Y1349397D01*
X413561Y1348508D01*
X412494Y1346731D01*
G54D12*
X328117Y1351811D02*
X331317Y1350033D01*
X332383Y1348256D01*
X332383Y1344700D01*
G54D12*
X323850Y1344700D02*
X323850Y1358922D01*
X329183Y1358922D01*
X331317Y1358033D01*
X332383Y1356256D01*
X332383Y1354478D01*
X331317Y1352700D01*
X329183Y1351811D01*
X323850Y1351811D01*
G54D12*
X336294Y1353589D02*
X341627Y1358922D01*
X341627Y1344700D01*
G54D12*
X567333Y1398167D02*
X566267Y1396389D01*
X564133Y1395500D01*
X562000Y1395500D01*
X559867Y1396389D01*
X558800Y1398167D01*
X558800Y1407056D01*
X559867Y1408833D01*
X562000Y1409722D01*
X564133Y1409722D01*
X566267Y1408833D01*
X567333Y1407056D01*
G54D12*
X577644Y1395500D02*
X577644Y1409722D01*
X571244Y1400833D01*
X571244Y1399056D01*
X579777Y1399056D01*
G54D10*
G75*
G01X571500Y1249450D02*
G03X571500Y1249450I-31750J0D01*
G01*
G54D10*
X231799Y1211350D02*
X297791Y1211350D01*
G54D10*
G75*
G01X297791Y1211350D02*
G03X231799Y1211350I-32996J19050D01*
G01*
G54D10*
X506834Y1287550D02*
X572825Y1287550D01*
G54D10*
G75*
G01X572825Y1287550D02*
G03X506834Y1287550I-32996J19050D01*
G01*
G54D12*
X588467Y1303425D02*
X588467Y1317647D01*
G54D12*
X584200Y1317647D02*
X592733Y1317647D01*
G54D12*
X596644Y1314981D02*
X597711Y1316758D01*
X599844Y1317647D01*
X601977Y1317647D01*
X604111Y1316758D01*
X605177Y1314981D01*
X605177Y1313203D01*
X604111Y1311425D01*
X601977Y1310536D01*
X604111Y1309647D01*
X605177Y1307869D01*
X605177Y1306092D01*
X604111Y1304314D01*
X601977Y1303425D01*
X599844Y1303425D01*
X597711Y1304314D01*
X596644Y1306092D01*
G54D12*
X585292Y1243100D02*
X585292Y1257322D01*
G54D12*
X581025Y1257322D02*
X589558Y1257322D01*
G54D12*
X602002Y1243100D02*
X593469Y1243100D01*
X593469Y1243989D01*
X594536Y1245767D01*
X600936Y1251100D01*
X602002Y1252878D01*
X602002Y1254656D01*
X600936Y1256433D01*
X598802Y1257322D01*
X596669Y1257322D01*
X594536Y1256433D01*
X593469Y1254656D01*
G54D12*
X229692Y1268500D02*
X229692Y1282722D01*
G54D12*
X225425Y1282722D02*
X233958Y1282722D01*
G54D12*
X237869Y1277389D02*
X243202Y1282722D01*
X243202Y1268500D01*
G54D10*
X561152Y1418014D02*
X545436Y1433730D01*
X499298Y1387591D01*
X515013Y1371876D01*
X561152Y1418014D01*
G54D10*
X536812Y1397948D02*
X525498Y1409262D01*
G54D10*
X534549Y1395685D02*
X523235Y1406999D01*
G54D10*
X540135Y1412585D02*
X531155Y1403605D01*
G54D10*
X528892Y1401342D02*
X519912Y1392362D01*
G54D10*
X813460Y1345920D02*
X832460Y1345920D01*
X832460Y1307920D01*
X813460Y1307920D01*
X813460Y1345920D01*
G54D10*
X822960Y1346020D02*
X822960Y1379320D01*
G54D10*
X822960Y1274520D02*
X822960Y1307820D01*
G54D10*
X864260Y1345920D02*
X883260Y1345920D01*
X883260Y1307920D01*
X864260Y1307920D01*
X864260Y1345920D01*
G54D10*
X873760Y1346020D02*
X873760Y1379320D01*
G54D10*
X873760Y1274520D02*
X873760Y1307820D01*
G54D10*
X915060Y1295120D02*
X934060Y1295120D01*
X934060Y1257120D01*
X915060Y1257120D01*
X915060Y1295120D01*
G54D10*
X924560Y1295220D02*
X924560Y1328520D01*
G54D10*
X924560Y1223720D02*
X924560Y1257020D01*
G54D10*
X1003960Y1339570D02*
X1022960Y1339570D01*
X1022960Y1301570D01*
X1003960Y1301570D01*
X1003960Y1339570D01*
G54D10*
X1013460Y1339670D02*
X1013460Y1372970D01*
G54D10*
X1013460Y1268170D02*
X1013460Y1301470D01*
G54D10*
X1080160Y1250670D02*
X1099160Y1250670D01*
X1099160Y1212670D01*
X1080160Y1212670D01*
X1080160Y1250670D01*
G54D10*
X1089660Y1250770D02*
X1089660Y1284070D01*
G54D10*
X1089660Y1179270D02*
X1089660Y1212570D01*
G54D10*
X971627Y1302871D02*
X971628Y1299671D01*
X951627Y1299671D01*
X951627Y1302871D01*
X971627Y1302871D01*
G54D10*
X971628Y1306071D02*
X951627Y1306071D01*
G54D10*
X960927Y1306371D02*
X960927Y1313371D01*
G54D10*
X960927Y1299371D02*
X960927Y1293371D01*
G54D20*
X975596Y1299821D02*
X975596Y1290221D01*
G54D20*
X971596Y1295021D02*
X979596Y1295021D01*
G54D10*
G75*
G01X990060Y1293031D02*
G03X990060Y1293031I-25400J0D01*
G01*
G54D10*
X977996Y1314621D02*
X977996Y1333671D01*
X952596Y1333671D01*
X952596Y1316208D01*
G54D10*
X1130540Y1330870D02*
X1130540Y1361070D01*
X1033540Y1361070D01*
X1033540Y1330870D01*
X1130540Y1330870D01*
G54D10*
X1083540Y1337970D02*
X1083540Y1353970D01*
G54D10*
X1080340Y1337970D02*
X1080340Y1353970D01*
G54D10*
X1108940Y1345970D02*
X1083540Y1345970D01*
G54D10*
X1080340Y1345970D02*
X1054940Y1345970D01*
G54D10*
X802062Y1226202D02*
X802062Y1160210D01*
G54D10*
G75*
G01X802062Y1160210D02*
G03X802062Y1226202I19050J32996D01*
G01*
G54D10*
X997642Y1226202D02*
X997642Y1160210D01*
G54D10*
G75*
G01X997642Y1160210D02*
G03X997642Y1226202I19050J32996D01*
G01*
G54D12*
X818337Y1417851D02*
X821537Y1416073D01*
X822603Y1414296D01*
X822603Y1410740D01*
G54D12*
X814070Y1410740D02*
X814070Y1424962D01*
X819403Y1424962D01*
X821537Y1424073D01*
X822603Y1422296D01*
X822603Y1420518D01*
X821537Y1418740D01*
X819403Y1417851D01*
X814070Y1417851D01*
G54D12*
X826514Y1419629D02*
X831847Y1424962D01*
X831847Y1410740D01*
G54D12*
X869137Y1417216D02*
X872337Y1415438D01*
X873403Y1413660D01*
X873403Y1410105D01*
G54D12*
X864870Y1410105D02*
X864870Y1424327D01*
X870203Y1424327D01*
X872337Y1423438D01*
X873403Y1421661D01*
X873403Y1419883D01*
X872337Y1418105D01*
X870203Y1417216D01*
X864870Y1417216D01*
G54D12*
X885847Y1410105D02*
X877314Y1410105D01*
X877314Y1410994D01*
X878381Y1412772D01*
X884781Y1418105D01*
X885847Y1419883D01*
X885847Y1421661D01*
X884781Y1423438D01*
X882647Y1424327D01*
X880514Y1424327D01*
X878381Y1423438D01*
X877314Y1421661D01*
G54D12*
X918382Y1364680D02*
X921582Y1362902D01*
X922648Y1361124D01*
X922648Y1357568D01*
G54D12*
X914115Y1357568D02*
X914115Y1371791D01*
X919448Y1371791D01*
X921582Y1370902D01*
X922648Y1369124D01*
X922648Y1367346D01*
X921582Y1365568D01*
X919448Y1364680D01*
X914115Y1364680D01*
G54D12*
X926559Y1369124D02*
X927626Y1370902D01*
X929759Y1371791D01*
X931892Y1371791D01*
X934026Y1370902D01*
X935092Y1369124D01*
X935092Y1367346D01*
X934026Y1365568D01*
X931892Y1364680D01*
X934026Y1363791D01*
X935092Y1362013D01*
X935092Y1360235D01*
X934026Y1358457D01*
X931892Y1357568D01*
X929759Y1357568D01*
X927626Y1358457D01*
X926559Y1360235D01*
G54D12*
X1006932Y1410231D02*
X1010132Y1408453D01*
X1011198Y1406676D01*
X1011198Y1403120D01*
G54D12*
X1002665Y1403120D02*
X1002665Y1417342D01*
X1007998Y1417342D01*
X1010132Y1416453D01*
X1011198Y1414676D01*
X1011198Y1412898D01*
X1010132Y1411120D01*
X1007998Y1410231D01*
X1002665Y1410231D01*
G54D12*
X1021509Y1403120D02*
X1021509Y1417342D01*
X1015109Y1408453D01*
X1015109Y1406676D01*
X1023642Y1406676D01*
G54D15*
X883920Y1169440D02*
X889253Y1183662D01*
X894587Y1169440D01*
G54D15*
X886053Y1174773D02*
X892453Y1174773D01*
G54D15*
X907032Y1169440D02*
X899565Y1169440D01*
X899565Y1183662D01*
X907032Y1183662D01*
G54D15*
X899565Y1176551D02*
X907032Y1176551D01*
G54D15*
X925734Y1180996D02*
X924668Y1182773D01*
X922534Y1183662D01*
X920401Y1183662D01*
X918268Y1182773D01*
X917201Y1180996D01*
X917201Y1176551D01*
X917201Y1175662D01*
X920401Y1177440D01*
X922534Y1177440D01*
X924668Y1176551D01*
X925734Y1174773D01*
X925734Y1172107D01*
X924668Y1170329D01*
X922534Y1169440D01*
X920401Y1169440D01*
X918268Y1170329D01*
X917201Y1172107D01*
X917201Y1176551D01*
G54D17*
X1162779Y1175911D02*
X1162779Y1158133D01*
G54D17*
X1168112Y1158133D02*
X1157446Y1158133D01*
G54D12*
X1159011Y1300194D02*
X1159011Y1314416D01*
G54D12*
X1162922Y1300194D02*
X1162922Y1314416D01*
X1171456Y1300194D01*
X1171456Y1314416D01*
G54D17*
X1159646Y1384172D02*
X1170313Y1384172D01*
G54D17*
X1164980Y1388616D02*
X1164980Y1379727D01*
G54D12*
X746261Y1216500D02*
X747328Y1214723D01*
X749461Y1213834D01*
X751595Y1213834D01*
X753728Y1214723D01*
X754795Y1216500D01*
X754795Y1218278D01*
X753728Y1220056D01*
X751595Y1220945D01*
X749461Y1220945D01*
X747328Y1221834D01*
X746261Y1223612D01*
X746261Y1225389D01*
X747328Y1227167D01*
X749461Y1228056D01*
X751595Y1228056D01*
X753728Y1227167D01*
X754795Y1225389D01*
G54D12*
X1057732Y1238781D02*
X1060932Y1237003D01*
X1061998Y1235226D01*
X1061998Y1231670D01*
G54D12*
X1053465Y1231670D02*
X1053465Y1245892D01*
X1058798Y1245892D01*
X1060932Y1245003D01*
X1061998Y1243226D01*
X1061998Y1241448D01*
X1060932Y1239670D01*
X1058798Y1238781D01*
X1053465Y1238781D01*
G54D12*
X1074442Y1245892D02*
X1065909Y1245892D01*
X1065909Y1239670D01*
X1066976Y1239670D01*
X1069109Y1240559D01*
X1071242Y1240559D01*
X1073376Y1239670D01*
X1074442Y1237892D01*
X1074442Y1234337D01*
X1073376Y1232559D01*
X1071242Y1231670D01*
X1069109Y1231670D01*
X1066976Y1232559D01*
X1065909Y1234337D01*
G54D12*
X864057Y1204365D02*
X864057Y1218587D01*
G54D12*
X859790Y1218587D02*
X868323Y1218587D01*
G54D12*
X872234Y1213254D02*
X877567Y1218587D01*
X877567Y1204365D01*
G54D12*
X970102Y1192300D02*
X970102Y1206522D01*
G54D12*
X965835Y1206522D02*
X974368Y1206522D01*
G54D12*
X986812Y1192300D02*
X978279Y1192300D01*
X978279Y1193189D01*
X979346Y1194967D01*
X985746Y1200300D01*
X986812Y1202078D01*
X986812Y1203856D01*
X985746Y1205633D01*
X983612Y1206522D01*
X981479Y1206522D01*
X979346Y1205633D01*
X978279Y1203856D01*
G54D17*
X750029Y1177181D02*
X750029Y1159403D01*
G54D17*
X755362Y1159403D02*
X744696Y1159403D01*
G54D12*
X962278Y1251532D02*
X961212Y1249754D01*
X959078Y1248865D01*
X956945Y1248865D01*
X954812Y1249754D01*
X953745Y1251532D01*
X953745Y1260421D01*
X954812Y1262198D01*
X956945Y1263087D01*
X959078Y1263087D01*
X961212Y1262198D01*
X962278Y1260421D01*
G54D12*
X966189Y1256865D02*
X974722Y1248865D01*
G54D12*
X966189Y1248865D02*
X974722Y1256865D01*
G54D12*
X1078483Y1373452D02*
X1077417Y1371674D01*
X1075283Y1370785D01*
X1073150Y1370785D01*
X1071017Y1371674D01*
X1069950Y1373452D01*
X1069950Y1382341D01*
X1071017Y1384118D01*
X1073150Y1385007D01*
X1075283Y1385007D01*
X1077417Y1384118D01*
X1078483Y1382341D01*
G54D12*
X1082394Y1379674D02*
X1087727Y1385007D01*
X1087727Y1370785D01*
G54D10*
X102260Y1028420D02*
X121260Y1028420D01*
X121260Y990420D01*
X102260Y990420D01*
X102260Y1028420D01*
G54D10*
X111760Y1028520D02*
X111760Y1061820D01*
G54D10*
X111760Y957020D02*
X111760Y990320D01*
G54D10*
X184810Y1028420D02*
X203810Y1028420D01*
X203810Y990420D01*
X184810Y990420D01*
X184810Y1028420D01*
G54D10*
X194310Y1028520D02*
X194310Y1061820D01*
G54D10*
X194310Y957020D02*
X194310Y990320D01*
G54D10*
X261010Y971270D02*
X280010Y971270D01*
X280010Y933270D01*
X261010Y933270D01*
X261010Y971270D01*
G54D10*
X270510Y971370D02*
X270510Y1004670D01*
G54D10*
X270510Y899870D02*
X270510Y933170D01*
G54D10*
X337210Y1022070D02*
X356210Y1022070D01*
X356210Y984070D01*
X337210Y984070D01*
X337210Y1022070D01*
G54D10*
X346710Y1022170D02*
X346710Y1055470D01*
G54D10*
X346710Y950670D02*
X346710Y983970D01*
G54D10*
X381660Y1022070D02*
X400660Y1022070D01*
X400660Y984070D01*
X381660Y984070D01*
X381660Y1022070D01*
G54D10*
X391160Y1022170D02*
X391160Y1055470D01*
G54D10*
X391160Y950670D02*
X391160Y983970D01*
G54D10*
X416510Y917320D02*
X416510Y898320D01*
X378510Y898320D01*
X378510Y917320D01*
X416510Y917320D01*
G54D10*
X416610Y907820D02*
X449910Y907820D01*
G54D10*
X345110Y907820D02*
X378410Y907820D01*
G54D15*
X160655Y900835D02*
X165988Y915057D01*
X171322Y900835D01*
G54D15*
X162788Y906168D02*
X169188Y906168D01*
G54D15*
X183767Y900835D02*
X176300Y900835D01*
X176300Y915057D01*
X183767Y915057D01*
G54D15*
X176300Y907946D02*
X183767Y907946D01*
G54D15*
X193936Y915057D02*
X202469Y915057D01*
X201403Y913280D01*
X199269Y910613D01*
X197136Y907057D01*
X196069Y904390D01*
X196069Y900835D01*
G54D12*
X545880Y1005679D02*
X545880Y996791D01*
X544813Y995013D01*
X542680Y994124D01*
X540546Y994124D01*
X538413Y995013D01*
X537346Y996791D01*
X537346Y1005679D01*
X538413Y1007457D01*
X540546Y1008346D01*
X542680Y1008346D01*
X544813Y1007457D01*
X545880Y1005679D01*
G54D12*
X549790Y1008346D02*
X549790Y996791D01*
X550857Y995013D01*
X552990Y994124D01*
X555124Y994124D01*
X557257Y995013D01*
X558324Y996790D01*
X558324Y1008346D01*
G54D12*
X566501Y994124D02*
X566501Y1008346D01*
G54D12*
X562234Y1008346D02*
X570768Y1008346D01*
G54D17*
X559529Y923181D02*
X559529Y905403D01*
G54D17*
X564862Y905403D02*
X554196Y905403D01*
G54D17*
X530996Y1066672D02*
X541663Y1066672D01*
G54D17*
X536330Y1071116D02*
X536330Y1062227D01*
G54D10*
X167500Y1082050D02*
X137300Y1082050D01*
X137300Y959650D01*
X167500Y959650D01*
X167500Y1082050D01*
G54D10*
X160400Y1022250D02*
X144400Y1022250D01*
G54D10*
X160400Y1019050D02*
X144400Y1019050D01*
G54D10*
X152400Y1058750D02*
X152400Y1022250D01*
G54D10*
X152400Y1019050D02*
X152400Y982550D01*
G54D10*
X250050Y1082050D02*
X219850Y1082050D01*
X219850Y959650D01*
X250050Y959650D01*
X250050Y1082050D01*
G54D10*
X242950Y1022250D02*
X226950Y1022250D01*
G54D10*
X242950Y1019050D02*
X226950Y1019050D01*
G54D10*
X234950Y1058750D02*
X234950Y1022250D01*
G54D10*
X234950Y1019050D02*
X234950Y982550D01*
G54D10*
X326250Y1075700D02*
X296050Y1075700D01*
X296050Y953300D01*
X326250Y953300D01*
X326250Y1075700D01*
G54D10*
X319150Y1015900D02*
X303150Y1015900D01*
G54D10*
X319150Y1012700D02*
X303150Y1012700D01*
G54D10*
X311150Y1052400D02*
X311150Y1015900D01*
G54D10*
X311150Y1012700D02*
X311150Y976200D01*
G54D10*
X446462Y1048402D02*
X446462Y982410D01*
G54D10*
G75*
G01X446462Y982410D02*
G03X446462Y1048402I19050J32996D01*
G01*
G54D12*
X188417Y1098446D02*
X191617Y1096668D01*
X192683Y1094891D01*
X192683Y1091335D01*
G54D12*
X184150Y1091335D02*
X184150Y1105557D01*
X189483Y1105557D01*
X191617Y1104668D01*
X192683Y1102891D01*
X192683Y1101113D01*
X191617Y1099335D01*
X189483Y1098446D01*
X184150Y1098446D01*
G54D12*
X205127Y1091335D02*
X196594Y1091335D01*
X196594Y1092224D01*
X197661Y1094002D01*
X204061Y1099335D01*
X205127Y1101113D01*
X205127Y1102891D01*
X204061Y1104668D01*
X201927Y1105557D01*
X199794Y1105557D01*
X197661Y1104668D01*
X196594Y1102891D01*
G54D12*
X107137Y1098446D02*
X110337Y1096668D01*
X111403Y1094891D01*
X111403Y1091335D01*
G54D12*
X102870Y1091335D02*
X102870Y1105557D01*
X108203Y1105557D01*
X110337Y1104668D01*
X111403Y1102891D01*
X111403Y1101113D01*
X110337Y1099335D01*
X108203Y1098446D01*
X102870Y1098446D01*
G54D12*
X115314Y1100224D02*
X120647Y1105557D01*
X120647Y1091335D01*
G54D12*
X264617Y1041296D02*
X267817Y1039518D01*
X268883Y1037741D01*
X268883Y1034185D01*
G54D12*
X260350Y1034185D02*
X260350Y1048407D01*
X265683Y1048407D01*
X267817Y1047518D01*
X268883Y1045741D01*
X268883Y1043963D01*
X267817Y1042185D01*
X265683Y1041296D01*
X260350Y1041296D01*
G54D12*
X272794Y1045741D02*
X273861Y1047518D01*
X275994Y1048407D01*
X278127Y1048407D01*
X280261Y1047518D01*
X281327Y1045741D01*
X281327Y1043963D01*
X280261Y1042185D01*
X278127Y1041296D01*
X280261Y1040407D01*
X281327Y1038629D01*
X281327Y1036852D01*
X280261Y1035074D01*
X278127Y1034185D01*
X275994Y1034185D01*
X273861Y1035074D01*
X272794Y1036852D01*
G54D12*
X340817Y1092096D02*
X344017Y1090318D01*
X345083Y1088541D01*
X345083Y1084985D01*
G54D12*
X336550Y1084985D02*
X336550Y1099207D01*
X341883Y1099207D01*
X344017Y1098318D01*
X345083Y1096541D01*
X345083Y1094763D01*
X344017Y1092985D01*
X341883Y1092096D01*
X336550Y1092096D01*
G54D12*
X355394Y1084985D02*
X355394Y1099207D01*
X348994Y1090318D01*
X348994Y1088541D01*
X357527Y1088541D01*
G54D12*
X385267Y1092096D02*
X388467Y1090318D01*
X389533Y1088541D01*
X389533Y1084985D01*
G54D12*
X381000Y1084985D02*
X381000Y1099207D01*
X386333Y1099207D01*
X388467Y1098318D01*
X389533Y1096541D01*
X389533Y1094763D01*
X388467Y1092985D01*
X386333Y1092096D01*
X381000Y1092096D01*
G54D12*
X401977Y1099207D02*
X393444Y1099207D01*
X393444Y1092985D01*
X394511Y1092985D01*
X396644Y1093874D01*
X398777Y1093874D01*
X400911Y1092985D01*
X401977Y1091207D01*
X401977Y1087652D01*
X400911Y1085874D01*
X398777Y1084985D01*
X396644Y1084985D01*
X394511Y1085874D01*
X393444Y1087652D01*
G54D12*
X391617Y885086D02*
X394817Y883308D01*
X395883Y881530D01*
X395883Y877975D01*
G54D12*
X387350Y877975D02*
X387350Y892197D01*
X392683Y892197D01*
X394817Y891308D01*
X395883Y889530D01*
X395883Y887753D01*
X394817Y885975D01*
X392683Y885086D01*
X387350Y885086D01*
G54D12*
X408327Y889530D02*
X407261Y891308D01*
X405127Y892197D01*
X402994Y892197D01*
X400861Y891308D01*
X399794Y889530D01*
X399794Y885086D01*
X399794Y884197D01*
X402994Y885975D01*
X405127Y885975D01*
X407261Y885086D01*
X408327Y883308D01*
X408327Y880642D01*
X407261Y878864D01*
X405127Y877975D01*
X402994Y877975D01*
X400861Y878864D01*
X399794Y880642D01*
X399794Y885086D01*
G54D12*
X152043Y1094002D02*
X150977Y1092224D01*
X148843Y1091335D01*
X146710Y1091335D01*
X144577Y1092224D01*
X143510Y1094002D01*
X143510Y1102891D01*
X144577Y1104668D01*
X146710Y1105557D01*
X148843Y1105557D01*
X150977Y1104668D01*
X152043Y1102891D01*
G54D12*
X164487Y1091335D02*
X155954Y1091335D01*
X155954Y1092224D01*
X157021Y1094002D01*
X163421Y1099335D01*
X164487Y1101113D01*
X164487Y1102891D01*
X163421Y1104668D01*
X161287Y1105557D01*
X159154Y1105557D01*
X157021Y1104668D01*
X155954Y1102891D01*
G54D12*
X232053Y1094002D02*
X230987Y1092224D01*
X228853Y1091335D01*
X226720Y1091335D01*
X224587Y1092224D01*
X223520Y1094002D01*
X223520Y1102891D01*
X224587Y1104668D01*
X226720Y1105557D01*
X228853Y1105557D01*
X230987Y1104668D01*
X232053Y1102891D01*
G54D12*
X235964Y1102891D02*
X237031Y1104668D01*
X239164Y1105557D01*
X241297Y1105557D01*
X243431Y1104668D01*
X244497Y1102891D01*
X244497Y1101113D01*
X243431Y1099335D01*
X241297Y1098446D01*
X243431Y1097557D01*
X244497Y1095779D01*
X244497Y1094002D01*
X243431Y1092224D01*
X241297Y1091335D01*
X239164Y1091335D01*
X237031Y1092224D01*
X235964Y1094002D01*
G54D12*
X306983Y1087652D02*
X305917Y1085874D01*
X303783Y1084985D01*
X301650Y1084985D01*
X299517Y1085874D01*
X298450Y1087652D01*
X298450Y1096541D01*
X299517Y1098318D01*
X301650Y1099207D01*
X303783Y1099207D01*
X305917Y1098318D01*
X306983Y1096541D01*
G54D12*
X317294Y1084985D02*
X317294Y1099207D01*
X310894Y1090318D01*
X310894Y1088541D01*
X319427Y1088541D01*
G54D12*
X521613Y951762D02*
X520547Y949984D01*
X518413Y949095D01*
X516280Y949095D01*
X514147Y949984D01*
X513080Y951762D01*
X513080Y960651D01*
X514147Y962428D01*
X516280Y963317D01*
X518413Y963317D01*
X520547Y962428D01*
X521613Y960651D01*
G54D12*
X525524Y957984D02*
X530857Y963317D01*
X530857Y949095D01*
G54D12*
X461467Y1062125D02*
X461467Y1076347D01*
G54D12*
X457200Y1076347D02*
X465733Y1076347D01*
G54D12*
X469644Y1071014D02*
X474977Y1076347D01*
X474977Y1062125D01*
G54D10*
X1042060Y1015720D02*
X1061060Y1015720D01*
X1061060Y977720D01*
X1042060Y977720D01*
X1042060Y1015720D01*
G54D10*
X1051560Y1015820D02*
X1051560Y1049120D01*
G54D10*
X1051560Y944320D02*
X1051560Y977620D01*
G54D12*
X1046937Y1085746D02*
X1050137Y1083968D01*
X1051203Y1082191D01*
X1051203Y1078635D01*
G54D12*
X1042670Y1078635D02*
X1042670Y1092857D01*
X1048003Y1092857D01*
X1050137Y1091968D01*
X1051203Y1090191D01*
X1051203Y1088413D01*
X1050137Y1086635D01*
X1048003Y1085746D01*
X1042670Y1085746D01*
G54D12*
X1055114Y1087524D02*
X1060447Y1092857D01*
X1060447Y1078635D01*
G54D10*
X1080160Y1015720D02*
X1099160Y1015720D01*
X1099160Y977720D01*
X1080160Y977720D01*
X1080160Y1015720D01*
G54D10*
X1089660Y1015820D02*
X1089660Y1049120D01*
G54D10*
X1089660Y944320D02*
X1089660Y977620D01*
G54D12*
X1085037Y1085746D02*
X1088237Y1083968D01*
X1089303Y1082191D01*
X1089303Y1078635D01*
G54D12*
X1080770Y1078635D02*
X1080770Y1092857D01*
X1086103Y1092857D01*
X1088237Y1091968D01*
X1089303Y1090191D01*
X1089303Y1088413D01*
X1088237Y1086635D01*
X1086103Y1085746D01*
X1080770Y1085746D01*
G54D12*
X1101747Y1078635D02*
X1093214Y1078635D01*
X1093214Y1079524D01*
X1094281Y1081302D01*
X1100681Y1086635D01*
X1101747Y1088413D01*
X1101747Y1090191D01*
X1100681Y1091968D01*
X1098547Y1092857D01*
X1096414Y1092857D01*
X1094281Y1091968D01*
X1093214Y1090191D01*
G54D10*
X851560Y1015720D02*
X870560Y1015720D01*
X870560Y977720D01*
X851560Y977720D01*
X851560Y1015720D01*
G54D10*
X861060Y1015820D02*
X861060Y1049120D01*
G54D10*
X861060Y944320D02*
X861060Y977620D01*
G54D12*
X856437Y1085746D02*
X859637Y1083968D01*
X860703Y1082191D01*
X860703Y1078635D01*
G54D12*
X852170Y1078635D02*
X852170Y1092857D01*
X857503Y1092857D01*
X859637Y1091968D01*
X860703Y1090191D01*
X860703Y1088413D01*
X859637Y1086635D01*
X857503Y1085746D01*
X852170Y1085746D01*
G54D12*
X864614Y1090191D02*
X865681Y1091968D01*
X867814Y1092857D01*
X869947Y1092857D01*
X872081Y1091968D01*
X873147Y1090191D01*
X873147Y1088413D01*
X872081Y1086635D01*
X869947Y1085746D01*
X872081Y1084857D01*
X873147Y1083079D01*
X873147Y1081302D01*
X872081Y1079524D01*
X869947Y1078635D01*
X867814Y1078635D01*
X865681Y1079524D01*
X864614Y1081302D01*
G54D10*
X973512Y940452D02*
X973512Y874460D01*
G54D10*
G75*
G01X973512Y874460D02*
G03X973512Y940452I19050J32996D01*
G01*
G54D12*
X1032967Y871625D02*
X1032967Y885847D01*
G54D12*
X1028700Y885847D02*
X1037233Y885847D01*
G54D12*
X1041144Y880514D02*
X1046477Y885847D01*
X1046477Y871625D01*
G54D10*
X890962Y934102D02*
X890962Y868110D01*
G54D10*
G75*
G01X890962Y868110D02*
G03X890962Y934102I19050J32996D01*
G01*
G54D12*
X905967Y947825D02*
X905967Y962047D01*
G54D12*
X901700Y962047D02*
X910233Y962047D01*
G54D12*
X922677Y947825D02*
X914144Y947825D01*
X914144Y948714D01*
X915211Y950492D01*
X921611Y955825D01*
X922677Y957603D01*
X922677Y959381D01*
X921611Y961158D01*
X919477Y962047D01*
X917344Y962047D01*
X915211Y961158D01*
X914144Y959381D01*
G54D17*
X1143729Y916831D02*
X1143729Y899053D01*
G54D17*
X1149062Y899053D02*
X1138396Y899053D01*
G54D17*
X1115196Y1060322D02*
X1125863Y1060322D01*
G54D17*
X1120530Y1064766D02*
X1120530Y1055877D01*
G54D17*
X781779Y891431D02*
X781779Y873653D01*
G54D17*
X787112Y873653D02*
X776446Y873653D01*
G54D17*
X787112Y938898D02*
X785779Y941120D01*
X783112Y942231D01*
X780446Y942231D01*
X777779Y941120D01*
X776446Y938898D01*
X776446Y936676D01*
X777779Y934453D01*
X780446Y933342D01*
X783112Y933342D01*
X785779Y932231D01*
X787112Y930009D01*
X787112Y927787D01*
X785779Y925564D01*
X783112Y924453D01*
X780446Y924453D01*
X777779Y925564D01*
X776446Y927787D01*
G54D15*
X819785Y891310D02*
X825118Y905532D01*
X830452Y891310D01*
G54D15*
X821918Y896643D02*
X828318Y896643D01*
G54D15*
X842897Y891310D02*
X835430Y891310D01*
X835430Y905532D01*
X842897Y905532D01*
G54D15*
X835430Y898421D02*
X842897Y898421D01*
G54D15*
X859466Y891310D02*
X859466Y905532D01*
X853066Y896643D01*
X853066Y894866D01*
X861599Y894866D01*
G54D10*
X932893Y1006962D02*
X932893Y1003762D01*
X912893Y1003762D01*
X912893Y1006962D01*
X932893Y1006962D01*
G54D10*
X932893Y1010162D02*
X912893Y1010162D01*
G54D10*
X922193Y1010462D02*
X922193Y1017462D01*
G54D10*
X922193Y1003462D02*
X922193Y997462D01*
G54D20*
X936861Y1003911D02*
X936861Y994311D01*
G54D20*
X932861Y999112D02*
X940861Y999112D01*
G54D10*
G75*
G01X951326Y997122D02*
G03X951326Y997122I-25400J0D01*
G01*
G54D10*
X939261Y1018712D02*
X939261Y1037762D01*
X913861Y1037762D01*
X913861Y1020299D01*
G54D10*
X995932Y990786D02*
X995932Y993986D01*
X1015932Y993986D01*
X1015932Y990786D01*
X995932Y990786D01*
G54D10*
X995932Y987586D02*
X1015932Y987586D01*
G54D10*
X1006632Y987286D02*
X1006632Y980286D01*
G54D10*
X1006632Y994286D02*
X1006632Y1000286D01*
G54D20*
X991964Y993837D02*
X991964Y1003437D01*
G54D20*
X995964Y998637D02*
X987964Y998637D01*
G54D10*
G75*
G01X1028298Y1000627D02*
G03X1028298Y1000627I-25400J0D01*
G01*
G54D10*
X989564Y979037D02*
X989564Y959987D01*
X1014964Y959987D01*
X1014964Y977449D01*
G54D12*
X999133Y1039392D02*
X998067Y1037614D01*
X995933Y1036725D01*
X993800Y1036725D01*
X991667Y1037614D01*
X990600Y1039392D01*
X990600Y1048281D01*
X991667Y1050058D01*
X993800Y1050947D01*
X995933Y1050947D01*
X998067Y1050058D01*
X999133Y1048281D01*
G54D12*
X1003044Y1045614D02*
X1008377Y1050947D01*
X1008377Y1036725D01*
G54D12*
X922933Y1052092D02*
X921867Y1050314D01*
X919733Y1049425D01*
X917600Y1049425D01*
X915467Y1050314D01*
X914400Y1052092D01*
X914400Y1060981D01*
X915467Y1062758D01*
X917600Y1063647D01*
X919733Y1063647D01*
X921867Y1062758D01*
X922933Y1060981D01*
G54D12*
X935377Y1049425D02*
X926844Y1049425D01*
X926844Y1050314D01*
X927911Y1052092D01*
X934311Y1057425D01*
X935377Y1059203D01*
X935377Y1060981D01*
X934311Y1062758D01*
X932177Y1063647D01*
X930044Y1063647D01*
X927911Y1062758D01*
X926844Y1060981D01*
G54D18*
X812800Y1054100D02*
X746125Y1054100D01*
X746125Y1009650D01*
X812800Y1009650D01*
X812800Y1054100D01*
G54D18*
X762000Y1054100D02*
X762000Y1009650D01*
G54D18*
X768350Y1009650D02*
X774700Y1054100D01*
G54D18*
X777875Y1009650D02*
X784225Y1054100D01*
G54D18*
X787400Y1009650D02*
X793750Y1054100D01*
G54D18*
X796925Y1009650D02*
X803275Y1054100D01*
G54D18*
G75*
G01X744763Y1054643D02*
G03X744763Y1009742I-22451J-22451D01*
G01*
G54D18*
X746125Y1035050D02*
X733425Y1041400D01*
G54D18*
X746125Y1031875D02*
X733425Y1025525D01*
G54D18*
X733425Y1041400D02*
X730250Y1044575D01*
X717550Y1044575D01*
G54D18*
X733425Y1025525D02*
X730250Y1022350D01*
X717550Y1022350D01*
G54D18*
X717550Y1044575D02*
X714375Y1044575D01*
X711200Y1041400D01*
X711200Y1038225D01*
X719138Y1030288D01*
G54D18*
X717403Y1022543D02*
X714228Y1022543D01*
X711053Y1025718D01*
X711053Y1028893D01*
X718990Y1036830D01*
G54D18*
X718990Y1036830D02*
X725294Y1036830D01*
X725488Y1036638D01*
X725488Y1030288D01*
X719138Y1030288D01*
G54D10*
G75*
G01X779158Y960149D02*
G03X749769Y960149I-14695J20226D01*
G01*
G54D10*
X750163Y960175D02*
X778763Y960175D01*
G54D12*
X748487Y1073046D02*
X752753Y1073046D01*
X752753Y1068602D01*
X751687Y1066824D01*
X749553Y1065935D01*
X747420Y1065935D01*
X745287Y1066824D01*
X744220Y1068602D01*
X744220Y1077491D01*
X745287Y1079268D01*
X747420Y1080157D01*
X749553Y1080157D01*
X751687Y1079268D01*
X752753Y1077491D01*
G54D12*
X756664Y1080157D02*
X756664Y1065935D01*
X764131Y1065935D01*
G54D12*
X702945Y988082D02*
X702945Y973860D01*
X710412Y973860D01*
G54D12*
X721790Y973860D02*
X714323Y973860D01*
X714323Y988082D01*
X721790Y988082D01*
G54D12*
X714323Y980971D02*
X721790Y980971D01*
G54D12*
X725701Y973860D02*
X725701Y988082D01*
X731034Y988082D01*
X733168Y987193D01*
X734234Y985416D01*
X734234Y976527D01*
X733168Y974749D01*
X731034Y973860D01*
X725701Y973860D01*
G54D10*
X257860Y733220D02*
X257860Y752219D01*
X295860Y752220D01*
X295860Y733220D01*
X257860Y733220D01*
G54D10*
X257760Y742719D02*
X224460Y742720D01*
G54D10*
X329260Y742719D02*
X295960Y742719D01*
G54D10*
X461060Y733220D02*
X461060Y752220D01*
X499060Y752220D01*
X499060Y733219D01*
X461060Y733220D01*
G54D10*
X460960Y742719D02*
X427660Y742719D01*
G54D10*
X532460Y742720D02*
X499160Y742720D01*
G54D10*
X461060Y695120D02*
X461060Y714120D01*
X499060Y714120D01*
X499060Y695119D01*
X461060Y695120D01*
G54D10*
X460960Y704619D02*
X427660Y704619D01*
G54D10*
X532460Y704620D02*
X499160Y704620D01*
G54D10*
X461060Y657020D02*
X461060Y676020D01*
X499060Y676020D01*
X499060Y657019D01*
X461060Y657020D01*
G54D10*
X460960Y666519D02*
X427660Y666519D01*
G54D10*
X532460Y666520D02*
X499160Y666520D01*
G54D10*
X168960Y580820D02*
X168960Y599820D01*
X206960Y599820D01*
X206960Y580819D01*
X168960Y580820D01*
G54D10*
X168860Y590319D02*
X135560Y590319D01*
G54D10*
X240360Y590320D02*
X207060Y590320D01*
G54D10*
X486460Y580820D02*
X486460Y599820D01*
X524460Y599820D01*
X524460Y580819D01*
X486460Y580820D01*
G54D10*
X486360Y590319D02*
X453060Y590319D01*
G54D10*
X557860Y590320D02*
X524560Y590320D01*
G54D10*
X407774Y597940D02*
X473765Y597940D01*
G54D10*
G75*
G01X473765Y597940D02*
G03X407774Y597940I-32995J19050D01*
G01*
G54D10*
X534350Y617643D02*
X531150Y617643D01*
X531150Y637643D01*
X534350Y637643D01*
X534350Y617643D01*
G54D10*
X537550Y617643D02*
X537550Y637643D01*
G54D10*
X537850Y628343D02*
X544850Y628343D01*
G54D10*
X530850Y628343D02*
X524850Y628343D01*
G54D20*
X531300Y613675D02*
X521700Y613675D01*
G54D20*
X526500Y617675D02*
X526500Y609675D01*
G54D10*
G75*
G01X549910Y624610D02*
G03X549910Y624610I-25400J0D01*
G01*
G54D10*
X546100Y611275D02*
X565150Y611275D01*
X565150Y636675D01*
X547688Y636675D01*
G54D10*
X162574Y694305D02*
X165774Y694305D01*
X165774Y674305D01*
X162574Y674305D01*
X162574Y694305D01*
G54D10*
X159374Y694305D02*
X159374Y674305D01*
G54D10*
X159074Y683605D02*
X152074Y683605D01*
G54D10*
X166074Y683605D02*
X172074Y683605D01*
G54D20*
X165625Y698273D02*
X175225Y698273D01*
G54D20*
X170425Y694273D02*
X170425Y702273D01*
G54D10*
G75*
G01X197815Y687338D02*
G03X197815Y687338I-25400J0D01*
G01*
G54D10*
X150825Y700673D02*
X131775Y700673D01*
X131775Y675273D01*
X149237Y675273D01*
G54D10*
X343335Y601151D02*
X343385Y571131D01*
G54D10*
X343335Y613851D02*
X343385Y647331D01*
G54D10*
X360835Y607651D02*
X325835Y607651D01*
X325835Y613951D01*
X360835Y613951D01*
X360835Y607651D01*
G54D10*
X325935Y601151D02*
X360935Y601151D01*
G54D21*
X329313Y627531D02*
X329313Y616864D01*
G54D21*
X333757Y622198D02*
X324868Y622198D01*
G54D10*
G75*
G01X381485Y618756D02*
G03X381485Y618756I-38100J0D01*
G01*
G54D10*
X356085Y582243D02*
X356085Y558431D01*
X330685Y558431D01*
X330685Y582243D01*
G54D10*
X217274Y597940D02*
X283265Y597940D01*
G54D10*
G75*
G01X283265Y597940D02*
G03X217274Y597940I-32995J19050D01*
G01*
G54D17*
X597629Y599331D02*
X597629Y581553D01*
G54D17*
X602962Y581553D02*
X592296Y581553D01*
G54D17*
X569096Y742822D02*
X579763Y742822D01*
G54D17*
X574430Y747266D02*
X574430Y738377D01*
G54D12*
X587511Y665194D02*
X587511Y679416D01*
G54D12*
X591422Y665194D02*
X591422Y679416D01*
X599956Y665194D01*
X599956Y679416D01*
G54D12*
X69630Y713580D02*
X69630Y704690D01*
X68563Y702913D01*
X66430Y702024D01*
X64296Y702024D01*
X62163Y702913D01*
X61096Y704690D01*
X61096Y713580D01*
X62163Y715357D01*
X64296Y716246D01*
X66430Y716246D01*
X68563Y715357D01*
X69630Y713580D01*
G54D12*
X73540Y716246D02*
X73540Y704690D01*
X74607Y702913D01*
X76740Y702024D01*
X78874Y702024D01*
X81007Y702913D01*
X82074Y704690D01*
X82074Y716246D01*
G54D12*
X90251Y702024D02*
X90251Y716246D01*
G54D12*
X85984Y716246D02*
X94518Y716246D01*
G54D17*
X76929Y605681D02*
X76929Y587903D01*
G54D17*
X82262Y587903D02*
X71596Y587903D01*
G54D12*
X441147Y722526D02*
X444347Y720748D01*
X445413Y718970D01*
X445413Y715415D01*
G54D12*
X436880Y715415D02*
X436880Y729637D01*
X442213Y729637D01*
X444347Y728748D01*
X445413Y726970D01*
X445413Y725193D01*
X444347Y723415D01*
X442213Y722526D01*
X436880Y722526D01*
G54D12*
X457857Y729637D02*
X449324Y729637D01*
X449324Y723415D01*
X450391Y723415D01*
X452524Y724304D01*
X454657Y724304D01*
X456791Y723415D01*
X457857Y721637D01*
X457857Y718082D01*
X456791Y716304D01*
X454657Y715415D01*
X452524Y715415D01*
X450391Y716304D01*
X449324Y718082D01*
G54D12*
X441147Y684426D02*
X444347Y682648D01*
X445413Y680870D01*
X445413Y677315D01*
G54D12*
X436880Y677315D02*
X436880Y691537D01*
X442213Y691537D01*
X444347Y690648D01*
X445413Y688870D01*
X445413Y687093D01*
X444347Y685315D01*
X442213Y684426D01*
X436880Y684426D01*
G54D12*
X457857Y688870D02*
X456791Y690648D01*
X454657Y691537D01*
X452524Y691537D01*
X450391Y690648D01*
X449324Y688870D01*
X449324Y684426D01*
X449324Y683537D01*
X452524Y685315D01*
X454657Y685315D01*
X456791Y684426D01*
X457857Y682648D01*
X457857Y679982D01*
X456791Y678204D01*
X454657Y677315D01*
X452524Y677315D01*
X450391Y678204D01*
X449324Y679982D01*
X449324Y684426D01*
G54D12*
X183337Y613306D02*
X186537Y611528D01*
X187603Y609750D01*
X187603Y606195D01*
G54D12*
X179070Y606195D02*
X179070Y620417D01*
X184403Y620417D01*
X186537Y619528D01*
X187603Y617750D01*
X187603Y615973D01*
X186537Y614195D01*
X184403Y613306D01*
X179070Y613306D01*
G54D12*
X191514Y617750D02*
X192581Y619528D01*
X194714Y620417D01*
X196847Y620417D01*
X198981Y619528D01*
X200047Y617750D01*
X200047Y615973D01*
X198981Y614195D01*
X196847Y613306D01*
X198981Y612417D01*
X200047Y610640D01*
X200047Y608862D01*
X198981Y607084D01*
X196847Y606195D01*
X194714Y606195D01*
X192581Y607084D01*
X191514Y608862D01*
G54D12*
X213003Y682522D02*
X211937Y680744D01*
X209803Y679855D01*
X207670Y679855D01*
X205537Y680744D01*
X204470Y682522D01*
X204470Y691410D01*
X205537Y693188D01*
X207670Y694077D01*
X209803Y694077D01*
X211937Y693188D01*
X213003Y691410D01*
G54D12*
X216914Y688744D02*
X222247Y694077D01*
X222247Y679855D01*
G54D12*
X272237Y765706D02*
X275437Y763928D01*
X276503Y762150D01*
X276503Y758595D01*
G54D12*
X267970Y758595D02*
X267970Y772817D01*
X273303Y772817D01*
X275437Y771928D01*
X276503Y770150D01*
X276503Y768373D01*
X275437Y766595D01*
X273303Y765706D01*
X267970Y765706D01*
G54D12*
X288947Y758595D02*
X280414Y758595D01*
X280414Y759484D01*
X281481Y761262D01*
X287881Y766595D01*
X288947Y768373D01*
X288947Y770150D01*
X287881Y771928D01*
X285747Y772817D01*
X283614Y772817D01*
X281481Y771928D01*
X280414Y770150D01*
G54D12*
X500837Y566316D02*
X504037Y564538D01*
X505103Y562760D01*
X505103Y559205D01*
G54D12*
X496570Y559205D02*
X496570Y573427D01*
X501903Y573427D01*
X504037Y572538D01*
X505103Y570760D01*
X505103Y568983D01*
X504037Y567205D01*
X501903Y566316D01*
X496570Y566316D01*
G54D12*
X515414Y559205D02*
X515414Y573427D01*
X509014Y564538D01*
X509014Y562760D01*
X517547Y562760D01*
G54D12*
X442417Y760626D02*
X445617Y758848D01*
X446683Y757070D01*
X446683Y753515D01*
G54D12*
X438150Y753515D02*
X438150Y767737D01*
X443483Y767737D01*
X445617Y766848D01*
X446683Y765070D01*
X446683Y763293D01*
X445617Y761515D01*
X443483Y760626D01*
X438150Y760626D01*
G54D12*
X450594Y762404D02*
X455927Y767737D01*
X455927Y753515D01*
G54D12*
X341273Y666012D02*
X340207Y664234D01*
X338073Y663345D01*
X335940Y663345D01*
X333807Y664234D01*
X332740Y666012D01*
X332740Y674900D01*
X333807Y676678D01*
X335940Y677567D01*
X338073Y677567D01*
X340207Y676678D01*
X341273Y674900D01*
G54D12*
X353717Y663345D02*
X345184Y663345D01*
X345184Y664234D01*
X346251Y666012D01*
X352651Y671345D01*
X353717Y673123D01*
X353717Y674900D01*
X352651Y676678D01*
X350517Y677567D01*
X348384Y677567D01*
X346251Y676678D01*
X345184Y674900D01*
G54D12*
X244297Y662075D02*
X244297Y676297D01*
G54D12*
X240030Y676297D02*
X248563Y676297D01*
G54D12*
X261007Y662075D02*
X252474Y662075D01*
X252474Y662964D01*
X253541Y664742D01*
X259941Y670075D01*
X261007Y671853D01*
X261007Y673630D01*
X259941Y675408D01*
X257807Y676297D01*
X255674Y676297D01*
X253541Y675408D01*
X252474Y673630D01*
G54D12*
X408127Y578255D02*
X408127Y592477D01*
G54D12*
X403860Y592477D02*
X412393Y592477D01*
G54D12*
X416304Y587144D02*
X421637Y592477D01*
X421637Y578255D01*
G54D15*
X274955Y697635D02*
X280288Y711857D01*
X285622Y697635D01*
G54D15*
X277088Y702968D02*
X283488Y702968D01*
G54D15*
X298067Y697635D02*
X290600Y697635D01*
X290600Y711857D01*
X298067Y711857D01*
G54D15*
X290600Y704746D02*
X298067Y704746D01*
G54D15*
X316769Y697635D02*
X308236Y697635D01*
X308236Y698524D01*
X309303Y700302D01*
X315703Y705635D01*
X316769Y707413D01*
X316769Y709190D01*
X315703Y710968D01*
X313569Y711857D01*
X311436Y711857D01*
X309303Y710968D01*
X308236Y709190D01*
G54D12*
X580033Y620292D02*
X578967Y618514D01*
X576833Y617625D01*
X574700Y617625D01*
X572567Y618514D01*
X571500Y620292D01*
X571500Y629180D01*
X572567Y630958D01*
X574700Y631847D01*
X576833Y631847D01*
X578967Y630958D01*
X580033Y629180D01*
G54D12*
X583944Y629180D02*
X585011Y630958D01*
X587144Y631847D01*
X589277Y631847D01*
X591411Y630958D01*
X592477Y629180D01*
X592477Y627403D01*
X591411Y625625D01*
X589277Y624736D01*
X591411Y623847D01*
X592477Y622070D01*
X592477Y620292D01*
X591411Y618514D01*
X589277Y617625D01*
X587144Y617625D01*
X585011Y618514D01*
X583944Y620292D01*
G54D17*
X1119046Y1260084D02*
X1129712Y1260084D01*
G54D17*
X1124379Y1264529D02*
X1124379Y1255640D01*
G54D22*
X1122732Y1241881D02*
X1122732Y1229437D01*
G54D22*
X1126466Y1229437D02*
X1118999Y1229437D01*
G54D17*
X1119046Y990844D02*
X1129712Y990844D01*
G54D17*
X1124379Y995289D02*
X1124379Y986400D01*
G54D22*
X1124002Y972641D02*
X1124002Y960197D01*
G54D22*
X1127736Y960197D02*
X1120269Y960197D01*
G54D17*
X89076Y650484D02*
X99742Y650484D01*
G54D17*
X94409Y654929D02*
X94409Y646040D01*
G54D22*
X94032Y632282D02*
X94032Y619837D01*
G54D22*
X97766Y619837D02*
X90299Y619837D01*
G54D17*
X66216Y1074664D02*
X76882Y1074664D01*
G54D17*
X71549Y1079109D02*
X71549Y1070220D01*
G54D22*
X71172Y1056462D02*
X71172Y1044017D01*
G54D22*
X74906Y1044017D02*
X67439Y1044017D01*
G54D17*
X218616Y1335014D02*
X229282Y1335014D01*
G54D17*
X223949Y1339459D02*
X223949Y1330570D01*
G54D22*
X223572Y1316812D02*
X223572Y1304367D01*
G54D22*
X227306Y1304367D02*
X219839Y1304367D01*
G54D10*
X817270Y700760D02*
X836270Y700760D01*
X836270Y662760D01*
X817270Y662760D01*
X817270Y700760D01*
G54D10*
X826770Y700860D02*
X826770Y734160D01*
G54D10*
X826770Y629360D02*
X826770Y662660D01*
G54D10*
X855370Y700760D02*
X874370Y700760D01*
X874370Y662760D01*
X855370Y662760D01*
X855370Y700760D01*
G54D10*
X864870Y700860D02*
X864870Y734160D01*
G54D10*
X864870Y629360D02*
X864870Y662660D01*
G54D10*
X1033170Y700760D02*
X1052170Y700760D01*
X1052170Y662760D01*
X1033170Y662760D01*
X1033170Y700760D01*
G54D10*
X1042670Y700860D02*
X1042670Y734160D01*
G54D10*
X1042670Y629360D02*
X1042670Y662660D01*
G54D10*
X1071270Y700760D02*
X1090270Y700760D01*
X1090270Y662760D01*
X1071270Y662760D01*
X1071270Y700760D01*
G54D10*
X1080770Y700860D02*
X1080770Y734160D01*
G54D10*
X1080770Y629360D02*
X1080770Y662660D01*
G54D10*
X799960Y748040D02*
X769760Y748040D01*
X769760Y625640D01*
X799960Y625640D01*
X799960Y748040D01*
G54D10*
X792860Y688240D02*
X776860Y688240D01*
G54D10*
X792860Y685040D02*
X776860Y685040D01*
G54D10*
X784860Y724740D02*
X784860Y688240D01*
G54D10*
X784860Y685040D02*
X784860Y648540D01*
G54D10*
X901460Y714640D02*
X901460Y684440D01*
X1023860Y684440D01*
X1023860Y714640D01*
X901460Y714640D01*
G54D10*
X961260Y707540D02*
X961260Y691540D01*
G54D10*
X964460Y707540D02*
X964460Y691540D01*
G54D10*
X924760Y699540D02*
X961260Y699540D01*
G54D10*
X964460Y699540D02*
X1000960Y699540D01*
G54D10*
X901460Y676540D02*
X901460Y646340D01*
X1023860Y646340D01*
X1023860Y676540D01*
X901460Y676540D01*
G54D10*
X961260Y669440D02*
X961260Y653440D01*
G54D10*
X964460Y669440D02*
X964460Y653440D01*
G54D10*
X924760Y661440D02*
X961260Y661440D01*
G54D10*
X964460Y661440D02*
X1000960Y661440D01*
G54D12*
X733840Y665320D02*
X733840Y656430D01*
X732773Y654653D01*
X730640Y653764D01*
X728506Y653764D01*
X726373Y654653D01*
X725306Y656430D01*
X725306Y665320D01*
X726373Y667097D01*
X728506Y667986D01*
X730640Y667986D01*
X732773Y667097D01*
X733840Y665320D01*
G54D12*
X737750Y667986D02*
X737750Y656430D01*
X738817Y654653D01*
X740950Y653764D01*
X743084Y653764D01*
X745217Y654653D01*
X746284Y656430D01*
X746284Y667986D01*
G54D12*
X754461Y653764D02*
X754461Y667986D01*
G54D12*
X750194Y667986D02*
X758728Y667986D01*
G54D17*
X741139Y595521D02*
X741139Y577743D01*
G54D17*
X746472Y577743D02*
X735806Y577743D01*
G54D17*
X1134839Y595521D02*
X1134839Y577743D01*
G54D17*
X1140172Y577743D02*
X1129506Y577743D01*
G54D17*
X1106306Y745362D02*
X1116973Y745362D01*
G54D17*
X1111640Y749806D02*
X1111640Y740917D01*
G54D10*
X964623Y617872D02*
X964623Y551881D01*
G54D10*
G75*
G01X964623Y551881D02*
G03X964623Y617872I19050J32996D01*
G01*
G54D10*
X888423Y617872D02*
X888423Y551881D01*
G54D10*
G75*
G01X888423Y551881D02*
G03X888423Y617872I19050J32996D01*
G01*
G54D12*
X823417Y773326D02*
X826617Y771548D01*
X827683Y769770D01*
X827683Y766215D01*
G54D12*
X819150Y766215D02*
X819150Y780437D01*
X824483Y780437D01*
X826617Y779548D01*
X827683Y777770D01*
X827683Y775993D01*
X826617Y774215D01*
X824483Y773326D01*
X819150Y773326D01*
G54D12*
X837994Y766215D02*
X837994Y780437D01*
X831594Y771548D01*
X831594Y769770D01*
X840127Y769770D01*
G54D12*
X861517Y773326D02*
X864717Y771548D01*
X865783Y769770D01*
X865783Y766215D01*
G54D12*
X857250Y766215D02*
X857250Y780437D01*
X862583Y780437D01*
X864717Y779548D01*
X865783Y777770D01*
X865783Y775993D01*
X864717Y774215D01*
X862583Y773326D01*
X857250Y773326D01*
G54D12*
X869694Y777770D02*
X870761Y779548D01*
X872894Y780437D01*
X875027Y780437D01*
X877161Y779548D01*
X878227Y777770D01*
X878227Y775993D01*
X877161Y774215D01*
X875027Y773326D01*
X877161Y772437D01*
X878227Y770660D01*
X878227Y768882D01*
X877161Y767104D01*
X875027Y766215D01*
X872894Y766215D01*
X870761Y767104D01*
X869694Y768882D01*
G54D12*
X783233Y768882D02*
X782167Y767104D01*
X780033Y766215D01*
X777900Y766215D01*
X775767Y767104D01*
X774700Y768882D01*
X774700Y777770D01*
X775767Y779548D01*
X777900Y780437D01*
X780033Y780437D01*
X782167Y779548D01*
X783233Y777770D01*
G54D12*
X787144Y777770D02*
X788211Y779548D01*
X790344Y780437D01*
X792477Y780437D01*
X794611Y779548D01*
X795677Y777770D01*
X795677Y775993D01*
X794611Y774215D01*
X792477Y773326D01*
X794611Y772437D01*
X795677Y770660D01*
X795677Y768882D01*
X794611Y767104D01*
X792477Y766215D01*
X790344Y766215D01*
X788211Y767104D01*
X787144Y768882D01*
G54D12*
X1039317Y773326D02*
X1042517Y771548D01*
X1043583Y769770D01*
X1043583Y766215D01*
G54D12*
X1035050Y766215D02*
X1035050Y780437D01*
X1040383Y780437D01*
X1042517Y779548D01*
X1043583Y777770D01*
X1043583Y775993D01*
X1042517Y774215D01*
X1040383Y773326D01*
X1035050Y773326D01*
G54D12*
X1056027Y766215D02*
X1047494Y766215D01*
X1047494Y767104D01*
X1048561Y768882D01*
X1054961Y774215D01*
X1056027Y775993D01*
X1056027Y777770D01*
X1054961Y779548D01*
X1052827Y780437D01*
X1050694Y780437D01*
X1048561Y779548D01*
X1047494Y777770D01*
G54D12*
X1077417Y773326D02*
X1080617Y771548D01*
X1081683Y769770D01*
X1081683Y766215D01*
G54D12*
X1073150Y766215D02*
X1073150Y780437D01*
X1078483Y780437D01*
X1080617Y779548D01*
X1081683Y777770D01*
X1081683Y775993D01*
X1080617Y774215D01*
X1078483Y773326D01*
X1073150Y773326D01*
G54D12*
X1085594Y775104D02*
X1090927Y780437D01*
X1090927Y766215D01*
G54D12*
X865327Y550315D02*
X865327Y564537D01*
G54D12*
X861060Y564537D02*
X869593Y564537D01*
G54D12*
X882037Y550315D02*
X873504Y550315D01*
X873504Y551204D01*
X874571Y552982D01*
X880971Y558315D01*
X882037Y560093D01*
X882037Y561870D01*
X880971Y563648D01*
X878837Y564537D01*
X876704Y564537D01*
X874571Y563648D01*
X873504Y561870D01*
G54D12*
X1025347Y550315D02*
X1025347Y564537D01*
G54D12*
X1021080Y564537D02*
X1029613Y564537D01*
G54D12*
X1033524Y559204D02*
X1038857Y564537D01*
X1038857Y550315D01*
G54D12*
X961033Y723162D02*
X959967Y721384D01*
X957833Y720495D01*
X955700Y720495D01*
X953567Y721384D01*
X952500Y723162D01*
X952500Y732050D01*
X953567Y733828D01*
X955700Y734717D01*
X957833Y734717D01*
X959967Y733828D01*
X961033Y732050D01*
G54D12*
X964944Y729384D02*
X970277Y734717D01*
X970277Y720495D01*
G54D12*
X961033Y629182D02*
X959967Y627404D01*
X957833Y626515D01*
X955700Y626515D01*
X953567Y627404D01*
X952500Y629182D01*
X952500Y638070D01*
X953567Y639848D01*
X955700Y640737D01*
X957833Y640737D01*
X959967Y639848D01*
X961033Y638070D01*
G54D12*
X973477Y626515D02*
X964944Y626515D01*
X964944Y627404D01*
X966011Y629182D01*
X972411Y634515D01*
X973477Y636293D01*
X973477Y638070D01*
X972411Y639848D01*
X970277Y640737D01*
X968144Y640737D01*
X966011Y639848D01*
X964944Y638070D01*
G54D17*
X1110348Y671415D02*
X1121014Y671415D01*
G54D17*
X1115681Y675860D02*
X1115681Y666971D01*
G54D22*
X1115304Y653212D02*
X1115304Y640768D01*
G54D22*
X1119038Y640768D02*
X1111571Y640768D01*
G54D15*
X811530Y580160D02*
X816863Y594382D01*
X822197Y580160D01*
G54D15*
X813663Y585493D02*
X820063Y585493D01*
G54D15*
X834642Y580160D02*
X827175Y580160D01*
X827175Y594382D01*
X834642Y594382D01*
G54D15*
X827175Y587271D02*
X834642Y587271D01*
G54D15*
X853344Y594382D02*
X844811Y594382D01*
X844811Y588160D01*
X845878Y588160D01*
X848011Y589049D01*
X850144Y589049D01*
X852278Y588160D01*
X853344Y586382D01*
X853344Y582827D01*
X852278Y581049D01*
X850144Y580160D01*
X848011Y580160D01*
X845878Y581049D01*
X844811Y582827D01*
G54D10*
X961991Y1573184D02*
X981191Y1573184D01*
G54D10*
X961991Y1576384D02*
X981191Y1576384D01*
G54D10*
X971591Y1573184D02*
X971591Y1565284D01*
G54D10*
X971591Y1576384D02*
X971591Y1584284D01*
G54D10*
X985891Y1563684D02*
X957291Y1585884D01*
X963691Y1585884D01*
G54D10*
X957291Y1585884D02*
X958891Y1579584D01*
G54D10*
X194970Y370560D02*
X213970Y370560D01*
X213970Y332560D01*
X194970Y332560D01*
X194970Y370560D01*
G54D10*
X204470Y370660D02*
X204470Y403960D01*
G54D10*
X204470Y299160D02*
X204470Y332460D01*
G54D10*
X245770Y370560D02*
X264770Y370560D01*
X264770Y332560D01*
X245770Y332560D01*
X245770Y370560D01*
G54D10*
X255270Y370660D02*
X255270Y403960D01*
G54D10*
X255270Y299160D02*
X255270Y332460D01*
G54D10*
X664870Y370560D02*
X683870Y370560D01*
X683870Y332560D01*
X664870Y332560D01*
X664870Y370560D01*
G54D10*
X674370Y370660D02*
X674370Y403960D01*
G54D10*
X674370Y299160D02*
X674370Y332460D01*
G54D10*
X563270Y370560D02*
X582270Y370560D01*
X582270Y332560D01*
X563270Y332560D01*
X563270Y370560D01*
G54D10*
X572770Y370660D02*
X572770Y403960D01*
G54D10*
X572770Y299160D02*
X572770Y332460D01*
G54D10*
X1045870Y370560D02*
X1064870Y370560D01*
X1064870Y332560D01*
X1045870Y332560D01*
X1045870Y370560D01*
G54D10*
X1055370Y370660D02*
X1055370Y403960D01*
G54D10*
X1055370Y299160D02*
X1055370Y332460D01*
G54D10*
X1083970Y370560D02*
X1102970Y370560D01*
X1102970Y332560D01*
X1083970Y332560D01*
X1083970Y370560D01*
G54D10*
X1093470Y370660D02*
X1093470Y403960D01*
G54D10*
X1093470Y299160D02*
X1093470Y332460D01*
G54D10*
X164960Y405140D02*
X134760Y405140D01*
X134760Y282740D01*
X164960Y282740D01*
X164960Y405140D01*
G54D10*
X157860Y345340D02*
X141860Y345340D01*
G54D10*
X157860Y342140D02*
X141860Y342140D01*
G54D10*
X149860Y381840D02*
X149860Y345340D01*
G54D10*
X149860Y342140D02*
X149860Y305640D01*
G54D10*
X990460Y392440D02*
X960260Y392440D01*
X960260Y270040D01*
X990460Y270040D01*
X990460Y392440D01*
G54D10*
X983360Y332640D02*
X967360Y332640D01*
G54D10*
X983360Y329440D02*
X967360Y329440D01*
G54D10*
X975360Y369140D02*
X975360Y332640D01*
G54D10*
X975360Y329440D02*
X975360Y292940D01*
G54D10*
X1028560Y392440D02*
X998360Y392440D01*
X998360Y270040D01*
X1028560Y270040D01*
X1028560Y392440D01*
G54D10*
X1021460Y332640D02*
X1005460Y332640D01*
G54D10*
X1021460Y329440D02*
X1005460Y329440D01*
G54D10*
X1013460Y369140D02*
X1013460Y332640D01*
G54D10*
X1013460Y329440D02*
X1013460Y292940D01*
G54D17*
X292829Y288181D02*
X292829Y270403D01*
G54D17*
X298162Y270403D02*
X287496Y270403D01*
G54D17*
X521429Y288181D02*
X521429Y270403D01*
G54D17*
X526762Y270403D02*
X516096Y270403D01*
G54D17*
X927829Y288181D02*
X927829Y270403D01*
G54D17*
X933162Y270403D02*
X922496Y270403D01*
G54D12*
X514130Y459580D02*
X514130Y450690D01*
X513063Y448913D01*
X510930Y448024D01*
X508796Y448024D01*
X506663Y448913D01*
X505596Y450690D01*
X505596Y459580D01*
X506663Y461357D01*
X508796Y462246D01*
X510930Y462246D01*
X513063Y461357D01*
X514130Y459580D01*
G54D12*
X518040Y462246D02*
X518040Y450690D01*
X519107Y448913D01*
X521240Y448024D01*
X523374Y448024D01*
X525507Y448913D01*
X526574Y450690D01*
X526574Y462246D01*
G54D12*
X534751Y448024D02*
X534751Y462246D01*
G54D12*
X530484Y462246D02*
X539018Y462246D01*
G54D12*
X920530Y459580D02*
X920530Y450690D01*
X919463Y448913D01*
X917330Y448024D01*
X915196Y448024D01*
X913063Y448913D01*
X911996Y450690D01*
X911996Y459580D01*
X913063Y461357D01*
X915196Y462246D01*
X917330Y462246D01*
X919463Y461357D01*
X920530Y459580D01*
G54D12*
X924440Y462246D02*
X924440Y450690D01*
X925507Y448913D01*
X927640Y448024D01*
X929774Y448024D01*
X931907Y448913D01*
X932974Y450690D01*
X932974Y462246D01*
G54D12*
X941151Y448024D02*
X941151Y462246D01*
G54D12*
X936884Y462246D02*
X945418Y462246D01*
G54D12*
X285886Y451834D02*
X285886Y466056D01*
G54D12*
X289797Y451834D02*
X289797Y466056D01*
X298331Y451834D01*
X298331Y466056D01*
G54D17*
X711929Y288181D02*
X711929Y270403D01*
G54D17*
X717262Y270403D02*
X706596Y270403D01*
G54D12*
X704986Y451834D02*
X704986Y466056D01*
G54D12*
X708897Y451834D02*
X708897Y466056D01*
X717431Y451834D01*
X717431Y466056D01*
G54D17*
X1131029Y288181D02*
X1131029Y270403D01*
G54D17*
X1136362Y270403D02*
X1125696Y270403D01*
G54D12*
X1124086Y451834D02*
X1124086Y466056D01*
G54D12*
X1127997Y451834D02*
X1127997Y466056D01*
X1136531Y451834D01*
X1136531Y466056D01*
G54D17*
X102329Y288181D02*
X102329Y270403D01*
G54D17*
X107662Y270403D02*
X96996Y270403D01*
G54D12*
X95030Y459580D02*
X95030Y450690D01*
X93963Y448913D01*
X91830Y448024D01*
X89696Y448024D01*
X87563Y448913D01*
X86496Y450690D01*
X86496Y459580D01*
X87563Y461357D01*
X89696Y462246D01*
X91830Y462246D01*
X93963Y461357D01*
X95030Y459580D01*
G54D12*
X98940Y462246D02*
X98940Y450690D01*
X100007Y448913D01*
X102140Y448024D01*
X104274Y448024D01*
X106407Y448913D01*
X107474Y450690D01*
X107474Y462246D01*
G54D12*
X115651Y448024D02*
X115651Y462246D01*
G54D12*
X111384Y462246D02*
X119918Y462246D01*
G54D15*
X1114425Y351560D02*
X1119758Y365782D01*
X1125092Y351560D01*
G54D15*
X1116558Y356893D02*
X1122958Y356893D01*
G54D15*
X1137537Y351560D02*
X1130070Y351560D01*
X1130070Y365782D01*
X1137537Y365782D01*
G54D15*
X1130070Y358671D02*
X1137537Y358671D01*
G54D15*
X1147706Y360449D02*
X1153039Y365782D01*
X1153039Y351560D01*
G54D15*
X1166550Y363116D02*
X1166550Y354227D01*
X1165484Y352449D01*
X1163350Y351560D01*
X1161217Y351560D01*
X1159084Y352449D01*
X1158017Y354227D01*
X1158017Y363116D01*
X1159084Y364893D01*
X1161217Y365782D01*
X1163350Y365782D01*
X1165484Y364893D01*
X1166550Y363116D01*
G54D15*
X697230Y351560D02*
X702563Y365782D01*
X707897Y351560D01*
G54D15*
X699363Y356893D02*
X705763Y356893D01*
G54D15*
X720342Y351560D02*
X712875Y351560D01*
X712875Y365782D01*
X720342Y365782D01*
G54D15*
X712875Y358671D02*
X720342Y358671D01*
G54D15*
X730511Y354227D02*
X731578Y352449D01*
X733711Y351560D01*
X735844Y351560D01*
X737978Y352449D01*
X739044Y354227D01*
X739044Y358671D01*
X739044Y359560D01*
X735844Y357782D01*
X733711Y357782D01*
X731578Y358671D01*
X730511Y360449D01*
X730511Y363116D01*
X731578Y364893D01*
X733711Y365782D01*
X735844Y365782D01*
X737978Y364893D01*
X739044Y363116D01*
X739044Y358671D01*
G54D15*
X276225Y351560D02*
X281558Y365782D01*
X286892Y351560D01*
G54D15*
X278358Y356893D02*
X284758Y356893D01*
G54D15*
X299337Y351560D02*
X291870Y351560D01*
X291870Y365782D01*
X299337Y365782D01*
G54D15*
X291870Y358671D02*
X299337Y358671D01*
G54D15*
X314839Y358671D02*
X312706Y358671D01*
X310573Y359560D01*
X309506Y361338D01*
X309506Y363116D01*
X310573Y364893D01*
X312706Y365782D01*
X314839Y365782D01*
X316973Y364893D01*
X318039Y363116D01*
X318039Y361338D01*
X316973Y359560D01*
X314839Y358671D01*
X316973Y357782D01*
X318039Y356004D01*
X318039Y354227D01*
X316973Y352449D01*
X314839Y351560D01*
X312706Y351560D01*
X310573Y352449D01*
X309506Y354227D01*
X309506Y356004D01*
X310573Y357782D01*
X312706Y358671D01*
G54D12*
X201117Y443126D02*
X204317Y441348D01*
X205383Y439570D01*
X205383Y436015D01*
G54D12*
X196850Y436015D02*
X196850Y450237D01*
X202183Y450237D01*
X204317Y449348D01*
X205383Y447570D01*
X205383Y445793D01*
X204317Y444015D01*
X202183Y443126D01*
X196850Y443126D01*
G54D12*
X217827Y436015D02*
X209294Y436015D01*
X209294Y436904D01*
X210361Y438682D01*
X216761Y444015D01*
X217827Y445793D01*
X217827Y447570D01*
X216761Y449348D01*
X214627Y450237D01*
X212494Y450237D01*
X210361Y449348D01*
X209294Y447570D01*
G54D12*
X245567Y443126D02*
X248767Y441348D01*
X249833Y439570D01*
X249833Y436015D01*
G54D12*
X241300Y436015D02*
X241300Y450237D01*
X246633Y450237D01*
X248767Y449348D01*
X249833Y447570D01*
X249833Y445793D01*
X248767Y444015D01*
X246633Y443126D01*
X241300Y443126D01*
G54D12*
X253744Y444904D02*
X259077Y450237D01*
X259077Y436015D01*
G54D12*
X148233Y420267D02*
X147167Y418489D01*
X145033Y417600D01*
X142900Y417600D01*
X140767Y418489D01*
X139700Y420267D01*
X139700Y429156D01*
X140767Y430933D01*
X142900Y431822D01*
X145033Y431822D01*
X147167Y430933D01*
X148233Y429156D01*
G54D12*
X152144Y426489D02*
X157477Y431822D01*
X157477Y417600D01*
G54D12*
X671017Y443126D02*
X674217Y441348D01*
X675283Y439570D01*
X675283Y436015D01*
G54D12*
X666750Y436015D02*
X666750Y450237D01*
X672083Y450237D01*
X674217Y449348D01*
X675283Y447570D01*
X675283Y445793D01*
X674217Y444015D01*
X672083Y443126D01*
X666750Y443126D01*
G54D12*
X679194Y444904D02*
X684527Y450237D01*
X684527Y436015D01*
G54D12*
X569417Y443126D02*
X572617Y441348D01*
X573683Y439570D01*
X573683Y436015D01*
G54D12*
X565150Y436015D02*
X565150Y450237D01*
X570483Y450237D01*
X572617Y449348D01*
X573683Y447570D01*
X573683Y445793D01*
X572617Y444015D01*
X570483Y443126D01*
X565150Y443126D01*
G54D12*
X586127Y436015D02*
X577594Y436015D01*
X577594Y436904D01*
X578661Y438682D01*
X585061Y444015D01*
X586127Y445793D01*
X586127Y447570D01*
X585061Y449348D01*
X582927Y450237D01*
X580794Y450237D01*
X578661Y449348D01*
X577594Y447570D01*
G54D12*
X623213Y389787D02*
X622147Y388009D01*
X620013Y387120D01*
X617880Y387120D01*
X615747Y388009D01*
X614680Y389787D01*
X614680Y398676D01*
X615747Y400453D01*
X617880Y401342D01*
X620013Y401342D01*
X622147Y400453D01*
X623213Y398676D01*
G54D12*
X627124Y396009D02*
X632457Y401342D01*
X632457Y387120D01*
G54D12*
X1050112Y443126D02*
X1053312Y441348D01*
X1054378Y439570D01*
X1054378Y436015D01*
G54D12*
X1045845Y436015D02*
X1045845Y450237D01*
X1051178Y450237D01*
X1053312Y449348D01*
X1054378Y447570D01*
X1054378Y445793D01*
X1053312Y444015D01*
X1051178Y443126D01*
X1045845Y443126D01*
G54D12*
X1066822Y436015D02*
X1058289Y436015D01*
X1058289Y436904D01*
X1059356Y438682D01*
X1065756Y444015D01*
X1066822Y445793D01*
X1066822Y447570D01*
X1065756Y449348D01*
X1063622Y450237D01*
X1061489Y450237D01*
X1059356Y449348D01*
X1058289Y447570D01*
G54D12*
X1090116Y443126D02*
X1093316Y441348D01*
X1094383Y439570D01*
X1094383Y436015D01*
G54D12*
X1085850Y436015D02*
X1085850Y450237D01*
X1091183Y450237D01*
X1093316Y449348D01*
X1094383Y447570D01*
X1094383Y445793D01*
X1093316Y444015D01*
X1091183Y443126D01*
X1085850Y443126D01*
G54D12*
X1098294Y444904D02*
X1103627Y450237D01*
X1103627Y436015D01*
G54D12*
X1011833Y407567D02*
X1010767Y405789D01*
X1008633Y404900D01*
X1006500Y404900D01*
X1004367Y405789D01*
X1003300Y407567D01*
X1003300Y416456D01*
X1004367Y418233D01*
X1006500Y419122D01*
X1008633Y419122D01*
X1010767Y418233D01*
X1011833Y416456D01*
G54D12*
X1015744Y413789D02*
X1021077Y419122D01*
X1021077Y404900D01*
G54D12*
X973733Y407567D02*
X972667Y405789D01*
X970533Y404900D01*
X968400Y404900D01*
X966267Y405789D01*
X965200Y407567D01*
X965200Y416456D01*
X966267Y418233D01*
X968400Y419122D01*
X970533Y419122D01*
X972667Y418233D01*
X973733Y416456D01*
G54D12*
X986177Y404900D02*
X977644Y404900D01*
X977644Y405789D01*
X978711Y407567D01*
X985111Y412900D01*
X986177Y414678D01*
X986177Y416456D01*
X985111Y418233D01*
X982977Y419122D01*
X980844Y419122D01*
X978711Y418233D01*
X977644Y416456D01*
G54D10*
X637138Y375528D02*
X611738Y375528D01*
X611738Y303928D01*
X637138Y303928D01*
X637138Y375528D01*
G54D10*
X632438Y341328D02*
X616438Y341328D01*
G54D10*
X632438Y338128D02*
X616438Y338128D01*
G54D10*
X624438Y354028D02*
X624438Y341328D01*
G54D10*
X624438Y338128D02*
X624438Y325428D01*
G54D10*
X368300Y66700D02*
X368300Y42800D01*
X377800Y42800D01*
X377800Y33400D01*
X368300Y33400D01*
X368300Y9500D01*
X546100Y9500D01*
X546100Y66700D01*
X368300Y66700D01*
G36*
X368200Y9500D02*
X368200Y22200D01*
X381000Y9500D01*
X368200Y9500D01*
G37*
G54D12*
X450986Y32734D02*
X450986Y46956D01*
G54D12*
X463431Y35400D02*
X462364Y33623D01*
X460231Y32734D01*
X458097Y32734D01*
X455964Y33623D01*
X454897Y35400D01*
X454897Y44289D01*
X455964Y46067D01*
X458097Y46956D01*
X460231Y46956D01*
X462364Y46067D01*
X463431Y44289D01*
G54D12*
X819286Y32734D02*
X819286Y46956D01*
G54D12*
X831731Y35400D02*
X830664Y33623D01*
X828531Y32734D01*
X826397Y32734D01*
X824264Y33623D01*
X823197Y35400D01*
X823197Y44289D01*
X824264Y46067D01*
X826397Y46956D01*
X828531Y46956D01*
X830664Y46067D01*
X831731Y44289D01*
G54D10*
X554182Y920928D02*
X554182Y943153D01*
X488932Y943153D01*
X488932Y920928D01*
X554182Y920928D01*
G54D10*
X522782Y923950D02*
X522782Y939950D01*
G54D10*
X519582Y923950D02*
X519582Y939950D01*
G54D10*
X535482Y931950D02*
X522782Y931950D01*
G54D10*
X519582Y931950D02*
X506882Y931950D01*
M02*
