%FSLAX34Y34*%
%MOMM*%
%LNSOLDERMASK_BOTTOM*%
G71*
G01*
%ADD10C,2.700*%
%ADD11C,2.700*%
%ADD12C,2.700*%
%ADD13C,2.200*%
%ADD14C,2.000*%
%ADD15C,0.600*%
%ADD16C,2.000*%
%ADD17C,2.200*%
%ADD18C,1.800*%
%ADD19C,2.700*%
%LPD*%
X384810Y1574570D02*
G54D10*
D03*
X511810Y1574570D02*
G54D10*
D03*
X444500Y1624100D02*
G54D10*
D03*
X546100Y1624100D02*
G54D10*
D03*
X825500Y1770150D02*
G54D11*
D03*
X825500Y1579650D02*
G54D11*
D03*
X622300Y1573300D02*
G54D11*
D03*
X546100Y1662200D02*
G54D12*
D03*
X647700Y1662200D02*
G54D12*
D03*
X266700Y1636800D02*
G54D11*
D03*
X266700Y1713000D02*
G54D11*
D03*
X342900Y1713000D02*
G54D11*
D03*
X342900Y1814600D02*
G54D11*
D03*
X723900Y1713000D02*
G54D11*
D03*
X723900Y1814600D02*
G54D11*
D03*
X342900Y1662200D02*
G54D10*
D03*
X342900Y1586000D02*
G54D10*
D03*
X346710Y1320570D02*
G54D10*
D03*
X473710Y1320570D02*
G54D10*
D03*
X448310Y1358670D02*
G54D10*
D03*
X575310Y1358670D02*
G54D10*
D03*
X308610Y1447570D02*
G54D10*
D03*
X435610Y1447570D02*
G54D10*
D03*
X270510Y1422170D02*
G54D10*
D03*
X270510Y1295170D02*
G54D10*
D03*
X308610Y1396770D02*
G54D10*
D03*
X308610Y1269770D02*
G54D10*
D03*
X440055Y1281200D02*
G54D10*
D03*
X338455Y1281200D02*
G54D10*
D03*
X254000Y1446300D02*
G54D11*
D03*
X571500Y1446300D02*
G54D11*
D03*
X520700Y1446300D02*
G54D11*
D03*
X520700Y1179600D02*
G54D11*
D03*
X571500Y1179600D02*
G54D11*
D03*
X342900Y1395500D02*
G54D13*
D03*
X382900Y1395500D02*
G54D13*
D03*
X444500Y1408200D02*
G54D13*
D03*
X484500Y1408200D02*
G54D13*
D03*
X368300Y1217700D02*
G54D13*
D03*
X444500Y1217700D02*
G54D13*
D03*
X514350Y1255800D02*
G54D11*
D03*
X565150Y1255800D02*
G54D11*
D03*
X537968Y1227127D02*
G54D11*
D03*
X290120Y1227496D02*
G54D11*
D03*
X239320Y1227496D02*
G54D11*
D03*
X266502Y1256169D02*
G54D11*
D03*
X565154Y1303696D02*
G54D11*
D03*
X514354Y1303696D02*
G54D11*
D03*
X541536Y1332369D02*
G54D11*
D03*
X544496Y1416947D02*
G54D13*
D03*
X516320Y1388770D02*
G54D13*
D03*
X822960Y1390420D02*
G54D10*
D03*
X822960Y1263420D02*
G54D10*
D03*
X873760Y1390420D02*
G54D10*
D03*
X873760Y1263420D02*
G54D10*
D03*
X924560Y1339620D02*
G54D10*
D03*
X924560Y1212620D02*
G54D10*
D03*
X1013460Y1384070D02*
G54D10*
D03*
X1013460Y1257070D02*
G54D10*
D03*
X1089660Y1295170D02*
G54D10*
D03*
X1089660Y1168170D02*
G54D10*
D03*
X962120Y1282871D02*
G54D13*
D03*
X962120Y1322871D02*
G54D13*
D03*
X1140460Y1168170D02*
G54D11*
D03*
X1120140Y1345970D02*
G54D10*
D03*
X1043940Y1345970D02*
G54D10*
D03*
X1140460Y1307870D02*
G54D11*
D03*
X1140460Y1384070D02*
G54D11*
D03*
X772160Y1168170D02*
G54D11*
D03*
X772160Y1218970D02*
G54D11*
D03*
X962660Y1358670D02*
G54D11*
D03*
X818208Y1167881D02*
G54D11*
D03*
X818208Y1218681D02*
G54D11*
D03*
X846881Y1191499D02*
G54D11*
D03*
X1013788Y1167881D02*
G54D11*
D03*
X1013788Y1218681D02*
G54D11*
D03*
X1042461Y1191499D02*
G54D11*
D03*
X111760Y1072920D02*
G54D10*
D03*
X111760Y945920D02*
G54D10*
D03*
X194310Y1072920D02*
G54D10*
D03*
X194310Y945920D02*
G54D10*
D03*
X270510Y1015770D02*
G54D10*
D03*
X270510Y888770D02*
G54D10*
D03*
X346710Y1066570D02*
G54D10*
D03*
X346710Y939570D02*
G54D10*
D03*
X391160Y1066570D02*
G54D10*
D03*
X391160Y939570D02*
G54D10*
D03*
X461010Y907820D02*
G54D10*
D03*
X334010Y907820D02*
G54D10*
D03*
X558800Y1065300D02*
G54D11*
D03*
X558800Y976400D02*
G54D11*
D03*
X558800Y887500D02*
G54D11*
D03*
X152400Y1071650D02*
G54D10*
D03*
X152400Y970050D02*
G54D10*
D03*
X234950Y1071650D02*
G54D10*
D03*
X234950Y970050D02*
G54D10*
D03*
X311150Y1065300D02*
G54D10*
D03*
X311150Y963700D02*
G54D10*
D03*
X462608Y990081D02*
G54D11*
D03*
X462608Y1040881D02*
G54D11*
D03*
X491281Y1013699D02*
G54D11*
D03*
X1051560Y1060220D02*
G54D10*
D03*
X1051560Y933220D02*
G54D10*
D03*
X1089660Y1060220D02*
G54D10*
D03*
X1089660Y933220D02*
G54D10*
D03*
X861060Y1060220D02*
G54D10*
D03*
X861060Y933220D02*
G54D10*
D03*
X989658Y882131D02*
G54D11*
D03*
X989658Y932931D02*
G54D11*
D03*
X1018331Y905749D02*
G54D11*
D03*
X907108Y875781D02*
G54D11*
D03*
X907108Y926581D02*
G54D11*
D03*
X935781Y899399D02*
G54D11*
D03*
X1143000Y1058950D02*
G54D11*
D03*
X1143000Y881150D02*
G54D11*
D03*
X755650Y881150D02*
G54D11*
D03*
X755650Y931950D02*
G54D11*
D03*
X923386Y986962D02*
G54D13*
D03*
X923386Y1026961D02*
G54D13*
D03*
X1005438Y1010787D02*
G54D13*
D03*
X1005438Y970787D02*
G54D13*
D03*
X819150Y1020850D02*
G54D11*
D03*
X781050Y1058950D02*
G54D11*
D03*
X764463Y970075D02*
G54D14*
D03*
X764463Y995475D02*
G54D14*
D03*
X213360Y742720D02*
G54D10*
D03*
X340360Y742720D02*
G54D10*
D03*
X416560Y742719D02*
G54D10*
D03*
X543560Y742720D02*
G54D10*
D03*
X416560Y704619D02*
G54D10*
D03*
X543560Y704620D02*
G54D10*
D03*
X416560Y666519D02*
G54D10*
D03*
X543560Y666520D02*
G54D10*
D03*
X124460Y590319D02*
G54D10*
D03*
X251460Y590320D02*
G54D10*
D03*
X441960Y590319D02*
G54D10*
D03*
X568960Y590320D02*
G54D10*
D03*
X466095Y614086D02*
G54D11*
D03*
X415294Y614086D02*
G54D11*
D03*
X442476Y642759D02*
G54D11*
D03*
X514350Y627150D02*
G54D13*
D03*
X554350Y627150D02*
G54D13*
D03*
X182575Y684798D02*
G54D13*
D03*
X142575Y684798D02*
G54D13*
D03*
X343385Y647331D02*
G54D13*
D03*
X343385Y571131D02*
G54D13*
D03*
X275595Y614086D02*
G54D11*
D03*
X224794Y614086D02*
G54D11*
D03*
X251976Y642759D02*
G54D11*
D03*
X596900Y741450D02*
G54D11*
D03*
X596900Y563650D02*
G54D11*
D03*
X594360Y647470D02*
G54D11*
D03*
X76200Y684300D02*
G54D11*
D03*
X76200Y570000D02*
G54D11*
D03*
G36*
X1132596Y1244406D02*
X1152596Y1244406D01*
X1152596Y1224406D01*
X1132596Y1224406D01*
X1132596Y1244406D01*
G37*
X1142596Y1259806D02*
G54D14*
D03*
G36*
X1132596Y975166D02*
X1152596Y975166D01*
X1152596Y955166D01*
X1132596Y955166D01*
X1132596Y975166D01*
G37*
X1142596Y990566D02*
G54D14*
D03*
G36*
X65796Y634806D02*
X85796Y634806D01*
X85796Y614806D01*
X65796Y614806D01*
X65796Y634806D01*
G37*
X75796Y650206D02*
G54D14*
D03*
G36*
X42936Y1058986D02*
X62936Y1058986D01*
X62936Y1038986D01*
X42936Y1038986D01*
X42936Y1058986D01*
G37*
X52936Y1074386D02*
G54D14*
D03*
G54D15*
G75*
G01X31850Y1155800D02*
G03X6450Y1155800I-12700J0D01*
G01*
G36*
G75*
G01X31850Y1155800D02*
G03X6450Y1155800I-12700J0D01*
G01*
G37*
X31850Y1155800D01*
G54D15*
G75*
G01X6450Y1149250D02*
G03X31850Y1149250I12700J0D01*
G01*
G36*
G75*
G01X6450Y1149250D02*
G03X31850Y1149250I12700J0D01*
G01*
G37*
X6450Y1149250D01*
G54D15*
G75*
G01X1192630Y1155800D02*
G03X1167230Y1155800I-12700J0D01*
G01*
G36*
G75*
G01X1192630Y1155800D02*
G03X1167230Y1155800I-12700J0D01*
G01*
G37*
X1192630Y1155800D01*
G54D15*
G75*
G01X1167230Y1149250D02*
G03X1192630Y1149250I12700J0D01*
G01*
G36*
G75*
G01X1167230Y1149250D02*
G03X1192630Y1149250I12700J0D01*
G01*
G37*
X1167230Y1149250D01*
G54D15*
G75*
G01X31850Y863700D02*
G03X6450Y863700I-12700J0D01*
G01*
G36*
G75*
G01X31850Y863700D02*
G03X6450Y863700I-12700J0D01*
G01*
G37*
X31850Y863700D01*
G54D15*
G75*
G01X6450Y857150D02*
G03X31850Y857150I12700J0D01*
G01*
G36*
G75*
G01X6450Y857150D02*
G03X31850Y857150I12700J0D01*
G01*
G37*
X6450Y857150D01*
G54D15*
G75*
G01X1192630Y863700D02*
G03X1167230Y863700I-12700J0D01*
G01*
G36*
G75*
G01X1192630Y863700D02*
G03X1167230Y863700I-12700J0D01*
G01*
G37*
X1192630Y863700D01*
G54D15*
G75*
G01X1167230Y857150D02*
G03X1192630Y857150I12700J0D01*
G01*
G36*
G75*
G01X1167230Y857150D02*
G03X1192630Y857150I12700J0D01*
G01*
G37*
X1167230Y857150D01*
G36*
X195336Y1319336D02*
X215336Y1319336D01*
X215336Y1299336D01*
X195336Y1299336D01*
X195336Y1319336D01*
G37*
X205336Y1334736D02*
G54D14*
D03*
X826770Y745260D02*
G54D10*
D03*
X826770Y618260D02*
G54D10*
D03*
X864870Y745260D02*
G54D10*
D03*
X864870Y618260D02*
G54D10*
D03*
X1042670Y745260D02*
G54D10*
D03*
X1042670Y618260D02*
G54D10*
D03*
X1080770Y745260D02*
G54D10*
D03*
X1080770Y618260D02*
G54D10*
D03*
X784860Y737640D02*
G54D10*
D03*
X784860Y636040D02*
G54D10*
D03*
X911860Y699540D02*
G54D10*
D03*
X1013460Y699540D02*
G54D10*
D03*
X911860Y661440D02*
G54D10*
D03*
X1013460Y661440D02*
G54D10*
D03*
X740410Y636040D02*
G54D11*
D03*
X740410Y559840D02*
G54D11*
D03*
X1134110Y559840D02*
G54D11*
D03*
X1134110Y737640D02*
G54D11*
D03*
X980769Y559552D02*
G54D11*
D03*
X980769Y610352D02*
G54D11*
D03*
X1009442Y583170D02*
G54D11*
D03*
X904569Y559552D02*
G54D11*
D03*
X904569Y610352D02*
G54D11*
D03*
X933242Y583170D02*
G54D11*
D03*
G36*
X1123898Y655737D02*
X1143898Y655737D01*
X1143898Y635737D01*
X1123898Y635737D01*
X1123898Y655737D01*
G37*
X1133898Y671137D02*
G54D14*
D03*
G54D15*
G75*
G01X1192630Y670025D02*
G03X1167230Y670025I-12700J0D01*
G01*
G36*
G75*
G01X1192630Y670025D02*
G03X1167230Y670025I-12700J0D01*
G01*
G37*
X1192630Y670025D01*
G54D15*
G75*
G01X1167230Y663475D02*
G03X1192630Y663475I12700J0D01*
G01*
G36*
G75*
G01X1167230Y663475D02*
G03X1192630Y663475I12700J0D01*
G01*
G37*
X1167230Y663475D01*
G54D15*
G75*
G01X31850Y606525D02*
G03X6450Y606525I-12700J0D01*
G01*
G36*
G75*
G01X31850Y606525D02*
G03X6450Y606525I-12700J0D01*
G01*
G37*
X31850Y606525D01*
G54D15*
G75*
G01X6450Y599975D02*
G03X31850Y599975I12700J0D01*
G01*
G36*
G75*
G01X6450Y599975D02*
G03X31850Y599975I12700J0D01*
G01*
G37*
X6450Y599975D01*
X204470Y415060D02*
G54D10*
D03*
X204470Y288060D02*
G54D10*
D03*
X255270Y415060D02*
G54D10*
D03*
X255270Y288060D02*
G54D10*
D03*
X674370Y415060D02*
G54D10*
D03*
X674370Y288060D02*
G54D10*
D03*
X572770Y415060D02*
G54D10*
D03*
X572770Y288060D02*
G54D10*
D03*
X1055370Y415060D02*
G54D10*
D03*
X1055370Y288060D02*
G54D10*
D03*
X1093470Y415060D02*
G54D10*
D03*
X1093470Y288060D02*
G54D10*
D03*
X149860Y394740D02*
G54D10*
D03*
X149860Y293140D02*
G54D10*
D03*
X975360Y382040D02*
G54D10*
D03*
X975360Y280440D02*
G54D10*
D03*
X1013460Y382040D02*
G54D10*
D03*
X1013460Y280440D02*
G54D10*
D03*
X292100Y252500D02*
G54D11*
D03*
X520700Y252500D02*
G54D11*
D03*
X927100Y252500D02*
G54D11*
D03*
X520700Y430300D02*
G54D11*
D03*
X927100Y430300D02*
G54D11*
D03*
X292100Y430300D02*
G54D11*
D03*
X711200Y252500D02*
G54D11*
D03*
X711200Y430300D02*
G54D11*
D03*
X1130300Y252500D02*
G54D11*
D03*
X1130300Y430300D02*
G54D11*
D03*
X101600Y252500D02*
G54D11*
D03*
X101600Y430300D02*
G54D11*
D03*
X624438Y365128D02*
G54D16*
D03*
X624438Y314328D02*
G54D16*
D03*
X25400Y127000D02*
G54D17*
D03*
X25400Y152400D02*
G54D17*
D03*
X50800Y127000D02*
G54D17*
D03*
X50800Y152400D02*
G54D17*
D03*
X76200Y127000D02*
G54D17*
D03*
X76200Y152400D02*
G54D17*
D03*
X101600Y127000D02*
G54D17*
D03*
X101600Y152400D02*
G54D17*
D03*
X127000Y127000D02*
G54D17*
D03*
X127000Y152400D02*
G54D17*
D03*
X152400Y127000D02*
G54D17*
D03*
X152400Y152400D02*
G54D17*
D03*
X177800Y127000D02*
G54D17*
D03*
X177800Y152400D02*
G54D17*
D03*
X203200Y127000D02*
G54D17*
D03*
X203200Y152400D02*
G54D17*
D03*
X228600Y127000D02*
G54D17*
D03*
X228600Y152400D02*
G54D17*
D03*
X254000Y127000D02*
G54D17*
D03*
X254000Y152400D02*
G54D17*
D03*
X279400Y127000D02*
G54D17*
D03*
X279400Y152400D02*
G54D17*
D03*
X304800Y127000D02*
G54D17*
D03*
X304800Y152400D02*
G54D17*
D03*
X330200Y127000D02*
G54D17*
D03*
X330200Y152400D02*
G54D17*
D03*
X355600Y127000D02*
G54D17*
D03*
X355600Y152400D02*
G54D17*
D03*
X381000Y127000D02*
G54D17*
D03*
X381000Y152400D02*
G54D17*
D03*
X406400Y127000D02*
G54D17*
D03*
X406400Y152400D02*
G54D17*
D03*
X431800Y127000D02*
G54D17*
D03*
X431800Y152400D02*
G54D17*
D03*
X457200Y127000D02*
G54D17*
D03*
X457200Y152400D02*
G54D17*
D03*
X482600Y127000D02*
G54D17*
D03*
X482600Y152400D02*
G54D17*
D03*
X508000Y127000D02*
G54D17*
D03*
X508000Y152400D02*
G54D17*
D03*
X533400Y127000D02*
G54D17*
D03*
X533400Y152400D02*
G54D17*
D03*
X558800Y127000D02*
G54D17*
D03*
X558800Y152400D02*
G54D17*
D03*
X584200Y127000D02*
G54D17*
D03*
X584200Y152400D02*
G54D17*
D03*
X609600Y127000D02*
G54D17*
D03*
X609600Y152400D02*
G54D17*
D03*
X635000Y127000D02*
G54D17*
D03*
X635000Y152400D02*
G54D17*
D03*
X660400Y127000D02*
G54D17*
D03*
X660400Y152400D02*
G54D17*
D03*
X685800Y127000D02*
G54D17*
D03*
X685800Y152400D02*
G54D17*
D03*
X711200Y127000D02*
G54D17*
D03*
X711200Y152400D02*
G54D17*
D03*
X736600Y127000D02*
G54D17*
D03*
X736600Y152400D02*
G54D17*
D03*
X762000Y127000D02*
G54D17*
D03*
X762000Y152400D02*
G54D17*
D03*
X787400Y127000D02*
G54D17*
D03*
X787400Y152400D02*
G54D17*
D03*
X812800Y127000D02*
G54D17*
D03*
X812800Y152400D02*
G54D17*
D03*
X838200Y127000D02*
G54D17*
D03*
X838200Y152400D02*
G54D17*
D03*
X863600Y127000D02*
G54D17*
D03*
X863600Y152400D02*
G54D17*
D03*
X889000Y127000D02*
G54D17*
D03*
X889000Y152400D02*
G54D17*
D03*
X914400Y127000D02*
G54D17*
D03*
X914400Y152400D02*
G54D17*
D03*
X939800Y127000D02*
G54D17*
D03*
X939800Y152400D02*
G54D17*
D03*
X965200Y127000D02*
G54D17*
D03*
X965200Y152400D02*
G54D17*
D03*
X990600Y127000D02*
G54D17*
D03*
X990600Y152400D02*
G54D17*
D03*
X1016000Y127000D02*
G54D17*
D03*
X1016000Y152400D02*
G54D17*
D03*
X1041400Y127000D02*
G54D17*
D03*
X1041400Y152400D02*
G54D17*
D03*
X1066800Y127000D02*
G54D17*
D03*
X1066800Y152400D02*
G54D17*
D03*
X1092200Y127000D02*
G54D17*
D03*
X1092200Y152400D02*
G54D17*
D03*
X1117600Y127000D02*
G54D17*
D03*
X1117600Y152400D02*
G54D17*
D03*
X1143000Y127000D02*
G54D17*
D03*
X1143000Y152400D02*
G54D17*
D03*
X1168400Y127000D02*
G54D17*
D03*
X1168400Y152400D02*
G54D17*
D03*
X1193800Y127000D02*
G54D17*
D03*
X1193800Y152400D02*
G54D17*
D03*
X1219200Y127000D02*
G54D17*
D03*
X1219200Y152400D02*
G54D17*
D03*
X25400Y76200D02*
G54D17*
D03*
X25400Y101600D02*
G54D17*
D03*
X50800Y76200D02*
G54D17*
D03*
X50800Y101600D02*
G54D17*
D03*
X76200Y76200D02*
G54D17*
D03*
X76200Y101600D02*
G54D17*
D03*
X101600Y76200D02*
G54D17*
D03*
X101600Y101600D02*
G54D17*
D03*
X127000Y76200D02*
G54D17*
D03*
X127000Y101600D02*
G54D17*
D03*
X152400Y76200D02*
G54D17*
D03*
X152400Y101600D02*
G54D17*
D03*
X177800Y76200D02*
G54D17*
D03*
X177800Y101600D02*
G54D17*
D03*
X203200Y76200D02*
G54D17*
D03*
X203200Y101600D02*
G54D17*
D03*
X228600Y76200D02*
G54D17*
D03*
X228600Y101600D02*
G54D17*
D03*
X254000Y76200D02*
G54D17*
D03*
X254000Y101600D02*
G54D17*
D03*
X279400Y76200D02*
G54D17*
D03*
X279400Y101600D02*
G54D17*
D03*
X304800Y76200D02*
G54D17*
D03*
X304800Y101600D02*
G54D17*
D03*
X330200Y101600D02*
G54D17*
D03*
X355600Y101600D02*
G54D17*
D03*
X381000Y101600D02*
G54D17*
D03*
X406400Y101600D02*
G54D17*
D03*
X431800Y101600D02*
G54D17*
D03*
X457200Y101600D02*
G54D17*
D03*
X482600Y101600D02*
G54D17*
D03*
X508000Y101600D02*
G54D17*
D03*
X533400Y101600D02*
G54D17*
D03*
X558800Y101600D02*
G54D17*
D03*
X584200Y101600D02*
G54D17*
D03*
X609600Y76200D02*
G54D17*
D03*
X609600Y101600D02*
G54D17*
D03*
X635000Y76200D02*
G54D17*
D03*
X635000Y101600D02*
G54D17*
D03*
X660400Y76200D02*
G54D17*
D03*
X660400Y101600D02*
G54D17*
D03*
X685800Y76200D02*
G54D17*
D03*
X685800Y101600D02*
G54D17*
D03*
X711200Y76200D02*
G54D17*
D03*
X711200Y101600D02*
G54D17*
D03*
X736600Y76200D02*
G54D17*
D03*
X736600Y101600D02*
G54D17*
D03*
X914400Y76200D02*
G54D17*
D03*
X914400Y101600D02*
G54D17*
D03*
X939800Y76200D02*
G54D17*
D03*
X939800Y101600D02*
G54D17*
D03*
X965200Y76200D02*
G54D17*
D03*
X965200Y101600D02*
G54D17*
D03*
X990600Y76200D02*
G54D17*
D03*
X990600Y101600D02*
G54D17*
D03*
X1016000Y76200D02*
G54D17*
D03*
X1016000Y101600D02*
G54D17*
D03*
X1041400Y76200D02*
G54D17*
D03*
X1041400Y101600D02*
G54D17*
D03*
X1066800Y76200D02*
G54D17*
D03*
X1066800Y101600D02*
G54D17*
D03*
X1092200Y76200D02*
G54D17*
D03*
X1092200Y101600D02*
G54D17*
D03*
X1117600Y76200D02*
G54D17*
D03*
X1117600Y101600D02*
G54D17*
D03*
X1143000Y76200D02*
G54D17*
D03*
X1143000Y101600D02*
G54D17*
D03*
X1168400Y76200D02*
G54D17*
D03*
X1168400Y101600D02*
G54D17*
D03*
X1193800Y76200D02*
G54D17*
D03*
X1193800Y101600D02*
G54D17*
D03*
X1219200Y76200D02*
G54D17*
D03*
X1219200Y101600D02*
G54D17*
D03*
X25400Y25400D02*
G54D17*
D03*
X25400Y50800D02*
G54D17*
D03*
X50800Y25400D02*
G54D17*
D03*
X50800Y50800D02*
G54D17*
D03*
X76200Y25400D02*
G54D17*
D03*
X76200Y50800D02*
G54D17*
D03*
X101600Y25400D02*
G54D17*
D03*
X101600Y50800D02*
G54D17*
D03*
X127000Y25400D02*
G54D17*
D03*
X127000Y50800D02*
G54D17*
D03*
X152400Y25400D02*
G54D17*
D03*
X152400Y50800D02*
G54D17*
D03*
X177800Y25400D02*
G54D17*
D03*
X177800Y50800D02*
G54D17*
D03*
X203200Y25400D02*
G54D17*
D03*
X203200Y50800D02*
G54D17*
D03*
X228600Y25400D02*
G54D17*
D03*
X228600Y50800D02*
G54D17*
D03*
X254000Y25400D02*
G54D17*
D03*
X254000Y50800D02*
G54D17*
D03*
X279400Y25400D02*
G54D17*
D03*
X279400Y50800D02*
G54D17*
D03*
X304800Y25400D02*
G54D17*
D03*
X304800Y50800D02*
G54D17*
D03*
X609600Y25400D02*
G54D17*
D03*
X609600Y50800D02*
G54D17*
D03*
X635000Y25400D02*
G54D17*
D03*
X635000Y50800D02*
G54D17*
D03*
X660400Y25400D02*
G54D17*
D03*
X660400Y50800D02*
G54D17*
D03*
X685800Y25400D02*
G54D17*
D03*
X685800Y50800D02*
G54D17*
D03*
X711200Y25400D02*
G54D17*
D03*
X711200Y50800D02*
G54D17*
D03*
X736600Y25400D02*
G54D17*
D03*
X736600Y50800D02*
G54D17*
D03*
X914400Y25400D02*
G54D17*
D03*
X914400Y50800D02*
G54D17*
D03*
X939800Y25400D02*
G54D17*
D03*
X939800Y50800D02*
G54D17*
D03*
X965200Y25400D02*
G54D17*
D03*
X965200Y50800D02*
G54D17*
D03*
X990600Y25400D02*
G54D17*
D03*
X990600Y50800D02*
G54D17*
D03*
X1016000Y25400D02*
G54D17*
D03*
X1016000Y50800D02*
G54D17*
D03*
X1041400Y25400D02*
G54D17*
D03*
X1041400Y50800D02*
G54D17*
D03*
X1066800Y25400D02*
G54D17*
D03*
X1066800Y50800D02*
G54D17*
D03*
X1092200Y25400D02*
G54D17*
D03*
X1092200Y50800D02*
G54D17*
D03*
X1117600Y25400D02*
G54D17*
D03*
X1117600Y50800D02*
G54D17*
D03*
X1143000Y25400D02*
G54D17*
D03*
X1143000Y50800D02*
G54D17*
D03*
X1168400Y25400D02*
G54D17*
D03*
X1168400Y50800D02*
G54D17*
D03*
X1193800Y25400D02*
G54D17*
D03*
X1193800Y50800D02*
G54D17*
D03*
X1219200Y25400D02*
G54D17*
D03*
X1219200Y50800D02*
G54D17*
D03*
X25400Y-25400D02*
G54D17*
D03*
X25400Y0D02*
G54D17*
D03*
X50800Y-25400D02*
G54D17*
D03*
X50800Y0D02*
G54D17*
D03*
X76200Y-25400D02*
G54D17*
D03*
X76200Y0D02*
G54D17*
D03*
X101600Y-25400D02*
G54D17*
D03*
X101600Y0D02*
G54D17*
D03*
X127000Y-25400D02*
G54D17*
D03*
X127000Y0D02*
G54D17*
D03*
X152400Y-25400D02*
G54D17*
D03*
X152400Y0D02*
G54D17*
D03*
X177800Y-25400D02*
G54D17*
D03*
X177800Y0D02*
G54D17*
D03*
X203200Y-25400D02*
G54D17*
D03*
X203200Y0D02*
G54D17*
D03*
X228600Y-25400D02*
G54D17*
D03*
X228600Y0D02*
G54D17*
D03*
X254000Y-25400D02*
G54D17*
D03*
X254000Y0D02*
G54D17*
D03*
X279400Y-25400D02*
G54D17*
D03*
X279400Y0D02*
G54D17*
D03*
X304800Y-25400D02*
G54D17*
D03*
X304800Y0D02*
G54D17*
D03*
X330200Y-25400D02*
G54D17*
D03*
X355600Y-25400D02*
G54D17*
D03*
X381000Y-25400D02*
G54D17*
D03*
X406400Y-25400D02*
G54D17*
D03*
X431800Y-25400D02*
G54D17*
D03*
X457200Y-25400D02*
G54D17*
D03*
X482600Y-25400D02*
G54D17*
D03*
X508000Y-25400D02*
G54D17*
D03*
X533400Y-25400D02*
G54D17*
D03*
X558800Y-25400D02*
G54D17*
D03*
X584200Y-25400D02*
G54D17*
D03*
X609600Y-25400D02*
G54D17*
D03*
X609600Y0D02*
G54D17*
D03*
X635000Y-25400D02*
G54D17*
D03*
X635000Y0D02*
G54D17*
D03*
X660400Y-25400D02*
G54D17*
D03*
X660400Y0D02*
G54D17*
D03*
X685800Y-25400D02*
G54D17*
D03*
X685800Y0D02*
G54D17*
D03*
X711200Y-25400D02*
G54D17*
D03*
X711200Y0D02*
G54D17*
D03*
X736600Y-25400D02*
G54D17*
D03*
X736600Y0D02*
G54D17*
D03*
X914400Y-25400D02*
G54D17*
D03*
X914400Y0D02*
G54D17*
D03*
X939800Y-25400D02*
G54D17*
D03*
X939800Y0D02*
G54D17*
D03*
X965200Y-25400D02*
G54D17*
D03*
X965200Y0D02*
G54D17*
D03*
X990600Y-25400D02*
G54D17*
D03*
X990600Y0D02*
G54D17*
D03*
X1016000Y-25400D02*
G54D17*
D03*
X1016000Y0D02*
G54D17*
D03*
X1041400Y-25400D02*
G54D17*
D03*
X1041400Y0D02*
G54D17*
D03*
X1066800Y-25400D02*
G54D17*
D03*
X1066800Y0D02*
G54D17*
D03*
X1092200Y-25400D02*
G54D17*
D03*
X1092200Y0D02*
G54D17*
D03*
X1117600Y-25400D02*
G54D17*
D03*
X1117600Y0D02*
G54D17*
D03*
X1143000Y-25400D02*
G54D17*
D03*
X1143000Y0D02*
G54D17*
D03*
X1168400Y-25400D02*
G54D17*
D03*
X1168400Y0D02*
G54D17*
D03*
X1193800Y-25400D02*
G54D17*
D03*
X1193800Y0D02*
G54D17*
D03*
X1219200Y-25400D02*
G54D17*
D03*
X1219200Y0D02*
G54D17*
D03*
X25400Y-76200D02*
G54D17*
D03*
X25400Y-50800D02*
G54D17*
D03*
X50800Y-76200D02*
G54D17*
D03*
X50800Y-50800D02*
G54D17*
D03*
X76200Y-76200D02*
G54D17*
D03*
X76200Y-50800D02*
G54D17*
D03*
X101600Y-76200D02*
G54D17*
D03*
X101600Y-50800D02*
G54D17*
D03*
X127000Y-76200D02*
G54D17*
D03*
X127000Y-50800D02*
G54D17*
D03*
X152400Y-76200D02*
G54D17*
D03*
X152400Y-50800D02*
G54D17*
D03*
X177800Y-76200D02*
G54D17*
D03*
X177800Y-50800D02*
G54D17*
D03*
X203200Y-76200D02*
G54D17*
D03*
X203200Y-50800D02*
G54D17*
D03*
X228600Y-76200D02*
G54D17*
D03*
X228600Y-50800D02*
G54D17*
D03*
X254000Y-76200D02*
G54D17*
D03*
X254000Y-50800D02*
G54D17*
D03*
X279400Y-76200D02*
G54D17*
D03*
X279400Y-50800D02*
G54D17*
D03*
X304800Y-76200D02*
G54D17*
D03*
X304800Y-50800D02*
G54D17*
D03*
X330200Y-76200D02*
G54D17*
D03*
X330200Y-50800D02*
G54D17*
D03*
X355600Y-76200D02*
G54D17*
D03*
X355600Y-50800D02*
G54D17*
D03*
X381000Y-76200D02*
G54D17*
D03*
X381000Y-50800D02*
G54D17*
D03*
X406400Y-76200D02*
G54D17*
D03*
X406400Y-50800D02*
G54D17*
D03*
X431800Y-76200D02*
G54D17*
D03*
X431800Y-50800D02*
G54D17*
D03*
X457200Y-76200D02*
G54D17*
D03*
X457200Y-50800D02*
G54D17*
D03*
X482600Y-76200D02*
G54D17*
D03*
X482600Y-50800D02*
G54D17*
D03*
X508000Y-76200D02*
G54D17*
D03*
X508000Y-50800D02*
G54D17*
D03*
X533400Y-76200D02*
G54D17*
D03*
X533400Y-50800D02*
G54D17*
D03*
X558800Y-76200D02*
G54D17*
D03*
X558800Y-50800D02*
G54D17*
D03*
X584200Y-76200D02*
G54D17*
D03*
X584200Y-50800D02*
G54D17*
D03*
X609600Y-76200D02*
G54D17*
D03*
X609600Y-50800D02*
G54D17*
D03*
X635000Y-76200D02*
G54D17*
D03*
X635000Y-50800D02*
G54D17*
D03*
X660400Y-76200D02*
G54D17*
D03*
X660400Y-50800D02*
G54D17*
D03*
X685800Y-76200D02*
G54D17*
D03*
X685800Y-50800D02*
G54D17*
D03*
X711200Y-76200D02*
G54D17*
D03*
X711200Y-50800D02*
G54D17*
D03*
X736600Y-76200D02*
G54D17*
D03*
X736600Y-50800D02*
G54D17*
D03*
X762000Y-76200D02*
G54D17*
D03*
X787400Y-76200D02*
G54D17*
D03*
X812800Y-76200D02*
G54D17*
D03*
X838200Y-76200D02*
G54D17*
D03*
X863600Y-76200D02*
G54D17*
D03*
X889000Y-76200D02*
G54D17*
D03*
X914400Y-76200D02*
G54D17*
D03*
X914400Y-50800D02*
G54D17*
D03*
X939800Y-76200D02*
G54D17*
D03*
X939800Y-50800D02*
G54D17*
D03*
X965200Y-76200D02*
G54D17*
D03*
X965200Y-50800D02*
G54D17*
D03*
X990600Y-76200D02*
G54D17*
D03*
X990600Y-50800D02*
G54D17*
D03*
X1016000Y-76200D02*
G54D17*
D03*
X1016000Y-50800D02*
G54D17*
D03*
X1041400Y-76200D02*
G54D17*
D03*
X1041400Y-50800D02*
G54D17*
D03*
X1066800Y-76200D02*
G54D17*
D03*
X1066800Y-50800D02*
G54D17*
D03*
X1092200Y-76200D02*
G54D17*
D03*
X1092200Y-50800D02*
G54D17*
D03*
X1117600Y-76200D02*
G54D17*
D03*
X1117600Y-50800D02*
G54D17*
D03*
X1143000Y-76200D02*
G54D17*
D03*
X1143000Y-50800D02*
G54D17*
D03*
X1168400Y-76200D02*
G54D17*
D03*
X1168400Y-50800D02*
G54D17*
D03*
X1193800Y-76200D02*
G54D17*
D03*
X1193800Y-50800D02*
G54D17*
D03*
X1219200Y-76200D02*
G54D17*
D03*
X1219200Y-50800D02*
G54D17*
D03*
X381000Y0D02*
G54D18*
D03*
X406400Y0D02*
G54D18*
D03*
X431800Y0D02*
G54D18*
D03*
X457200Y0D02*
G54D18*
D03*
X381000Y76200D02*
G54D18*
D03*
X406400Y76200D02*
G54D18*
D03*
X431800Y76200D02*
G54D18*
D03*
X457200Y76200D02*
G54D18*
D03*
X482600Y0D02*
G54D18*
D03*
X482600Y76200D02*
G54D18*
D03*
X508000Y0D02*
G54D18*
D03*
X533400Y0D02*
G54D18*
D03*
X508000Y76200D02*
G54D18*
D03*
X533400Y76200D02*
G54D18*
D03*
X330200Y76200D02*
G54D17*
D03*
X330200Y0D02*
G54D17*
D03*
X584200Y76200D02*
G54D17*
D03*
X584200Y25400D02*
G54D17*
D03*
X584200Y50800D02*
G54D17*
D03*
X584200Y0D02*
G54D17*
D03*
X330200Y25400D02*
G54D17*
D03*
X330200Y50800D02*
G54D17*
D03*
X876300Y38100D02*
G54D19*
D03*
X866598Y67960D02*
G54D19*
D03*
X841198Y86414D02*
G54D19*
D03*
X809802Y86414D02*
G54D19*
D03*
X784402Y67960D02*
G54D19*
D03*
X774700Y38100D02*
G54D19*
D03*
X784402Y8240D02*
G54D19*
D03*
X809802Y-10214D02*
G54D19*
D03*
X841198Y-10214D02*
G54D19*
D03*
X866598Y8240D02*
G54D19*
D03*
X762000Y-50800D02*
G54D17*
D03*
X787400Y-50800D02*
G54D17*
D03*
X812800Y-50800D02*
G54D17*
D03*
X838200Y-50800D02*
G54D17*
D03*
X863600Y-50800D02*
G54D17*
D03*
X889000Y-50800D02*
G54D17*
D03*
X541650Y931950D02*
G54D13*
D03*
X501802Y931950D02*
G54D13*
D03*
M02*
