%FSLAX34Y34*%
%MOMM*%
%LNSILK_BOTTOM*%
G71*
G01*
%ADD10C,0.400*%
%ADD11C,0.254*%
%ADD12C,0.178*%
%ADD13C,0.133*%
%LPD*%
G54D10*
X2540Y1497100D02*
X1247140Y1497100D01*
G54D10*
X2540Y1118322D02*
X1247140Y1118322D01*
G54D11*
X765795Y1630450D02*
X760462Y1644672D01*
X755128Y1630450D01*
G54D11*
X763662Y1635783D02*
X757262Y1635783D01*
G54D11*
X742683Y1630450D02*
X750150Y1630450D01*
X750150Y1644672D01*
X742683Y1644672D01*
G54D11*
X750150Y1637561D02*
X742683Y1637561D01*
G54D11*
X732514Y1642006D02*
X731447Y1643783D01*
X729314Y1644672D01*
X727181Y1644672D01*
X725047Y1643783D01*
X723981Y1642006D01*
X723981Y1640228D01*
X725047Y1638450D01*
X727181Y1637561D01*
X725047Y1636672D01*
X723981Y1634894D01*
X723981Y1633117D01*
X725047Y1631339D01*
X727181Y1630450D01*
X729314Y1630450D01*
X731447Y1631339D01*
X732514Y1633117D01*
G54D11*
X349845Y1164360D02*
X344512Y1178582D01*
X339178Y1164360D01*
G54D11*
X347712Y1169693D02*
X341312Y1169693D01*
G54D11*
X326733Y1164360D02*
X334200Y1164360D01*
X334200Y1178582D01*
X326733Y1178582D01*
G54D11*
X334200Y1171471D02*
X326733Y1171471D01*
G54D11*
X316564Y1173249D02*
X311231Y1178582D01*
X311231Y1164360D01*
G54D11*
X200485Y878610D02*
X195152Y892832D01*
X189818Y878610D01*
G54D11*
X198352Y883943D02*
X191952Y883943D01*
G54D11*
X177373Y878610D02*
X184840Y878610D01*
X184840Y892832D01*
X177373Y892832D01*
G54D11*
X184840Y885721D02*
X177373Y885721D01*
G54D11*
X167204Y892832D02*
X158671Y892832D01*
X159737Y891054D01*
X161871Y888388D01*
X164004Y884832D01*
X165071Y882166D01*
X165071Y878610D01*
G54D11*
X924545Y1132610D02*
X919212Y1146832D01*
X913878Y1132610D01*
G54D11*
X922412Y1137943D02*
X916012Y1137943D01*
G54D11*
X901433Y1132610D02*
X908900Y1132610D01*
X908900Y1146832D01*
X901433Y1146832D01*
G54D11*
X908900Y1139721D02*
X901433Y1139721D01*
G54D11*
X882731Y1144166D02*
X883797Y1145943D01*
X885931Y1146832D01*
X888064Y1146832D01*
X890197Y1145943D01*
X891264Y1144166D01*
X891264Y1139721D01*
X891264Y1138832D01*
X888064Y1140610D01*
X885931Y1140610D01*
X883797Y1139721D01*
X882731Y1137943D01*
X882731Y1135277D01*
X883797Y1133499D01*
X885931Y1132610D01*
X888064Y1132610D01*
X890197Y1133499D01*
X891264Y1135277D01*
X891264Y1139721D01*
G54D11*
X840408Y915122D02*
X835074Y929345D01*
X829741Y915122D01*
G54D11*
X838274Y920456D02*
X831874Y920456D01*
G54D11*
X817296Y915122D02*
X824762Y915122D01*
X824762Y929345D01*
X817296Y929345D01*
G54D11*
X824762Y922234D02*
X817296Y922234D01*
G54D11*
X800726Y915122D02*
X800726Y929345D01*
X807126Y920456D01*
X807126Y918678D01*
X798593Y918678D01*
G54D10*
X2540Y813522D02*
X1247140Y813522D01*
G54D12*
X1203292Y1483446D02*
X1197958Y1488780D01*
X1197958Y1474557D01*
G54D12*
X1201108Y1091970D02*
X1209642Y1091970D01*
X1209642Y1092859D01*
X1208575Y1094637D01*
X1202175Y1099970D01*
X1201108Y1101748D01*
X1201108Y1103526D01*
X1202175Y1105303D01*
X1204308Y1106192D01*
X1206442Y1106192D01*
X1208575Y1105303D01*
X1209642Y1103526D01*
G54D12*
X1203292Y800313D02*
X1202225Y802091D01*
X1200092Y802980D01*
X1197958Y802980D01*
X1195825Y802091D01*
X1194758Y800313D01*
X1194758Y798535D01*
X1195825Y796758D01*
X1197958Y795869D01*
X1195825Y794980D01*
X1194758Y793202D01*
X1194758Y791424D01*
X1195825Y789646D01*
X1197958Y788758D01*
X1200092Y788758D01*
X1202225Y789646D01*
X1203292Y791424D01*
G54D11*
X314785Y675410D02*
X309452Y689632D01*
X304118Y675410D01*
G54D11*
X312652Y680743D02*
X306252Y680743D01*
G54D11*
X291673Y675410D02*
X299140Y675410D01*
X299140Y689632D01*
X291673Y689632D01*
G54D11*
X299140Y682521D02*
X291673Y682521D01*
G54D11*
X272971Y675410D02*
X281504Y675410D01*
X281504Y676299D01*
X280437Y678077D01*
X274037Y683410D01*
X272971Y685188D01*
X272971Y686966D01*
X274037Y688743D01*
X276171Y689632D01*
X278304Y689632D01*
X280437Y688743D01*
X281504Y686966D01*
G54D10*
X2540Y496022D02*
X1247140Y496022D01*
G54D12*
X1196892Y471258D02*
X1196892Y485480D01*
X1203292Y476591D01*
X1203292Y474813D01*
X1194758Y474813D01*
G54D10*
X665843Y497226D02*
X665843Y1497351D01*
G54D12*
X674058Y1308313D02*
X675125Y1310091D01*
X677258Y1310980D01*
X679392Y1310980D01*
X681525Y1310091D01*
X682592Y1308313D01*
X682592Y1303869D01*
X682592Y1302980D01*
X679392Y1304758D01*
X677258Y1304758D01*
X675125Y1303869D01*
X674058Y1302091D01*
X674058Y1299424D01*
X675125Y1297646D01*
X677258Y1296758D01*
X679392Y1296758D01*
X681525Y1297646D01*
X682592Y1299424D01*
X682592Y1303869D01*
G54D12*
X679416Y974430D02*
X670883Y974430D01*
X671950Y972652D01*
X674083Y969985D01*
X676216Y966430D01*
X677283Y963763D01*
X677283Y960208D01*
G54D12*
X674083Y668869D02*
X676216Y668869D01*
X678350Y669758D01*
X679416Y671535D01*
X679416Y673313D01*
X678350Y675091D01*
X676216Y675980D01*
X674083Y675980D01*
X671950Y675091D01*
X670883Y673313D01*
X670883Y671535D01*
X671950Y669758D01*
X674083Y668869D01*
X671950Y667980D01*
X670883Y666202D01*
X670883Y664424D01*
X671950Y662646D01*
X674083Y661758D01*
X676216Y661758D01*
X678350Y662646D01*
X679416Y664424D01*
X679416Y666202D01*
X678350Y667980D01*
X676216Y668869D01*
G54D11*
X803735Y580160D02*
X798402Y594382D01*
X793068Y580160D01*
G54D11*
X801602Y585493D02*
X795202Y585493D01*
G54D11*
X780623Y580160D02*
X788090Y580160D01*
X788090Y594382D01*
X780623Y594382D01*
G54D11*
X788090Y587271D02*
X780623Y587271D01*
G54D11*
X761921Y594382D02*
X770454Y594382D01*
X770454Y588160D01*
X769387Y588160D01*
X767254Y589049D01*
X765121Y589049D01*
X762987Y588160D01*
X761921Y586382D01*
X761921Y582827D01*
X762987Y581049D01*
X765121Y580160D01*
X767254Y580160D01*
X769387Y581049D01*
X770454Y582827D01*
G54D11*
X1003125Y330605D02*
X997792Y344827D01*
X992458Y330605D01*
G54D11*
X1000992Y335938D02*
X994592Y335938D01*
G54D11*
X980013Y330605D02*
X987480Y330605D01*
X987480Y344827D01*
X980013Y344827D01*
G54D11*
X987480Y337716D02*
X980013Y337716D01*
G54D11*
X969844Y339494D02*
X964511Y344827D01*
X964511Y330605D01*
G54D11*
X951000Y342160D02*
X951000Y333272D01*
X952066Y331494D01*
X954200Y330605D01*
X956333Y330605D01*
X958466Y331494D01*
X959533Y333272D01*
X959533Y342160D01*
X958466Y343938D01*
X956333Y344827D01*
X954200Y344827D01*
X952066Y343938D01*
X951000Y342160D01*
G54D11*
X686895Y336320D02*
X681562Y350542D01*
X676228Y336320D01*
G54D11*
X684762Y341653D02*
X678362Y341653D01*
G54D11*
X663783Y336320D02*
X671250Y336320D01*
X671250Y350542D01*
X663783Y350542D01*
G54D11*
X671250Y343431D02*
X663783Y343431D01*
G54D11*
X653614Y338987D02*
X652547Y337209D01*
X650414Y336320D01*
X648281Y336320D01*
X646147Y337209D01*
X645081Y338987D01*
X645081Y343431D01*
X645081Y344320D01*
X648281Y342542D01*
X650414Y342542D01*
X652547Y343431D01*
X653614Y345209D01*
X653614Y347876D01*
X652547Y349653D01*
X650414Y350542D01*
X648281Y350542D01*
X646147Y349653D01*
X645081Y347876D01*
X645081Y343431D01*
G54D11*
X273510Y370610D02*
X268177Y384832D01*
X262843Y370610D01*
G54D11*
X271377Y375943D02*
X264977Y375943D01*
G54D11*
X250398Y370610D02*
X257865Y370610D01*
X257865Y384832D01*
X250398Y384832D01*
G54D11*
X257865Y377721D02*
X250398Y377721D01*
G54D11*
X234896Y377721D02*
X237029Y377721D01*
X239162Y378610D01*
X240229Y380388D01*
X240229Y382166D01*
X239162Y383943D01*
X237029Y384832D01*
X234896Y384832D01*
X232762Y383943D01*
X231696Y382166D01*
X231696Y380388D01*
X232762Y378610D01*
X234896Y377721D01*
X232762Y376832D01*
X231696Y375054D01*
X231696Y373277D01*
X232762Y371499D01*
X234896Y370610D01*
X237029Y370610D01*
X239162Y371499D01*
X240229Y373277D01*
X240229Y375054D01*
X239162Y376832D01*
X237029Y377721D01*
G54D10*
X2540Y197572D02*
X1247140Y197572D01*
G54D12*
X1194758Y187030D02*
X1203292Y187030D01*
X1203292Y180808D01*
X1202225Y180808D01*
X1200092Y181696D01*
X1197958Y181696D01*
X1195825Y180808D01*
X1194758Y179030D01*
X1194758Y175474D01*
X1195825Y173696D01*
X1197958Y172808D01*
X1200092Y172808D01*
X1202225Y173696D01*
X1203292Y175474D01*
G54D10*
X409575Y492125D02*
X409575Y200025D01*
G54D10*
X835025Y492125D02*
X835025Y200025D01*
G54D12*
X849596Y334224D02*
X848530Y332446D01*
X846396Y331558D01*
X844263Y331558D01*
X842130Y332446D01*
X841063Y334224D01*
X841063Y338669D01*
X841063Y339558D01*
X844263Y337780D01*
X846396Y337780D01*
X848530Y338669D01*
X849596Y340446D01*
X849596Y343113D01*
X848530Y344891D01*
X846396Y345780D01*
X844263Y345780D01*
X842130Y344891D01*
X841063Y343113D01*
X841063Y338669D01*
G54D12*
X434306Y340446D02*
X428973Y345780D01*
X428973Y331558D01*
G54D12*
X416529Y343113D02*
X416529Y334224D01*
X417596Y332446D01*
X419729Y331558D01*
X421862Y331558D01*
X423996Y332446D01*
X425062Y334224D01*
X425062Y343113D01*
X423996Y344891D01*
X421862Y345780D01*
X419729Y345780D01*
X417596Y344891D01*
X416529Y343113D01*
G54D13*
X363076Y175261D02*
X363076Y185927D01*
X359076Y185927D01*
X357476Y185261D01*
X356676Y183927D01*
X356676Y182594D01*
X357476Y181261D01*
X359076Y180594D01*
X363076Y180594D01*
G54D13*
X347343Y177261D02*
X348143Y175927D01*
X349743Y175261D01*
X351343Y175261D01*
X352943Y175927D01*
X353743Y177261D01*
X353743Y183927D01*
X352943Y185261D01*
X351343Y185927D01*
X349743Y185927D01*
X348143Y185261D01*
X347343Y183927D01*
G54D13*
X344410Y175261D02*
X344410Y185927D01*
X340410Y185927D01*
X338810Y185261D01*
X338010Y183927D01*
X338010Y182594D01*
X338810Y181261D01*
X340410Y180594D01*
X338810Y179927D01*
X338010Y178594D01*
X338010Y177261D01*
X338810Y175927D01*
X340410Y175261D01*
X344410Y175261D01*
G54D13*
X344410Y180594D02*
X340410Y180594D01*
G54D13*
X328784Y180594D02*
X326384Y179261D01*
X325584Y177927D01*
X325584Y175261D01*
G54D13*
X331984Y175261D02*
X331984Y185927D01*
X327984Y185927D01*
X326384Y185261D01*
X325584Y183927D01*
X325584Y182594D01*
X326384Y181261D01*
X327984Y180594D01*
X331984Y180594D01*
G54D13*
X317851Y175927D02*
X319131Y175261D01*
X320731Y175261D01*
X322331Y175927D01*
X322651Y177261D01*
X322651Y179527D01*
X321851Y180861D01*
X320251Y181261D01*
X318651Y180861D01*
X317851Y179927D01*
X317851Y178594D01*
X322651Y178594D01*
G54D13*
X314918Y181261D02*
X314918Y172594D01*
G54D13*
X314918Y177261D02*
X314118Y175527D01*
X312518Y175261D01*
X310918Y175527D01*
X310118Y176861D01*
X310118Y179527D01*
X310918Y180861D01*
X312518Y181261D01*
X314118Y180861D01*
X314918Y179261D01*
G54D13*
X307185Y175261D02*
X307185Y185927D01*
G54D13*
X304252Y175261D02*
X304252Y181261D01*
G54D13*
X304252Y183261D02*
X304252Y183261D01*
G54D13*
X297319Y180861D02*
X298919Y181261D01*
X300519Y180861D01*
X301319Y179527D01*
X301319Y176861D01*
X300519Y175527D01*
X298919Y175261D01*
X297319Y175527D01*
G54D13*
X294386Y180594D02*
X292786Y181261D01*
X290866Y181261D01*
X289586Y179927D01*
X289586Y175261D01*
G54D13*
X289586Y177261D02*
X290386Y178594D01*
X291986Y178861D01*
X293586Y178594D01*
X294386Y177261D01*
X294066Y175927D01*
X292786Y175261D01*
X291986Y175261D01*
X291666Y175261D01*
X290386Y175927D01*
X289586Y177261D01*
G54D13*
X283560Y175261D02*
X283560Y185927D01*
G54D13*
X283560Y179527D02*
X282760Y180861D01*
X281160Y181261D01*
X279560Y180861D01*
X278760Y179527D01*
X278760Y176861D01*
X279560Y175527D01*
X281160Y175261D01*
X282760Y175527D01*
X283560Y176861D01*
G54D13*
X275827Y181261D02*
X272627Y175261D01*
X269427Y181261D01*
G54D13*
X272627Y175261D02*
X273427Y173261D01*
X274227Y172594D01*
X275027Y172594D01*
G54D13*
X260201Y180594D02*
X257801Y179261D01*
X257001Y177927D01*
X257001Y175261D01*
G54D13*
X263401Y175261D02*
X263401Y185927D01*
X259401Y185927D01*
X257801Y185261D01*
X257001Y183927D01*
X257001Y182594D01*
X257801Y181261D01*
X259401Y180594D01*
X263401Y180594D01*
G54D13*
X249268Y176861D02*
X249268Y179527D01*
X250068Y180861D01*
X251668Y181261D01*
X253268Y180861D01*
X254068Y179527D01*
X254068Y176861D01*
X253268Y175527D01*
X251668Y175261D01*
X250068Y175527D01*
X249268Y176861D01*
G54D13*
X246335Y175261D02*
X246335Y185927D01*
G54D13*
X246335Y179527D02*
X245535Y180861D01*
X243935Y181261D01*
X242335Y180861D01*
X241535Y179527D01*
X241535Y176861D01*
X242335Y175527D01*
X243935Y175261D01*
X245535Y175527D01*
X246335Y176861D01*
G54D13*
X233802Y175927D02*
X235082Y175261D01*
X236682Y175261D01*
X238282Y175927D01*
X238602Y177261D01*
X238602Y179527D01*
X237802Y180861D01*
X236202Y181261D01*
X234602Y180861D01*
X233802Y179927D01*
X233802Y178594D01*
X238602Y178594D01*
G54D13*
X230869Y175261D02*
X230869Y181261D01*
G54D13*
X230869Y179927D02*
X229269Y181261D01*
X227669Y181261D01*
G54D13*
X223136Y185927D02*
X223136Y175927D01*
X222336Y175261D01*
X221536Y175527D01*
G54D13*
X224736Y181261D02*
X221536Y181261D01*
G54D13*
X218603Y175261D02*
X218603Y185927D01*
G54D13*
X218603Y178594D02*
X212203Y185927D01*
G54D13*
X216203Y180594D02*
X212203Y175261D01*
G54D13*
X203777Y185927D02*
X205377Y185261D01*
X206177Y183927D01*
X206177Y177261D01*
X205377Y175927D01*
X203777Y175261D01*
G54D13*
X197644Y180594D02*
X195244Y179261D01*
X194444Y177927D01*
X194444Y175261D01*
G54D13*
X200844Y175261D02*
X200844Y185927D01*
X196844Y185927D01*
X195244Y185261D01*
X194444Y183927D01*
X194444Y182594D01*
X195244Y181261D01*
X196844Y180594D01*
X200844Y180594D01*
G54D13*
X186711Y175927D02*
X187991Y175261D01*
X189591Y175261D01*
X191191Y175927D01*
X191511Y177261D01*
X191511Y179527D01*
X190711Y180861D01*
X189111Y181261D01*
X187511Y180861D01*
X186711Y179927D01*
X186711Y178594D01*
X191511Y178594D01*
G54D13*
X182178Y185927D02*
X182178Y175927D01*
X181378Y175261D01*
X180578Y175527D01*
G54D13*
X183778Y181261D02*
X180578Y181261D01*
G54D13*
X177645Y175261D02*
X177645Y181261D01*
G54D13*
X177645Y179927D02*
X176045Y181261D01*
X174445Y181261D01*
G54D13*
X166712Y176861D02*
X166712Y179527D01*
X167512Y180861D01*
X169112Y181261D01*
X170712Y180861D01*
X171512Y179527D01*
X171512Y176861D01*
X170712Y175527D01*
X169112Y175261D01*
X167512Y175527D01*
X166712Y176861D01*
G54D13*
X160686Y175261D02*
X160686Y185927D01*
X156686Y185927D01*
X155086Y185261D01*
X154286Y183927D01*
X154286Y182594D01*
X155086Y181261D01*
X156686Y180594D01*
X155086Y179927D01*
X154286Y178594D01*
X154286Y177261D01*
X155086Y175927D01*
X156686Y175261D01*
X160686Y175261D01*
G54D13*
X160686Y180594D02*
X156686Y180594D01*
G54D13*
X146553Y175927D02*
X147833Y175261D01*
X149433Y175261D01*
X151033Y175927D01*
X151353Y177261D01*
X151353Y179527D01*
X150553Y180861D01*
X148953Y181261D01*
X147353Y180861D01*
X146553Y179927D01*
X146553Y178594D01*
X151353Y178594D01*
G54D13*
X143620Y175261D02*
X143620Y181261D01*
G54D13*
X143620Y179927D02*
X142020Y181261D01*
X140420Y181261D01*
G54D13*
X135887Y185927D02*
X135887Y175927D01*
X135087Y175261D01*
X134287Y175527D01*
G54D13*
X137487Y181261D02*
X134287Y181261D01*
G54D13*
X131354Y175261D02*
X131354Y181261D01*
G54D13*
X131354Y183261D02*
X131354Y183261D01*
G54D13*
X123621Y175927D02*
X124901Y175261D01*
X126501Y175261D01*
X128101Y175927D01*
X128421Y177261D01*
X128421Y179527D01*
X127621Y180861D01*
X126021Y181261D01*
X124421Y180861D01*
X123621Y179927D01*
X123621Y178594D01*
X128421Y178594D01*
G54D13*
X120688Y185927D02*
X119088Y185261D01*
X118288Y183927D01*
X118288Y177261D01*
X119088Y175927D01*
X120688Y175261D01*
G54D13*
X90611Y185927D02*
X86611Y175261D01*
X82611Y185927D01*
G54D13*
X74878Y175927D02*
X76158Y175261D01*
X77758Y175261D01*
X79358Y175927D01*
X79678Y177261D01*
X79678Y179527D01*
X78878Y180861D01*
X77278Y181261D01*
X75678Y180861D01*
X74878Y179927D01*
X74878Y178594D01*
X79678Y178594D01*
G54D13*
X71945Y175261D02*
X71945Y181261D01*
G54D13*
X71945Y179927D02*
X70345Y181261D01*
X68745Y181261D01*
G54D13*
X65812Y175927D02*
X64212Y175261D01*
X62612Y175261D01*
X61012Y175927D01*
X61012Y177261D01*
X61812Y177927D01*
X65012Y178594D01*
X65812Y179261D01*
X65812Y180594D01*
X64212Y181261D01*
X62612Y181261D01*
X61012Y180594D01*
G54D13*
X58079Y175261D02*
X58079Y181261D01*
G54D13*
X58079Y183261D02*
X58079Y183261D01*
G54D13*
X50346Y176861D02*
X50346Y179527D01*
X51146Y180861D01*
X52746Y181261D01*
X54346Y180861D01*
X55146Y179527D01*
X55146Y176861D01*
X54346Y175527D01*
X52746Y175261D01*
X51146Y175527D01*
X50346Y176861D01*
G54D13*
X47413Y175261D02*
X47413Y181261D01*
G54D13*
X47413Y179927D02*
X46613Y180861D01*
X45013Y181261D01*
X43413Y180861D01*
X42613Y179927D01*
X42613Y175261D01*
G54D13*
X36587Y181927D02*
X32587Y185927D01*
X32587Y175261D01*
G54D13*
X29654Y175261D02*
X29654Y175261D01*
G54D13*
X20321Y183927D02*
X20321Y177261D01*
X21121Y175927D01*
X22721Y175261D01*
X24321Y175261D01*
X25921Y175927D01*
X26721Y177261D01*
X26721Y183927D01*
X25921Y185261D01*
X24321Y185927D01*
X22721Y185927D01*
X21121Y185261D01*
X20321Y183927D01*
M02*
