; Drill file
; Format: 2.4 (00.0000)
M48
INCH
T01C0.0236
T02C0.0276
T03C0.0315
T04C0.0354
T05C0.0394
T06C0.0394
T07C0.1417
T08C0.2992
%
G05
G90
T01
X015000Y000000
X016000Y000000
X017000Y000000
X018000Y000000
X019000Y000000
X020000Y000000
X021000Y000000
X021000Y003000
X020000Y003000
X019000Y003000
X018000Y003000
X017000Y003000
X016000Y003000
X015000Y003000
X024580Y012380
X024580Y014380
T02
X021500Y065440
X025500Y065440
T03
X001000Y-003000
X001000Y-002000
X001000Y-001000
X001000Y000000
X001000Y001000
X001000Y002000
X001000Y003000
X001000Y004000
X001000Y005000
X001000Y006000
X002000Y006000
X002000Y005000
X003000Y005000
X003000Y006000
X004000Y006000
X004000Y005000
X005000Y005000
X005000Y006000
X006000Y006000
X006000Y005000
X007000Y005000
X007000Y006000
X008000Y006000
X008000Y005000
X009000Y005000
X009000Y006000
X010000Y006000
X010000Y005000
X011000Y005000
X011000Y006000
X012000Y006000
X012000Y005000
X013000Y005000
X013000Y006000
X014000Y006000
X014000Y005000
X015000Y005000
X015000Y006000
X016000Y006000
X016000Y005000
X017000Y005000
X017000Y006000
X018000Y006000
X018000Y005000
X019000Y005000
X019000Y006000
X020000Y006000
X020000Y005000
X021000Y005000
X021000Y006000
X022000Y006000
X022000Y005000
X023000Y005000
X023000Y006000
X024000Y006000
X024000Y005000
X025000Y005000
X025000Y006000
X026000Y006000
X026000Y005000
X027000Y005000
X027000Y006000
X028000Y006000
X028000Y005000
X029000Y005000
X029000Y006000
X030000Y006000
X030000Y005000
X031000Y005000
X031000Y006000
X032000Y006000
X032000Y005000
X033000Y005000
X033000Y006000
X034000Y006000
X034000Y005000
X035000Y005000
X035000Y006000
X036000Y006000
X036000Y005000
X037000Y005000
X037000Y006000
X038000Y006000
X038000Y005000
X039000Y005000
X039000Y006000
X040000Y006000
X040000Y005000
X041000Y005000
X041000Y006000
X042000Y006000
X042000Y005000
X043000Y005000
X043000Y006000
X044000Y006000
X044000Y005000
X045000Y005000
X045000Y006000
X046000Y006000
X046000Y005000
X047000Y005000
X047000Y006000
X048000Y006000
X048000Y005000
X048000Y004000
X047000Y004000
X046000Y004000
X045000Y004000
X044000Y004000
X043000Y004000
X042000Y004000
X041000Y004000
X040000Y004000
X039000Y004000
X038000Y004000
X037000Y004000
X036000Y004000
X036000Y003000
X037000Y003000
X038000Y003000
X039000Y003000
X040000Y003000
X041000Y003000
X042000Y003000
X043000Y003000
X044000Y003000
X045000Y003000
X046000Y003000
X047000Y003000
X048000Y003000
X048000Y002000
X047000Y002000
X046000Y002000
X045000Y002000
X044000Y002000
X043000Y002000
X042000Y002000
X041000Y002000
X040000Y002000
X039000Y002000
X038000Y002000
X037000Y002000
X036000Y002000
X036000Y001000
X037000Y001000
X038000Y001000
X039000Y001000
X040000Y001000
X041000Y001000
X042000Y001000
X043000Y001000
X044000Y001000
X045000Y001000
X046000Y001000
X047000Y001000
X048000Y001000
X048000Y000000
X047000Y000000
X046000Y000000
X045000Y000000
X044000Y000000
X043000Y000000
X042000Y000000
X041000Y000000
X040000Y000000
X039000Y000000
X038000Y000000
X037000Y000000
X036000Y000000
X036000Y-001000
X037000Y-001000
X038000Y-001000
X039000Y-001000
X040000Y-001000
X041000Y-001000
X042000Y-001000
X043000Y-001000
X044000Y-001000
X045000Y-001000
X046000Y-001000
X047000Y-001000
X048000Y-001000
X048000Y-002000
X047000Y-002000
X046000Y-002000
X045000Y-002000
X044000Y-002000
X043000Y-002000
X042000Y-002000
X041000Y-002000
X040000Y-002000
X039000Y-002000
X038000Y-002000
X037000Y-002000
X036000Y-002000
X036000Y-003000
X035000Y-003000
X034000Y-003000
X033000Y-003000
X032000Y-003000
X031000Y-003000
X030000Y-003000
X029000Y-003000
X028000Y-003000
X027000Y-003000
X026000Y-003000
X025000Y-003000
X024000Y-003000
X023000Y-003000
X022000Y-003000
X021000Y-003000
X020000Y-003000
X019000Y-003000
X018000Y-003000
X017000Y-003000
X016000Y-003000
X015000Y-003000
X014000Y-003000
X013000Y-003000
X012000Y-003000
X011000Y-003000
X010000Y-003000
X009000Y-003000
X008000Y-003000
X007000Y-003000
X006000Y-003000
X005000Y-003000
X004000Y-003000
X003000Y-003000
X002000Y-003000
X002000Y-002000
X002000Y-001000
X002000Y000000
X002000Y001000
X002000Y002000
X002000Y003000
X002000Y004000
X003000Y004000
X003000Y003000
X004000Y003000
X004000Y004000
X005000Y004000
X005000Y003000
X006000Y003000
X006000Y004000
X007000Y004000
X007000Y003000
X008000Y003000
X008000Y004000
X009000Y004000
X009000Y003000
X010000Y003000
X010000Y004000
X011000Y004000
X011000Y003000
X012000Y003000
X012000Y004000
X013000Y004000
X014000Y004000
X015000Y004000
X016000Y004000
X017000Y004000
X018000Y004000
X019000Y004000
X020000Y004000
X021000Y004000
X022000Y004000
X023000Y004000
X024000Y004000
X024000Y003000
X025000Y003000
X025000Y004000
X026000Y004000
X026000Y003000
X027000Y003000
X027000Y004000
X028000Y004000
X028000Y003000
X029000Y003000
X029000Y004000
X029000Y002000
X028000Y002000
X027000Y002000
X026000Y002000
X025000Y002000
X024000Y002000
X024000Y001000
X025000Y001000
X026000Y001000
X027000Y001000
X028000Y001000
X029000Y001000
X029000Y000000
X028000Y000000
X027000Y000000
X026000Y000000
X025000Y000000
X024000Y000000
X024000Y-001000
X023000Y-001000
X022000Y-001000
X021000Y-001000
X020000Y-001000
X019000Y-001000
X018000Y-001000
X017000Y-001000
X016000Y-001000
X015000Y-001000
X014000Y-001000
X013000Y-001000
X012000Y-001000
X011000Y-001000
X010000Y-001000
X009000Y-001000
X008000Y-001000
X007000Y-001000
X006000Y-001000
X005000Y-001000
X004000Y-001000
X003000Y-001000
X003000Y000000
X003000Y001000
X003000Y002000
X004000Y002000
X004000Y001000
X005000Y001000
X005000Y002000
X006000Y002000
X006000Y001000
X007000Y001000
X007000Y002000
X008000Y002000
X008000Y001000
X009000Y001000
X009000Y002000
X010000Y002000
X010000Y001000
X011000Y001000
X011000Y002000
X012000Y002000
X012000Y001000
X012000Y000000
X011000Y000000
X010000Y000000
X009000Y000000
X008000Y000000
X007000Y000000
X006000Y000000
X005000Y000000
X004000Y000000
X004000Y-002000
X003000Y-002000
X005000Y-002000
X006000Y-002000
X007000Y-002000
X008000Y-002000
X009000Y-002000
X010000Y-002000
X011000Y-002000
X012000Y-002000
X013000Y-002000
X014000Y-002000
X015000Y-002000
X016000Y-002000
X017000Y-002000
X018000Y-002000
X019000Y-002000
X020000Y-002000
X021000Y-002000
X022000Y-002000
X023000Y-002000
X024000Y-002000
X025000Y-002000
X025000Y-001000
X026000Y-001000
X027000Y-001000
X028000Y-001000
X029000Y-001000
X029000Y-002000
X028000Y-002000
X027000Y-002000
X026000Y-002000
X023000Y000000
X023000Y001000
X023000Y002000
X023000Y003000
X030500Y001500
X030880Y002680
X031880Y003400
X033120Y003400
X034120Y002680
X034500Y001500
X034120Y000320
X033120Y-000400
X031880Y-000400
X030880Y000320
X031000Y-002000
X030000Y-002000
X032000Y-002000
X033000Y-002000
X034000Y-002000
X035000Y-002000
X037000Y-003000
X038000Y-003000
X039000Y-003000
X040000Y-003000
X041000Y-003000
X042000Y-003000
X043000Y-003000
X044000Y-003000
X045000Y-003000
X046000Y-003000
X047000Y-003000
X048000Y-003000
X013000Y000000
X013000Y001000
X013000Y002000
X013000Y003000
T04
X002980Y024600
X002980Y025600
X002080Y041300
X002080Y042300
X008080Y051550
X008080Y052550
X030100Y039190
X030100Y038190
X044980Y038000
X044980Y039000
X044980Y048600
X044980Y049600
X044640Y026420
X044640Y025420
T05
X005900Y011540
X008050Y011340
X010050Y011340
X010050Y016340
X008050Y016340
X005900Y015540
X004900Y023240
X005610Y026960
X007190Y026960
X008400Y029240
X013400Y029240
X016400Y029240
X016400Y027740
X016400Y026240
X013520Y025490
X013520Y022490
X009900Y023240
X017400Y023240
X020250Y024690
X021820Y024690
X022400Y023240
X021400Y026240
X021400Y027740
X021400Y029240
X018150Y035740
X019760Y036690
X021320Y036690
X015400Y036990
X013650Y036990
X013150Y035740
X012250Y037940
X010650Y039990
X009250Y038190
X007650Y037240
X006000Y038190
X004400Y037240
X004400Y042240
X006000Y042190
X007650Y042240
X009250Y042190
X012250Y041940
X013650Y041990
X015400Y041990
X014500Y047940
X013330Y050440
X012150Y049990
X010650Y050990
X013650Y051990
X013500Y054940
X012150Y054990
X010650Y055990
X012150Y056990
X015070Y054940
X017500Y055440
X019070Y055440
X020330Y054680
X021440Y055790
X022650Y053490
X018650Y051990
X017650Y053490
X017320Y050440
X017500Y047940
X017150Y056990
X015150Y061990
X013500Y062440
X013500Y065440
X017500Y063940
X020150Y061990
X021500Y063940
X032400Y054740
X034400Y054740
X036400Y052740
X037880Y052080
X037880Y050510
X039900Y049490
X042900Y050990
X044100Y052990
X041100Y052990
X039900Y054490
X034400Y049740
X032400Y049740
X036400Y047740
X033900Y041740
X036350Y040430
X036350Y038860
X033900Y036740
X039580Y038220
X039580Y039790
X041400Y041740
X042900Y041740
X042900Y045990
X042900Y036740
X041400Y036740
X041050Y029340
X042550Y029340
X039900Y027540
X039900Y026040
X041050Y024340
X042550Y024340
X035900Y026040
X035900Y027540
X034050Y029340
X032550Y029340
X030900Y029040
X030900Y025040
X032550Y024340
X034050Y024340
X038400Y015040
X039900Y015040
X041550Y016340
X043050Y016340
X043050Y011340
X041550Y011340
X039900Y011040
X038400Y011040
X026550Y011340
X022550Y011340
X022550Y016340
X026550Y016340
X010650Y034990
T06
X004000Y009940
X004000Y016940
X003000Y022440
X003000Y026940
X008850Y024180
X009920Y025310
X010850Y024180
X016350Y024180
X017420Y025310
X018350Y024180
X023400Y025490
X023500Y022190
X029150Y022040
X029150Y025040
X035610Y024030
X036740Y022960
X035610Y022030
X038610Y022030
X039740Y022960
X038610Y024030
X044650Y022040
X044500Y016940
X044500Y009940
X036500Y009940
X036500Y016940
X028000Y016940
X028000Y009940
X020500Y009940
X020500Y016940
X011500Y016940
X011500Y009940
X023500Y029190
X022000Y034940
X022000Y038440
X019340Y039910
X018210Y038980
X018210Y040980
X022000Y041940
X022500Y046440
X020500Y046440
X021180Y048310
X020250Y049440
X020250Y051330
X021320Y052460
X022250Y051330
X022250Y049440
X022500Y056940
X020500Y056940
X024500Y061940
X028500Y067440
X028500Y071440
X032500Y069690
X032500Y062190
X037900Y053490
X039910Y047980
X041040Y046910
X039910Y045980
X044900Y045990
X045000Y041690
X045000Y034690
X040090Y035660
X038960Y034730
X038960Y036730
X036840Y035410
X035710Y034480
X035710Y036480
X032250Y040190
X030750Y041690
X030400Y045990
X032210Y045980
X033340Y046910
X032210Y047980
X030400Y047990
X029750Y036690
X029750Y034690
X044650Y029040
X044900Y051490
X044900Y054490
X013500Y067440
X010500Y067440
X010500Y064440
X010000Y056940
X010490Y049460
X011420Y048330
X009420Y048330
X013500Y071440
T07
X010750Y061940
X010750Y069940
X045250Y069940
X045250Y061940
T08
X038250Y065940
M30
