%FSLAX34Y34*%
%MOMM*%
%LNCOPPER_BOTTOM*%
G71*
G01*
%ADD10C,2.500*%
%ADD11C,2.500*%
%ADD12C,2.500*%
%ADD13C,3.000*%
%ADD14C,1.000*%
%ADD15C,2.500*%
%ADD16C,2.000*%
%ADD17C,2.000*%
%ADD18C,0.500*%
%ADD19C,1.500*%
%ADD20C,1.600*%
%ADD21C,1.800*%
%ADD22C,0.400*%
%ADD23C,1.800*%
%ADD24C,2.000*%
%ADD25C,1.600*%
%ADD26C,2.500*%
%LPD*%
X384810Y1574570D02*
G54D10*
D03*
X511810Y1574570D02*
G54D10*
D03*
X444500Y1624100D02*
G54D10*
D03*
X546100Y1624100D02*
G54D10*
D03*
X825500Y1770150D02*
G54D11*
D03*
X825500Y1579650D02*
G54D11*
D03*
X622300Y1573300D02*
G54D11*
D03*
X546100Y1662200D02*
G54D12*
D03*
X647700Y1662200D02*
G54D12*
D03*
X266700Y1636800D02*
G54D11*
D03*
X266700Y1713000D02*
G54D11*
D03*
X342900Y1713000D02*
G54D11*
D03*
X342900Y1814600D02*
G54D11*
D03*
X723900Y1713000D02*
G54D11*
D03*
X723900Y1814600D02*
G54D11*
D03*
G54D13*
X266700Y1713000D02*
X342900Y1713000D01*
X774700Y1713000D01*
X825500Y1770150D01*
G54D13*
X647700Y1713000D02*
X647700Y1662200D01*
G54D14*
X266700Y1636800D02*
X342900Y1586000D01*
X394970Y1574570D01*
X444500Y1624100D01*
G54D14*
X546100Y1662200D02*
X546100Y1624100D01*
X622300Y1573300D01*
X825500Y1579650D01*
G54D13*
X511810Y1574570D02*
X444500Y1713000D01*
G54D13*
X342900Y1814600D02*
X520700Y1814600D01*
G54D13*
X723900Y1814600D02*
X558800Y1814600D01*
X342900Y1662200D02*
G54D10*
D03*
X342900Y1586000D02*
G54D10*
D03*
G54D15*
X342900Y1713000D02*
X342900Y1662200D01*
X346710Y1320570D02*
G54D10*
D03*
X473710Y1320570D02*
G54D10*
D03*
X448310Y1358670D02*
G54D10*
D03*
X575310Y1358670D02*
G54D10*
D03*
X308610Y1447570D02*
G54D10*
D03*
X435610Y1447570D02*
G54D10*
D03*
X270510Y1422170D02*
G54D10*
D03*
X270510Y1295170D02*
G54D10*
D03*
X308610Y1396770D02*
G54D10*
D03*
X308610Y1269770D02*
G54D10*
D03*
X440055Y1281200D02*
G54D10*
D03*
X338455Y1281200D02*
G54D10*
D03*
X254000Y1446300D02*
G54D11*
D03*
X571500Y1446300D02*
G54D11*
D03*
X520700Y1446300D02*
G54D11*
D03*
X520700Y1179600D02*
G54D11*
D03*
X571500Y1179600D02*
G54D11*
D03*
X342900Y1395500D02*
G54D16*
D03*
X382900Y1395500D02*
G54D16*
D03*
X444500Y1408200D02*
G54D16*
D03*
X484500Y1408200D02*
G54D16*
D03*
X368300Y1217700D02*
G54D16*
D03*
X444500Y1217700D02*
G54D16*
D03*
X514350Y1255800D02*
G54D11*
D03*
X565150Y1255800D02*
G54D11*
D03*
X537968Y1227127D02*
G54D11*
D03*
X290120Y1227496D02*
G54D11*
D03*
X239320Y1227496D02*
G54D11*
D03*
X266502Y1256169D02*
G54D11*
D03*
X565154Y1303696D02*
G54D11*
D03*
X514354Y1303696D02*
G54D11*
D03*
X541536Y1332369D02*
G54D11*
D03*
X544496Y1416947D02*
G54D16*
D03*
X516320Y1388770D02*
G54D16*
D03*
G54D13*
X511810Y1574570D02*
X549910Y1518690D01*
X571500Y1446300D01*
G54D17*
X571500Y1446300D02*
X575310Y1358670D01*
X584200Y1344700D01*
X586927Y1328990D01*
X577850Y1314538D01*
X565154Y1303696D01*
X565150Y1255800D01*
X571500Y1179600D01*
G54D14*
X520700Y1446300D02*
X520700Y1444400D01*
X484500Y1408200D01*
G54D18*
X544496Y1416947D02*
X544496Y1359004D01*
X557212Y1344700D01*
X561975Y1338350D01*
X563562Y1332000D01*
X561975Y1327238D01*
X558800Y1322475D01*
X549275Y1314538D01*
X539829Y1311362D01*
X514354Y1303696D01*
G54D14*
X514354Y1303696D02*
X490584Y1303696D01*
X473710Y1320570D01*
G54D14*
X448310Y1358670D02*
X515235Y1358670D01*
X541536Y1332369D01*
G54D14*
X448310Y1358670D02*
X444500Y1408200D01*
X435610Y1447570D01*
G54D14*
X515235Y1358670D02*
X515235Y1387685D01*
X516320Y1388770D01*
G54D14*
X514354Y1303696D02*
X539754Y1263441D01*
X537968Y1227127D01*
G54D14*
X444500Y1217700D02*
X520700Y1179600D01*
G54D14*
X308610Y1447570D02*
X330830Y1447570D01*
X382900Y1395500D01*
X444500Y1306600D01*
X514350Y1255800D01*
X469900Y1255800D01*
X368300Y1217700D01*
X290120Y1227496D01*
G54D14*
X346710Y1320570D02*
X440055Y1281200D01*
G54D14*
X338455Y1281200D02*
X308610Y1269770D01*
X266502Y1256169D01*
G54D14*
X342900Y1395500D02*
X309880Y1395500D01*
X308610Y1396770D01*
X308610Y1333270D01*
X270510Y1295170D01*
G54D14*
X254000Y1446300D02*
X270510Y1422170D01*
X241300Y1382800D01*
X239320Y1227496D01*
X822960Y1390420D02*
G54D10*
D03*
X822960Y1263420D02*
G54D10*
D03*
X873760Y1390420D02*
G54D10*
D03*
X873760Y1263420D02*
G54D10*
D03*
X924560Y1339620D02*
G54D10*
D03*
X924560Y1212620D02*
G54D10*
D03*
X1013460Y1384070D02*
G54D10*
D03*
X1013460Y1257070D02*
G54D10*
D03*
X1089660Y1295170D02*
G54D10*
D03*
X1089660Y1168170D02*
G54D10*
D03*
X962120Y1282871D02*
G54D16*
D03*
X962120Y1322871D02*
G54D16*
D03*
X1140460Y1168170D02*
G54D11*
D03*
X1120140Y1345970D02*
G54D10*
D03*
X1043940Y1345970D02*
G54D10*
D03*
X1140460Y1307870D02*
G54D11*
D03*
X1140460Y1384070D02*
G54D11*
D03*
X772160Y1168170D02*
G54D11*
D03*
X772160Y1218970D02*
G54D11*
D03*
X962660Y1358670D02*
G54D11*
D03*
X818208Y1167881D02*
G54D11*
D03*
X818208Y1218681D02*
G54D11*
D03*
X846881Y1191499D02*
G54D11*
D03*
X1013788Y1167881D02*
G54D11*
D03*
X1013788Y1218681D02*
G54D11*
D03*
X1042461Y1191499D02*
G54D11*
D03*
G54D17*
X571500Y1179600D02*
X772160Y1168170D01*
G54D19*
X772160Y1168170D02*
X817919Y1168170D01*
X818208Y1167881D01*
X850900Y1154200D01*
X898507Y1166900D01*
X1013788Y1167881D01*
G54D17*
X1013788Y1167881D02*
X1015019Y1167881D01*
X1041400Y1154200D01*
X1062990Y1154200D01*
X1089660Y1168170D01*
X1140460Y1168170D01*
G54D14*
X772160Y1218970D02*
X817919Y1218970D01*
X818208Y1218681D01*
X822960Y1263420D01*
X924560Y1339620D01*
G54D14*
X924560Y1212620D02*
X990600Y1192300D01*
X1041660Y1192300D01*
X1042461Y1191499D01*
G54D14*
X846881Y1191499D02*
X873760Y1263420D01*
X915060Y1295120D01*
X962120Y1322871D01*
G54D14*
X822960Y1390420D02*
X873760Y1390420D01*
X1013460Y1384070D01*
X1140460Y1384070D01*
X1154430Y1384070D01*
X1168400Y1382800D01*
X1181100Y1370100D01*
X1181100Y1166900D01*
G54D14*
X1120140Y1345970D02*
X1140460Y1307870D01*
X1089660Y1295170D01*
G54D14*
X1013788Y1218681D02*
X1013788Y1256742D01*
X1013460Y1257070D01*
X962120Y1282871D01*
G54D14*
X962120Y1322871D02*
X962660Y1358670D01*
X1043940Y1345970D01*
X111760Y1072920D02*
G54D10*
D03*
X111760Y945920D02*
G54D10*
D03*
X194310Y1072920D02*
G54D10*
D03*
X194310Y945920D02*
G54D10*
D03*
X270510Y1015770D02*
G54D10*
D03*
X270510Y888770D02*
G54D10*
D03*
X346710Y1066570D02*
G54D10*
D03*
X346710Y939570D02*
G54D10*
D03*
X391160Y1066570D02*
G54D10*
D03*
X391160Y939570D02*
G54D10*
D03*
X461010Y907820D02*
G54D10*
D03*
X334010Y907820D02*
G54D10*
D03*
X558800Y1065300D02*
G54D11*
D03*
X558800Y976400D02*
G54D11*
D03*
X558800Y887500D02*
G54D11*
D03*
X152400Y1071650D02*
G54D10*
D03*
X152400Y970050D02*
G54D10*
D03*
X234950Y1071650D02*
G54D10*
D03*
X234950Y970050D02*
G54D10*
D03*
X311150Y1065300D02*
G54D10*
D03*
X311150Y963700D02*
G54D10*
D03*
X462608Y990081D02*
G54D11*
D03*
X462608Y1040881D02*
G54D11*
D03*
X491281Y1013699D02*
G54D11*
D03*
G54D17*
X558800Y887500D02*
X495300Y887500D01*
X482600Y874800D01*
X444500Y874800D01*
X406400Y900200D01*
X334010Y907820D01*
X270510Y888770D01*
X251460Y888770D01*
X194310Y945920D01*
X172720Y945920D01*
X127000Y900200D01*
X101600Y900200D01*
X76200Y925600D01*
X76200Y1039900D01*
X111760Y1072920D01*
G54D14*
X541650Y931950D02*
X558800Y976400D01*
G54D14*
X461010Y907820D02*
X461010Y988483D01*
X462608Y990081D01*
G54D14*
X491281Y1013699D02*
X272581Y1013699D01*
X270510Y1015770D01*
X270510Y1004340D01*
X311150Y963700D01*
X368300Y963700D01*
X381000Y951000D01*
X381000Y949730D01*
X391160Y939570D01*
G54D14*
X111760Y945920D02*
X128270Y945920D01*
X152400Y970050D01*
X234950Y970050D01*
G54D14*
X194310Y1072920D02*
X233680Y1072920D01*
X234950Y1071650D01*
X304800Y1071650D01*
X311150Y1065300D01*
G54D14*
X558800Y1065300D02*
X392430Y1065300D01*
X391160Y1066570D01*
X346710Y1066570D01*
G54D14*
X152400Y1071650D02*
X152400Y1065300D01*
X177800Y1039900D01*
X461627Y1039900D01*
X462608Y1040881D01*
X494319Y1040881D01*
X495300Y1039900D01*
X508000Y1039900D01*
X520700Y1027200D01*
X520700Y976400D01*
X501802Y931950D01*
G54D14*
X346710Y939570D02*
X293370Y939570D01*
X292100Y938300D01*
X279400Y951000D01*
X266700Y976400D01*
X203200Y1039900D01*
G54D14*
X344730Y1068550D02*
X344730Y1069820D01*
X315520Y1099030D01*
X29770Y1099030D01*
X19050Y1109750D01*
X19050Y1116100D01*
X18657Y1135543D01*
G54D17*
X558800Y887500D02*
X609600Y893850D01*
X628650Y906550D01*
X641350Y931950D01*
X641350Y1141500D01*
X628650Y1160550D01*
X603250Y1173250D01*
X1051560Y1060220D02*
G54D10*
D03*
X1051560Y933220D02*
G54D10*
D03*
X1089660Y1060220D02*
G54D10*
D03*
X1089660Y933220D02*
G54D10*
D03*
X861060Y1060220D02*
G54D10*
D03*
X861060Y933220D02*
G54D10*
D03*
X989658Y882131D02*
G54D11*
D03*
X989658Y932931D02*
G54D11*
D03*
X1018331Y905749D02*
G54D11*
D03*
X907108Y875781D02*
G54D11*
D03*
X907108Y926581D02*
G54D11*
D03*
X935781Y899399D02*
G54D11*
D03*
X1143000Y1058950D02*
G54D11*
D03*
X1143000Y881150D02*
G54D11*
D03*
X755650Y881150D02*
G54D11*
D03*
X755650Y931950D02*
G54D11*
D03*
X923386Y986962D02*
G54D16*
D03*
X923386Y1026961D02*
G54D16*
D03*
X1005438Y1010787D02*
G54D16*
D03*
X1005438Y970787D02*
G54D16*
D03*
X819150Y1020850D02*
G54D11*
D03*
X781050Y1058950D02*
G54D11*
D03*
G54D20*
X1143000Y881150D02*
X990639Y881150D01*
X989658Y882131D01*
X964681Y875781D01*
X936625Y873125D01*
X907108Y875781D01*
X841375Y879475D01*
X755650Y881150D01*
G54D17*
X755650Y881150D02*
X733425Y882650D01*
X715875Y890675D01*
X701675Y901700D01*
X688975Y923925D01*
X688975Y1120775D01*
G54D17*
X688975Y1120775D02*
X695325Y1139825D01*
X714375Y1158875D01*
X733425Y1165225D01*
X755650Y1168400D01*
G54D14*
X861060Y933220D02*
X880110Y907415D01*
X904875Y901700D01*
X935781Y899399D01*
G54D14*
X781050Y1058950D02*
X861060Y1060220D01*
X1051560Y1060220D01*
X1089660Y1060220D01*
G54D14*
X1089660Y1060220D02*
X1143000Y1058950D01*
G54D14*
X755650Y931950D02*
X819150Y1020850D01*
X923386Y986962D01*
X907108Y926581D01*
G54D14*
X935781Y899399D02*
X948481Y929431D01*
X962025Y949325D01*
X977627Y962025D01*
X1005438Y970787D01*
G54D14*
X989658Y932931D02*
X1051272Y932931D01*
X1051560Y933220D01*
X1051560Y967740D01*
X1038225Y987425D01*
X1005438Y1010787D01*
G54D14*
X1018331Y905749D02*
X1043701Y905749D01*
X1057275Y904875D01*
X1069975Y904875D01*
X1082675Y917575D01*
X1089660Y933220D01*
X1089660Y967740D01*
X1019175Y1038225D01*
X966400Y1038225D01*
X923386Y1026961D01*
G54D14*
X1181100Y1103400D02*
X1177925Y1085850D01*
X1171575Y1073150D01*
X1160550Y1063625D01*
X1143000Y1058950D01*
X764463Y970075D02*
G54D21*
D03*
X764463Y995475D02*
G54D21*
D03*
G54D14*
X781050Y1058950D02*
X764463Y995475D01*
G54D14*
X755650Y931950D02*
X764463Y970075D01*
X213360Y742720D02*
G54D10*
D03*
X340360Y742720D02*
G54D10*
D03*
X416560Y742719D02*
G54D10*
D03*
X543560Y742720D02*
G54D10*
D03*
X416560Y704619D02*
G54D10*
D03*
X543560Y704620D02*
G54D10*
D03*
X416560Y666519D02*
G54D10*
D03*
X543560Y666520D02*
G54D10*
D03*
X124460Y590319D02*
G54D10*
D03*
X251460Y590320D02*
G54D10*
D03*
X441960Y590319D02*
G54D10*
D03*
X568960Y590320D02*
G54D10*
D03*
X466095Y614086D02*
G54D11*
D03*
X415294Y614086D02*
G54D11*
D03*
X442476Y642759D02*
G54D11*
D03*
X514350Y627150D02*
G54D16*
D03*
X554350Y627150D02*
G54D16*
D03*
X182575Y684798D02*
G54D16*
D03*
X142575Y684798D02*
G54D16*
D03*
X343385Y647331D02*
G54D16*
D03*
X343385Y571131D02*
G54D16*
D03*
X275595Y614086D02*
G54D11*
D03*
X224794Y614086D02*
G54D11*
D03*
X251976Y642759D02*
G54D11*
D03*
X596900Y741450D02*
G54D11*
D03*
X596900Y563650D02*
G54D11*
D03*
X594360Y647470D02*
G54D11*
D03*
X76200Y684300D02*
G54D11*
D03*
X76200Y570000D02*
G54D11*
D03*
G54D17*
X343385Y571131D02*
X285381Y571131D01*
X269875Y555625D01*
X219075Y555625D01*
X206375Y568325D01*
X77875Y568325D01*
X76200Y570000D01*
G54D17*
X124460Y590319D02*
X142875Y568325D01*
G54D17*
X596900Y563650D02*
X568960Y590320D01*
G54D17*
X343385Y571131D02*
X406769Y571131D01*
X422275Y555625D01*
X460375Y555625D01*
X473075Y568325D01*
X596900Y563650D01*
G54D17*
X641350Y931950D02*
X641350Y596900D01*
X638175Y581025D01*
X625475Y568325D01*
X596900Y563650D01*
G54D14*
X594360Y647470D02*
X554350Y627150D01*
G54D14*
X76200Y684300D02*
X142575Y684798D01*
G54D14*
X213360Y742720D02*
X182575Y684798D01*
X224794Y614086D01*
G54D14*
X251460Y590320D02*
X251828Y590320D01*
X275595Y614086D01*
G54D14*
X343385Y647331D02*
X340360Y742720D01*
X416560Y742719D01*
G54D14*
X416560Y742719D02*
X543560Y704620D01*
G54D14*
X441960Y590319D02*
X442328Y590319D01*
X466095Y614086D01*
G54D14*
X416560Y704619D02*
X416560Y666519D01*
X415294Y614086D01*
X325835Y613951D01*
X295275Y657225D01*
X266442Y657225D01*
X251976Y642759D01*
G54D14*
X596900Y741450D02*
X543560Y742720D01*
G54D14*
X543560Y666520D02*
X514350Y627150D01*
X485775Y657225D01*
X461060Y657020D01*
X442476Y642759D01*
G54D14*
X19050Y843050D02*
X19050Y791369D01*
X22225Y784225D01*
X28575Y776288D01*
X34925Y771525D01*
X434975Y771525D01*
X543560Y742720D01*
G36*
X1133596Y1243406D02*
X1151596Y1243406D01*
X1151596Y1225406D01*
X1133596Y1225406D01*
X1133596Y1243406D01*
G37*
X1142596Y1259806D02*
G54D21*
D03*
G36*
X1133596Y974166D02*
X1151596Y974166D01*
X1151596Y956166D01*
X1133596Y956166D01*
X1133596Y974166D01*
G37*
X1142596Y990566D02*
G54D21*
D03*
G36*
X66796Y633806D02*
X84796Y633806D01*
X84796Y615806D01*
X66796Y615806D01*
X66796Y633806D01*
G37*
X75796Y650206D02*
G54D21*
D03*
G36*
X43936Y1057986D02*
X61936Y1057986D01*
X61936Y1039986D01*
X43936Y1039986D01*
X43936Y1057986D01*
G37*
X52936Y1074386D02*
G54D21*
D03*
G54D14*
X1143000Y1058950D02*
X1143000Y990970D01*
X1142596Y990566D01*
G54D14*
X1142596Y1259806D02*
X1181098Y1259175D01*
G54D14*
X52936Y1074386D02*
X52936Y1097511D01*
G54D14*
X19685Y789305D02*
X19685Y687705D01*
X29210Y665480D01*
X50362Y652780D01*
X75796Y650206D01*
G54D17*
X1142596Y1234406D02*
X1140460Y1168170D01*
G54D17*
X1143000Y881150D02*
X1143000Y964762D01*
X1142596Y965166D01*
G54D17*
X52936Y1048986D02*
X76200Y1039900D01*
G54D17*
X76200Y570000D02*
X76200Y624402D01*
X75796Y624806D01*
G54D14*
X239320Y1227496D02*
X239320Y1202096D01*
X226620Y1181580D01*
X219075Y1176338D01*
X207570Y1175230D01*
X53582Y1175230D01*
X38100Y1173250D01*
X26595Y1165705D01*
G54D22*
G75*
G01X31850Y1155800D02*
G03X6450Y1155800I-12700J0D01*
G01*
G36*
G75*
G01X31850Y1155800D02*
G03X6450Y1155800I-12700J0D01*
G01*
G37*
X31850Y1155800D01*
G54D22*
G75*
G01X6450Y1149250D02*
G03X31850Y1149250I12700J0D01*
G01*
G36*
G75*
G01X6450Y1149250D02*
G03X31850Y1149250I12700J0D01*
G01*
G37*
X6450Y1149250D01*
G54D22*
G75*
G01X1192630Y1155800D02*
G03X1167230Y1155800I-12700J0D01*
G01*
G36*
G75*
G01X1192630Y1155800D02*
G03X1167230Y1155800I-12700J0D01*
G01*
G37*
X1192630Y1155800D01*
G54D22*
G75*
G01X1167230Y1149250D02*
G03X1192630Y1149250I12700J0D01*
G01*
G36*
G75*
G01X1167230Y1149250D02*
G03X1192630Y1149250I12700J0D01*
G01*
G37*
X1167230Y1149250D01*
G54D14*
X1181100Y1103400D02*
X1181100Y1136650D01*
G54D22*
G75*
G01X31850Y863700D02*
G03X6450Y863700I-12700J0D01*
G01*
G36*
G75*
G01X31850Y863700D02*
G03X6450Y863700I-12700J0D01*
G01*
G37*
X31850Y863700D01*
G54D22*
G75*
G01X6450Y857150D02*
G03X31850Y857150I12700J0D01*
G01*
G36*
G75*
G01X6450Y857150D02*
G03X31850Y857150I12700J0D01*
G01*
G37*
X6450Y857150D01*
G54D14*
X19050Y1116100D02*
X19050Y876300D01*
G54D22*
G75*
G01X1192630Y863700D02*
G03X1167230Y863700I-12700J0D01*
G01*
G36*
G75*
G01X1192630Y863700D02*
G03X1167230Y863700I-12700J0D01*
G01*
G37*
X1192630Y863700D01*
G54D22*
G75*
G01X1167230Y857150D02*
G03X1192630Y857150I12700J0D01*
G01*
G36*
G75*
G01X1167230Y857150D02*
G03X1192630Y857150I12700J0D01*
G01*
G37*
X1167230Y857150D01*
G54D14*
X1180349Y871914D02*
X1177925Y1066800D01*
X1177925Y1085850D01*
G36*
X196336Y1318336D02*
X214336Y1318336D01*
X214336Y1300336D01*
X196336Y1300336D01*
X196336Y1318336D01*
G37*
X205336Y1334736D02*
G54D21*
D03*
G54D17*
X558800Y1477962D02*
X196850Y1477962D01*
X177800Y1471612D01*
X171450Y1452562D01*
X171450Y1347788D01*
X176212Y1322388D01*
X188912Y1311275D01*
X205336Y1309336D01*
G54D14*
X205336Y1334736D02*
X239712Y1335175D01*
X826770Y745260D02*
G54D10*
D03*
X826770Y618260D02*
G54D10*
D03*
X864870Y745260D02*
G54D10*
D03*
X864870Y618260D02*
G54D10*
D03*
X1042670Y745260D02*
G54D10*
D03*
X1042670Y618260D02*
G54D10*
D03*
X1080770Y745260D02*
G54D10*
D03*
X1080770Y618260D02*
G54D10*
D03*
X784860Y737640D02*
G54D10*
D03*
X784860Y636040D02*
G54D10*
D03*
X911860Y699540D02*
G54D10*
D03*
X1013460Y699540D02*
G54D10*
D03*
X911860Y661440D02*
G54D10*
D03*
X1013460Y661440D02*
G54D10*
D03*
X740410Y636040D02*
G54D11*
D03*
X740410Y559840D02*
G54D11*
D03*
X1134110Y559840D02*
G54D11*
D03*
X1134110Y737640D02*
G54D11*
D03*
X980769Y559552D02*
G54D11*
D03*
X980769Y610352D02*
G54D11*
D03*
X1009442Y583170D02*
G54D11*
D03*
X904569Y559552D02*
G54D11*
D03*
X904569Y610352D02*
G54D11*
D03*
X933242Y583170D02*
G54D11*
D03*
G36*
X1124898Y654737D02*
X1142898Y654737D01*
X1142898Y636737D01*
X1124898Y636737D01*
X1124898Y654737D01*
G37*
X1133898Y671137D02*
G54D21*
D03*
G54D17*
X596900Y563650D02*
X740410Y559840D01*
X904281Y559840D01*
X904569Y559552D01*
X904569Y555931D01*
X917575Y542925D01*
X942975Y542925D01*
X955675Y555625D01*
X980769Y559552D01*
X1006475Y542925D01*
X1019175Y542925D01*
X1031875Y555625D01*
X1129895Y555625D01*
X1134110Y559840D01*
X1134110Y645526D01*
X1133898Y645737D01*
G54D14*
X740410Y636040D02*
X740410Y707390D01*
X739775Y708025D01*
X742950Y720725D01*
X752475Y733425D01*
X784860Y737640D01*
G54D14*
X826770Y745260D02*
X864870Y745260D01*
X1042670Y745260D01*
X1080770Y745260D01*
X1134110Y737640D01*
G54D14*
X784860Y636040D02*
X826770Y618260D01*
X835025Y600075D01*
X847725Y590550D01*
X866775Y587375D01*
X887942Y593725D01*
X904569Y610352D01*
G54D14*
X904569Y610352D02*
X911860Y661440D01*
G54D14*
X864870Y618260D02*
X864870Y662660D01*
X879475Y682625D01*
X911860Y699540D01*
G54D14*
X933242Y583170D02*
X939592Y660608D01*
X936625Y682625D01*
X928775Y688975D01*
X911860Y699540D01*
G54D14*
X980769Y610352D02*
X980769Y682319D01*
X981075Y682625D01*
X981075Y695325D01*
X987425Y701675D01*
X1011325Y701675D01*
X1013460Y699540D01*
G54D14*
X1013460Y699540D02*
X1080770Y618260D01*
G54D14*
X1009442Y583170D02*
X1009442Y585032D01*
X1042670Y618260D01*
X1013460Y661440D01*
G54D14*
X1134110Y737640D02*
X1134110Y671349D01*
X1133898Y671137D01*
G54D14*
X19685Y589280D02*
X19685Y551815D01*
X22225Y539750D01*
X25400Y530225D01*
X34925Y520700D01*
X47625Y517525D01*
X1146175Y517525D01*
X1162050Y523875D01*
X1171575Y533400D01*
X1177925Y549275D01*
G54D14*
X1180148Y847725D02*
X1180148Y682625D01*
G54D17*
X688975Y923925D02*
X688975Y612775D01*
X692150Y587375D01*
X704850Y568325D01*
X717550Y561975D01*
G54D14*
X1134110Y737640D02*
X1156623Y733860D01*
X1170363Y723901D01*
X1179138Y707419D01*
G54D14*
X1177925Y549275D02*
X1180148Y561975D01*
G54D22*
G75*
G01X1192630Y670025D02*
G03X1167230Y670025I-12700J0D01*
G01*
G36*
G75*
G01X1192630Y670025D02*
G03X1167230Y670025I-12700J0D01*
G01*
G37*
X1192630Y670025D01*
G54D22*
G75*
G01X1167230Y663475D02*
G03X1192630Y663475I12700J0D01*
G01*
G36*
G75*
G01X1167230Y663475D02*
G03X1192630Y663475I12700J0D01*
G01*
G37*
X1167230Y663475D01*
G54D14*
X1180148Y561975D02*
X1180148Y651828D01*
G54D22*
G75*
G01X31850Y606525D02*
G03X6450Y606525I-12700J0D01*
G01*
G36*
G75*
G01X31850Y606525D02*
G03X6450Y606525I-12700J0D01*
G01*
G37*
X31850Y606525D01*
G54D22*
G75*
G01X6450Y599975D02*
G03X31850Y599975I12700J0D01*
G01*
G36*
G75*
G01X6450Y599975D02*
G03X31850Y599975I12700J0D01*
G01*
G37*
X6450Y599975D01*
G54D14*
X19685Y687705D02*
X19685Y616585D01*
X19050Y615950D01*
X204470Y415060D02*
G54D10*
D03*
X204470Y288060D02*
G54D10*
D03*
X255270Y415060D02*
G54D10*
D03*
X255270Y288060D02*
G54D10*
D03*
X674370Y415060D02*
G54D10*
D03*
X674370Y288060D02*
G54D10*
D03*
X572770Y415060D02*
G54D10*
D03*
X572770Y288060D02*
G54D10*
D03*
X1055370Y415060D02*
G54D10*
D03*
X1055370Y288060D02*
G54D10*
D03*
X1093470Y415060D02*
G54D10*
D03*
X1093470Y288060D02*
G54D10*
D03*
X149860Y394740D02*
G54D10*
D03*
X149860Y293140D02*
G54D10*
D03*
X975360Y382040D02*
G54D10*
D03*
X975360Y280440D02*
G54D10*
D03*
X1013460Y382040D02*
G54D10*
D03*
X1013460Y280440D02*
G54D10*
D03*
X292100Y252500D02*
G54D11*
D03*
X520700Y252500D02*
G54D11*
D03*
X927100Y252500D02*
G54D11*
D03*
X520700Y430300D02*
G54D11*
D03*
X927100Y430300D02*
G54D11*
D03*
X292100Y430300D02*
G54D11*
D03*
X711200Y252500D02*
G54D11*
D03*
X711200Y430300D02*
G54D11*
D03*
X1130300Y252500D02*
G54D11*
D03*
X1130300Y430300D02*
G54D11*
D03*
X101600Y252500D02*
G54D11*
D03*
X101600Y430300D02*
G54D11*
D03*
G54D17*
X101600Y252500D02*
X292100Y252500D01*
G54D17*
X520700Y252500D02*
X711200Y252500D01*
G54D17*
X927100Y252500D02*
X1130300Y252500D01*
G54D14*
X204470Y288060D02*
X149860Y394740D01*
G54D14*
X255270Y415060D02*
X292100Y430300D01*
G54D17*
X149860Y293140D02*
X149860Y251460D01*
X149225Y250825D01*
G54D17*
X572770Y288060D02*
X572770Y252730D01*
G54D17*
X1013460Y280440D02*
X1013460Y256540D01*
G54D17*
X975360Y280440D02*
X975360Y256540D01*
G54D14*
X255270Y288060D02*
X204470Y415060D01*
X177800Y428625D01*
X142240Y430935D01*
X101600Y430300D01*
G54D14*
X520700Y430300D02*
X557530Y430300D01*
X572770Y415060D01*
G54D14*
X674370Y288060D02*
X624438Y314328D01*
X608563Y331337D01*
X600075Y352425D01*
X587375Y387755D01*
X572770Y415060D01*
G54D14*
X624438Y365128D02*
X674370Y415060D01*
X711200Y430300D01*
G54D14*
X1055370Y288060D02*
X1013460Y382040D01*
G54D14*
X927100Y430300D02*
X975360Y382040D01*
X993775Y403225D01*
X1006475Y415925D01*
X1022350Y420140D01*
X1055370Y415060D01*
G54D14*
X1093470Y415060D02*
X1130300Y430300D01*
G54D14*
X1093470Y288060D02*
X1055370Y415060D01*
G54D17*
X975360Y280440D02*
X1013460Y280440D01*
G54D17*
X101600Y252500D02*
X101600Y387350D01*
G54D17*
X292100Y252500D02*
X292100Y387350D01*
G54D17*
X520700Y252500D02*
X520700Y387350D01*
G54D17*
X711200Y252500D02*
X711200Y393700D01*
G54D17*
X927100Y252500D02*
X927100Y374650D01*
G54D17*
X1130300Y252500D02*
X1130300Y374650D01*
X624438Y365128D02*
G54D23*
D03*
X624438Y314328D02*
G54D23*
D03*
X25400Y127000D02*
G54D24*
D03*
X25400Y152400D02*
G54D24*
D03*
X50800Y127000D02*
G54D24*
D03*
X50800Y152400D02*
G54D24*
D03*
X76200Y127000D02*
G54D24*
D03*
X76200Y152400D02*
G54D24*
D03*
X101600Y127000D02*
G54D24*
D03*
X101600Y152400D02*
G54D24*
D03*
X127000Y127000D02*
G54D24*
D03*
X127000Y152400D02*
G54D24*
D03*
X152400Y127000D02*
G54D24*
D03*
X152400Y152400D02*
G54D24*
D03*
X177800Y127000D02*
G54D24*
D03*
X177800Y152400D02*
G54D24*
D03*
X203200Y127000D02*
G54D24*
D03*
X203200Y152400D02*
G54D24*
D03*
X228600Y127000D02*
G54D24*
D03*
X228600Y152400D02*
G54D24*
D03*
X254000Y127000D02*
G54D24*
D03*
X254000Y152400D02*
G54D24*
D03*
X279400Y127000D02*
G54D24*
D03*
X279400Y152400D02*
G54D24*
D03*
X304800Y127000D02*
G54D24*
D03*
X304800Y152400D02*
G54D24*
D03*
X330200Y127000D02*
G54D24*
D03*
X330200Y152400D02*
G54D24*
D03*
X355600Y127000D02*
G54D24*
D03*
X355600Y152400D02*
G54D24*
D03*
X381000Y127000D02*
G54D24*
D03*
X381000Y152400D02*
G54D24*
D03*
X406400Y127000D02*
G54D24*
D03*
X406400Y152400D02*
G54D24*
D03*
X431800Y127000D02*
G54D24*
D03*
X431800Y152400D02*
G54D24*
D03*
X457200Y127000D02*
G54D24*
D03*
X457200Y152400D02*
G54D24*
D03*
X482600Y127000D02*
G54D24*
D03*
X482600Y152400D02*
G54D24*
D03*
X508000Y127000D02*
G54D24*
D03*
X508000Y152400D02*
G54D24*
D03*
X533400Y127000D02*
G54D24*
D03*
X533400Y152400D02*
G54D24*
D03*
X558800Y127000D02*
G54D24*
D03*
X558800Y152400D02*
G54D24*
D03*
X584200Y127000D02*
G54D24*
D03*
X584200Y152400D02*
G54D24*
D03*
X609600Y127000D02*
G54D24*
D03*
X609600Y152400D02*
G54D24*
D03*
X635000Y127000D02*
G54D24*
D03*
X635000Y152400D02*
G54D24*
D03*
X660400Y127000D02*
G54D24*
D03*
X660400Y152400D02*
G54D24*
D03*
X685800Y127000D02*
G54D24*
D03*
X685800Y152400D02*
G54D24*
D03*
X711200Y127000D02*
G54D24*
D03*
X711200Y152400D02*
G54D24*
D03*
X736600Y127000D02*
G54D24*
D03*
X736600Y152400D02*
G54D24*
D03*
X762000Y127000D02*
G54D24*
D03*
X762000Y152400D02*
G54D24*
D03*
X787400Y127000D02*
G54D24*
D03*
X787400Y152400D02*
G54D24*
D03*
X812800Y127000D02*
G54D24*
D03*
X812800Y152400D02*
G54D24*
D03*
X838200Y127000D02*
G54D24*
D03*
X838200Y152400D02*
G54D24*
D03*
X863600Y127000D02*
G54D24*
D03*
X863600Y152400D02*
G54D24*
D03*
X889000Y127000D02*
G54D24*
D03*
X889000Y152400D02*
G54D24*
D03*
X914400Y127000D02*
G54D24*
D03*
X914400Y152400D02*
G54D24*
D03*
X939800Y127000D02*
G54D24*
D03*
X939800Y152400D02*
G54D24*
D03*
X965200Y127000D02*
G54D24*
D03*
X965200Y152400D02*
G54D24*
D03*
X990600Y127000D02*
G54D24*
D03*
X990600Y152400D02*
G54D24*
D03*
X1016000Y127000D02*
G54D24*
D03*
X1016000Y152400D02*
G54D24*
D03*
X1041400Y127000D02*
G54D24*
D03*
X1041400Y152400D02*
G54D24*
D03*
X1066800Y127000D02*
G54D24*
D03*
X1066800Y152400D02*
G54D24*
D03*
X1092200Y127000D02*
G54D24*
D03*
X1092200Y152400D02*
G54D24*
D03*
X1117600Y127000D02*
G54D24*
D03*
X1117600Y152400D02*
G54D24*
D03*
X1143000Y127000D02*
G54D24*
D03*
X1143000Y152400D02*
G54D24*
D03*
X1168400Y127000D02*
G54D24*
D03*
X1168400Y152400D02*
G54D24*
D03*
X1193800Y127000D02*
G54D24*
D03*
X1193800Y152400D02*
G54D24*
D03*
X1219200Y127000D02*
G54D24*
D03*
X1219200Y152400D02*
G54D24*
D03*
X25400Y76200D02*
G54D24*
D03*
X25400Y101600D02*
G54D24*
D03*
X50800Y76200D02*
G54D24*
D03*
X50800Y101600D02*
G54D24*
D03*
X76200Y76200D02*
G54D24*
D03*
X76200Y101600D02*
G54D24*
D03*
X101600Y76200D02*
G54D24*
D03*
X101600Y101600D02*
G54D24*
D03*
X127000Y76200D02*
G54D24*
D03*
X127000Y101600D02*
G54D24*
D03*
X152400Y76200D02*
G54D24*
D03*
X152400Y101600D02*
G54D24*
D03*
X177800Y76200D02*
G54D24*
D03*
X177800Y101600D02*
G54D24*
D03*
X203200Y76200D02*
G54D24*
D03*
X203200Y101600D02*
G54D24*
D03*
X228600Y76200D02*
G54D24*
D03*
X228600Y101600D02*
G54D24*
D03*
X254000Y76200D02*
G54D24*
D03*
X254000Y101600D02*
G54D24*
D03*
X279400Y76200D02*
G54D24*
D03*
X279400Y101600D02*
G54D24*
D03*
X304800Y76200D02*
G54D24*
D03*
X304800Y101600D02*
G54D24*
D03*
X330200Y101600D02*
G54D24*
D03*
X355600Y101600D02*
G54D24*
D03*
X381000Y101600D02*
G54D24*
D03*
X406400Y101600D02*
G54D24*
D03*
X431800Y101600D02*
G54D24*
D03*
X457200Y101600D02*
G54D24*
D03*
X482600Y101600D02*
G54D24*
D03*
X508000Y101600D02*
G54D24*
D03*
X533400Y101600D02*
G54D24*
D03*
X558800Y101600D02*
G54D24*
D03*
X584200Y101600D02*
G54D24*
D03*
X609600Y76200D02*
G54D24*
D03*
X609600Y101600D02*
G54D24*
D03*
X635000Y76200D02*
G54D24*
D03*
X635000Y101600D02*
G54D24*
D03*
X660400Y76200D02*
G54D24*
D03*
X660400Y101600D02*
G54D24*
D03*
X685800Y76200D02*
G54D24*
D03*
X685800Y101600D02*
G54D24*
D03*
X711200Y76200D02*
G54D24*
D03*
X711200Y101600D02*
G54D24*
D03*
X736600Y76200D02*
G54D24*
D03*
X736600Y101600D02*
G54D24*
D03*
X914400Y76200D02*
G54D24*
D03*
X914400Y101600D02*
G54D24*
D03*
X939800Y76200D02*
G54D24*
D03*
X939800Y101600D02*
G54D24*
D03*
X965200Y76200D02*
G54D24*
D03*
X965200Y101600D02*
G54D24*
D03*
X990600Y76200D02*
G54D24*
D03*
X990600Y101600D02*
G54D24*
D03*
X1016000Y76200D02*
G54D24*
D03*
X1016000Y101600D02*
G54D24*
D03*
X1041400Y76200D02*
G54D24*
D03*
X1041400Y101600D02*
G54D24*
D03*
X1066800Y76200D02*
G54D24*
D03*
X1066800Y101600D02*
G54D24*
D03*
X1092200Y76200D02*
G54D24*
D03*
X1092200Y101600D02*
G54D24*
D03*
X1117600Y76200D02*
G54D24*
D03*
X1117600Y101600D02*
G54D24*
D03*
X1143000Y76200D02*
G54D24*
D03*
X1143000Y101600D02*
G54D24*
D03*
X1168400Y76200D02*
G54D24*
D03*
X1168400Y101600D02*
G54D24*
D03*
X1193800Y76200D02*
G54D24*
D03*
X1193800Y101600D02*
G54D24*
D03*
X1219200Y76200D02*
G54D24*
D03*
X1219200Y101600D02*
G54D24*
D03*
X25400Y25400D02*
G54D24*
D03*
X25400Y50800D02*
G54D24*
D03*
X50800Y25400D02*
G54D24*
D03*
X50800Y50800D02*
G54D24*
D03*
X76200Y25400D02*
G54D24*
D03*
X76200Y50800D02*
G54D24*
D03*
X101600Y25400D02*
G54D24*
D03*
X101600Y50800D02*
G54D24*
D03*
X127000Y25400D02*
G54D24*
D03*
X127000Y50800D02*
G54D24*
D03*
X152400Y25400D02*
G54D24*
D03*
X152400Y50800D02*
G54D24*
D03*
X177800Y25400D02*
G54D24*
D03*
X177800Y50800D02*
G54D24*
D03*
X203200Y25400D02*
G54D24*
D03*
X203200Y50800D02*
G54D24*
D03*
X228600Y25400D02*
G54D24*
D03*
X228600Y50800D02*
G54D24*
D03*
X254000Y25400D02*
G54D24*
D03*
X254000Y50800D02*
G54D24*
D03*
X279400Y25400D02*
G54D24*
D03*
X279400Y50800D02*
G54D24*
D03*
X304800Y25400D02*
G54D24*
D03*
X304800Y50800D02*
G54D24*
D03*
X609600Y25400D02*
G54D24*
D03*
X609600Y50800D02*
G54D24*
D03*
X635000Y25400D02*
G54D24*
D03*
X635000Y50800D02*
G54D24*
D03*
X660400Y25400D02*
G54D24*
D03*
X660400Y50800D02*
G54D24*
D03*
X685800Y25400D02*
G54D24*
D03*
X685800Y50800D02*
G54D24*
D03*
X711200Y25400D02*
G54D24*
D03*
X711200Y50800D02*
G54D24*
D03*
X736600Y25400D02*
G54D24*
D03*
X736600Y50800D02*
G54D24*
D03*
X914400Y25400D02*
G54D24*
D03*
X914400Y50800D02*
G54D24*
D03*
X939800Y25400D02*
G54D24*
D03*
X939800Y50800D02*
G54D24*
D03*
X965200Y25400D02*
G54D24*
D03*
X965200Y50800D02*
G54D24*
D03*
X990600Y25400D02*
G54D24*
D03*
X990600Y50800D02*
G54D24*
D03*
X1016000Y25400D02*
G54D24*
D03*
X1016000Y50800D02*
G54D24*
D03*
X1041400Y25400D02*
G54D24*
D03*
X1041400Y50800D02*
G54D24*
D03*
X1066800Y25400D02*
G54D24*
D03*
X1066800Y50800D02*
G54D24*
D03*
X1092200Y25400D02*
G54D24*
D03*
X1092200Y50800D02*
G54D24*
D03*
X1117600Y25400D02*
G54D24*
D03*
X1117600Y50800D02*
G54D24*
D03*
X1143000Y25400D02*
G54D24*
D03*
X1143000Y50800D02*
G54D24*
D03*
X1168400Y25400D02*
G54D24*
D03*
X1168400Y50800D02*
G54D24*
D03*
X1193800Y25400D02*
G54D24*
D03*
X1193800Y50800D02*
G54D24*
D03*
X1219200Y25400D02*
G54D24*
D03*
X1219200Y50800D02*
G54D24*
D03*
X25400Y-25400D02*
G54D24*
D03*
X25400Y0D02*
G54D24*
D03*
X50800Y-25400D02*
G54D24*
D03*
X50800Y0D02*
G54D24*
D03*
X76200Y-25400D02*
G54D24*
D03*
X76200Y0D02*
G54D24*
D03*
X101600Y-25400D02*
G54D24*
D03*
X101600Y0D02*
G54D24*
D03*
X127000Y-25400D02*
G54D24*
D03*
X127000Y0D02*
G54D24*
D03*
X152400Y-25400D02*
G54D24*
D03*
X152400Y0D02*
G54D24*
D03*
X177800Y-25400D02*
G54D24*
D03*
X177800Y0D02*
G54D24*
D03*
X203200Y-25400D02*
G54D24*
D03*
X203200Y0D02*
G54D24*
D03*
X228600Y-25400D02*
G54D24*
D03*
X228600Y0D02*
G54D24*
D03*
X254000Y-25400D02*
G54D24*
D03*
X254000Y0D02*
G54D24*
D03*
X279400Y-25400D02*
G54D24*
D03*
X279400Y0D02*
G54D24*
D03*
X304800Y-25400D02*
G54D24*
D03*
X304800Y0D02*
G54D24*
D03*
X330200Y-25400D02*
G54D24*
D03*
X355600Y-25400D02*
G54D24*
D03*
X381000Y-25400D02*
G54D24*
D03*
X406400Y-25400D02*
G54D24*
D03*
X431800Y-25400D02*
G54D24*
D03*
X457200Y-25400D02*
G54D24*
D03*
X482600Y-25400D02*
G54D24*
D03*
X508000Y-25400D02*
G54D24*
D03*
X533400Y-25400D02*
G54D24*
D03*
X558800Y-25400D02*
G54D24*
D03*
X584200Y-25400D02*
G54D24*
D03*
X609600Y-25400D02*
G54D24*
D03*
X609600Y0D02*
G54D24*
D03*
X635000Y-25400D02*
G54D24*
D03*
X635000Y0D02*
G54D24*
D03*
X660400Y-25400D02*
G54D24*
D03*
X660400Y0D02*
G54D24*
D03*
X685800Y-25400D02*
G54D24*
D03*
X685800Y0D02*
G54D24*
D03*
X711200Y-25400D02*
G54D24*
D03*
X711200Y0D02*
G54D24*
D03*
X736600Y-25400D02*
G54D24*
D03*
X736600Y0D02*
G54D24*
D03*
X914400Y-25400D02*
G54D24*
D03*
X914400Y0D02*
G54D24*
D03*
X939800Y-25400D02*
G54D24*
D03*
X939800Y0D02*
G54D24*
D03*
X965200Y-25400D02*
G54D24*
D03*
X965200Y0D02*
G54D24*
D03*
X990600Y-25400D02*
G54D24*
D03*
X990600Y0D02*
G54D24*
D03*
X1016000Y-25400D02*
G54D24*
D03*
X1016000Y0D02*
G54D24*
D03*
X1041400Y-25400D02*
G54D24*
D03*
X1041400Y0D02*
G54D24*
D03*
X1066800Y-25400D02*
G54D24*
D03*
X1066800Y0D02*
G54D24*
D03*
X1092200Y-25400D02*
G54D24*
D03*
X1092200Y0D02*
G54D24*
D03*
X1117600Y-25400D02*
G54D24*
D03*
X1117600Y0D02*
G54D24*
D03*
X1143000Y-25400D02*
G54D24*
D03*
X1143000Y0D02*
G54D24*
D03*
X1168400Y-25400D02*
G54D24*
D03*
X1168400Y0D02*
G54D24*
D03*
X1193800Y-25400D02*
G54D24*
D03*
X1193800Y0D02*
G54D24*
D03*
X1219200Y-25400D02*
G54D24*
D03*
X1219200Y0D02*
G54D24*
D03*
X25400Y-76200D02*
G54D24*
D03*
X25400Y-50800D02*
G54D24*
D03*
X50800Y-76200D02*
G54D24*
D03*
X50800Y-50800D02*
G54D24*
D03*
X76200Y-76200D02*
G54D24*
D03*
X76200Y-50800D02*
G54D24*
D03*
X101600Y-76200D02*
G54D24*
D03*
X101600Y-50800D02*
G54D24*
D03*
X127000Y-76200D02*
G54D24*
D03*
X127000Y-50800D02*
G54D24*
D03*
X152400Y-76200D02*
G54D24*
D03*
X152400Y-50800D02*
G54D24*
D03*
X177800Y-76200D02*
G54D24*
D03*
X177800Y-50800D02*
G54D24*
D03*
X203200Y-76200D02*
G54D24*
D03*
X203200Y-50800D02*
G54D24*
D03*
X228600Y-76200D02*
G54D24*
D03*
X228600Y-50800D02*
G54D24*
D03*
X254000Y-76200D02*
G54D24*
D03*
X254000Y-50800D02*
G54D24*
D03*
X279400Y-76200D02*
G54D24*
D03*
X279400Y-50800D02*
G54D24*
D03*
X304800Y-76200D02*
G54D24*
D03*
X304800Y-50800D02*
G54D24*
D03*
X330200Y-76200D02*
G54D24*
D03*
X330200Y-50800D02*
G54D24*
D03*
X355600Y-76200D02*
G54D24*
D03*
X355600Y-50800D02*
G54D24*
D03*
X381000Y-76200D02*
G54D24*
D03*
X381000Y-50800D02*
G54D24*
D03*
X406400Y-76200D02*
G54D24*
D03*
X406400Y-50800D02*
G54D24*
D03*
X431800Y-76200D02*
G54D24*
D03*
X431800Y-50800D02*
G54D24*
D03*
X457200Y-76200D02*
G54D24*
D03*
X457200Y-50800D02*
G54D24*
D03*
X482600Y-76200D02*
G54D24*
D03*
X482600Y-50800D02*
G54D24*
D03*
X508000Y-76200D02*
G54D24*
D03*
X508000Y-50800D02*
G54D24*
D03*
X533400Y-76200D02*
G54D24*
D03*
X533400Y-50800D02*
G54D24*
D03*
X558800Y-76200D02*
G54D24*
D03*
X558800Y-50800D02*
G54D24*
D03*
X584200Y-76200D02*
G54D24*
D03*
X584200Y-50800D02*
G54D24*
D03*
X609600Y-76200D02*
G54D24*
D03*
X609600Y-50800D02*
G54D24*
D03*
X635000Y-76200D02*
G54D24*
D03*
X635000Y-50800D02*
G54D24*
D03*
X660400Y-76200D02*
G54D24*
D03*
X660400Y-50800D02*
G54D24*
D03*
X685800Y-76200D02*
G54D24*
D03*
X685800Y-50800D02*
G54D24*
D03*
X711200Y-76200D02*
G54D24*
D03*
X711200Y-50800D02*
G54D24*
D03*
X736600Y-76200D02*
G54D24*
D03*
X736600Y-50800D02*
G54D24*
D03*
X762000Y-76200D02*
G54D24*
D03*
X787400Y-76200D02*
G54D24*
D03*
X812800Y-76200D02*
G54D24*
D03*
X838200Y-76200D02*
G54D24*
D03*
X863600Y-76200D02*
G54D24*
D03*
X889000Y-76200D02*
G54D24*
D03*
X914400Y-76200D02*
G54D24*
D03*
X914400Y-50800D02*
G54D24*
D03*
X939800Y-76200D02*
G54D24*
D03*
X939800Y-50800D02*
G54D24*
D03*
X965200Y-76200D02*
G54D24*
D03*
X965200Y-50800D02*
G54D24*
D03*
X990600Y-76200D02*
G54D24*
D03*
X990600Y-50800D02*
G54D24*
D03*
X1016000Y-76200D02*
G54D24*
D03*
X1016000Y-50800D02*
G54D24*
D03*
X1041400Y-76200D02*
G54D24*
D03*
X1041400Y-50800D02*
G54D24*
D03*
X1066800Y-76200D02*
G54D24*
D03*
X1066800Y-50800D02*
G54D24*
D03*
X1092200Y-76200D02*
G54D24*
D03*
X1092200Y-50800D02*
G54D24*
D03*
X1117600Y-76200D02*
G54D24*
D03*
X1117600Y-50800D02*
G54D24*
D03*
X1143000Y-76200D02*
G54D24*
D03*
X1143000Y-50800D02*
G54D24*
D03*
X1168400Y-76200D02*
G54D24*
D03*
X1168400Y-50800D02*
G54D24*
D03*
X1193800Y-76200D02*
G54D24*
D03*
X1193800Y-50800D02*
G54D24*
D03*
X1219200Y-76200D02*
G54D24*
D03*
X1219200Y-50800D02*
G54D24*
D03*
X381000Y0D02*
G54D25*
D03*
X406400Y0D02*
G54D25*
D03*
X431800Y0D02*
G54D25*
D03*
X457200Y0D02*
G54D25*
D03*
X381000Y76200D02*
G54D25*
D03*
X406400Y76200D02*
G54D25*
D03*
X431800Y76200D02*
G54D25*
D03*
X457200Y76200D02*
G54D25*
D03*
X482600Y0D02*
G54D25*
D03*
X482600Y76200D02*
G54D25*
D03*
X508000Y0D02*
G54D25*
D03*
X533400Y0D02*
G54D25*
D03*
X508000Y76200D02*
G54D25*
D03*
X533400Y76200D02*
G54D25*
D03*
X330200Y76200D02*
G54D24*
D03*
X330200Y0D02*
G54D24*
D03*
X584200Y76200D02*
G54D24*
D03*
X584200Y25400D02*
G54D24*
D03*
X584200Y50800D02*
G54D24*
D03*
X584200Y0D02*
G54D24*
D03*
X330200Y25400D02*
G54D24*
D03*
X330200Y50800D02*
G54D24*
D03*
G54D14*
X25400Y152400D02*
X1219200Y152400D01*
G54D14*
X25400Y-76200D02*
X1219200Y-76200D01*
X876300Y38100D02*
G54D26*
D03*
X866598Y67960D02*
G54D26*
D03*
X841198Y86414D02*
G54D26*
D03*
X809802Y86414D02*
G54D26*
D03*
X784402Y67960D02*
G54D26*
D03*
X774700Y38100D02*
G54D26*
D03*
X784402Y8240D02*
G54D26*
D03*
X809802Y-10214D02*
G54D26*
D03*
X841198Y-10214D02*
G54D26*
D03*
X866598Y8240D02*
G54D26*
D03*
X762000Y-50800D02*
G54D24*
D03*
X787400Y-50800D02*
G54D24*
D03*
X812800Y-50800D02*
G54D24*
D03*
X838200Y-50800D02*
G54D24*
D03*
X863600Y-50800D02*
G54D24*
D03*
X889000Y-50800D02*
G54D24*
D03*
X541650Y931950D02*
G54D16*
D03*
X501802Y931950D02*
G54D16*
D03*
G54D17*
X590550Y887500D02*
X622300Y869950D01*
X641350Y831850D01*
G54D17*
X692150Y831850D02*
X711200Y863600D01*
X733425Y882650D01*
G54D14*
X44450Y1098550D02*
X25400Y1085850D01*
X19050Y1066800D01*
G54D14*
X20638Y746125D02*
X28575Y758825D01*
X39688Y768350D01*
X50800Y771525D01*
G54D14*
X20638Y635000D02*
X28575Y644525D01*
X34925Y650875D01*
X50362Y652780D01*
G54D14*
X1151860Y735447D02*
X1162973Y740698D01*
X1171575Y749300D01*
X1179512Y763588D01*
G54D14*
X1160550Y1063625D02*
X1167278Y1056528D01*
X1175154Y1049232D01*
X1177925Y1038225D01*
M02*
